<svg width="416" height="239" viewBox="0 0 416 239" fill="none" xmlns="http://www.w3.org/2000/svg">
<rect width="416" height="239" fill="#E3F2FF"/>
<path d="M126.74 107H119.196V91.5947H105.061V107H97.4922V71.3066H105.061V85.2959H119.196V71.3066H126.74V107ZM168.171 89.1045C168.171 95.0127 166.706 99.5537 163.776 102.728C160.847 105.901 156.647 107.488 151.179 107.488C145.71 107.488 141.511 105.901 138.581 102.728C135.651 99.5537 134.187 94.9964 134.187 89.0557C134.187 83.1149 135.651 78.582 138.581 75.457C141.527 72.3158 145.743 70.7451 151.228 70.7451C156.713 70.7451 160.904 72.3239 163.801 75.4814C166.714 78.639 168.171 83.18 168.171 89.1045ZM142.121 89.1045C142.121 93.0921 142.878 96.0951 144.392 98.1133C145.905 100.132 148.168 101.141 151.179 101.141C157.217 101.141 160.236 97.1286 160.236 89.1045C160.236 81.0641 157.233 77.0439 151.228 77.0439C148.216 77.0439 145.946 78.0612 144.416 80.0957C142.886 82.1139 142.121 85.1169 142.121 89.1045ZM204.621 71.3066V94.4023C204.621 97.0391 204.027 99.3503 202.839 101.336C201.667 103.322 199.966 104.843 197.736 105.901C195.507 106.959 192.87 107.488 189.826 107.488C185.236 107.488 181.672 106.316 179.133 103.973C176.594 101.613 175.324 98.39 175.324 94.3047V71.3066H182.868V93.1572C182.868 95.9079 183.422 97.9261 184.528 99.2119C185.635 100.498 187.466 101.141 190.021 101.141C192.495 101.141 194.286 100.498 195.393 99.2119C196.516 97.9098 197.077 95.8753 197.077 93.1084V71.3066H204.621ZM234.431 97.0879C234.431 100.311 233.267 102.85 230.939 104.705C228.628 106.561 225.406 107.488 221.271 107.488C217.463 107.488 214.094 106.772 211.164 105.34V98.3086C213.573 99.3828 215.607 100.14 217.268 100.579C218.944 101.019 220.474 101.238 221.857 101.238C223.518 101.238 224.787 100.921 225.666 100.286C226.561 99.6514 227.009 98.7074 227.009 97.4541C227.009 96.7542 226.813 96.1357 226.423 95.5986C226.032 95.0452 225.454 94.5163 224.689 94.0117C223.941 93.5072 222.403 92.7015 220.075 91.5947C217.894 90.5693 216.258 89.5846 215.168 88.6406C214.077 87.6966 213.207 86.598 212.556 85.3447C211.905 84.0915 211.579 82.6266 211.579 80.9502C211.579 77.7926 212.645 75.3105 214.777 73.5039C216.926 71.6973 219.888 70.7939 223.664 70.7939C225.52 70.7939 227.285 71.0137 228.962 71.4531C230.655 71.8926 232.421 72.5111 234.26 73.3086L231.818 79.1924C229.914 78.4111 228.335 77.8659 227.082 77.5566C225.845 77.2474 224.624 77.0928 223.42 77.0928C221.988 77.0928 220.889 77.4264 220.124 78.0938C219.359 78.7611 218.977 79.6318 218.977 80.7061C218.977 81.3734 219.131 81.9593 219.44 82.4639C219.75 82.9521 220.238 83.4323 220.905 83.9043C221.589 84.36 223.192 85.1901 225.715 86.3945C229.051 87.9896 231.338 89.5928 232.575 91.2041C233.812 92.7992 234.431 94.7604 234.431 97.0879ZM254.67 107H247.102V77.6055H237.409V71.3066H264.362V77.6055H254.67V107ZM302.253 89.1045C302.253 95.0127 300.788 99.5537 297.858 102.728C294.929 105.901 290.729 107.488 285.261 107.488C279.792 107.488 275.593 105.901 272.663 102.728C269.733 99.5537 268.269 94.9964 268.269 89.0557C268.269 83.1149 269.733 78.582 272.663 75.457C275.609 72.3158 279.825 70.7451 285.31 70.7451C290.795 70.7451 294.986 72.3239 297.883 75.4814C300.796 78.639 302.253 83.18 302.253 89.1045ZM276.203 89.1045C276.203 93.0921 276.96 96.0951 278.474 98.1133C279.987 100.132 282.25 101.141 285.261 101.141C291.299 101.141 294.318 97.1286 294.318 89.1045C294.318 81.0641 291.315 77.0439 285.31 77.0439C282.299 77.0439 280.028 78.0612 278.498 80.0957C276.968 82.1139 276.203 85.1169 276.203 89.1045ZM341.315 107H331.696L316.169 79.998H315.949C316.258 84.7669 316.413 88.1686 316.413 90.2031V107H309.65V71.3066H319.196L334.699 98.04H334.87C334.626 93.4014 334.504 90.1217 334.504 88.2012V71.3066H341.315V107Z" fill="#001BFF"/>
<path d="M162 88.3659C162 84.436 161.033 81.4204 159.1 79.3189C157.167 77.2174 154.462 76.1667 150.986 76.1667C147.603 76.1667 144.94 77.2174 142.997 79.3189C141.055 81.4204 140.056 84.3374 140 88.07V90.5053C140 94.3138 140.981 96.39 142.942 98.5673C144.903 100.745 147.603 101.833 151.042 101.833C154.499 101.833 157.176 100.805 159.072 98.7494C160.968 96.6934 161.944 94.6627 162 90.8239V88.3659Z" fill="white"/>
<path d="M161.083 88.2462C161.083 84.1909 158.958 79.3123 150.987 78.9167C143.337 78.9167 140.968 84.0891 140.917 87.9409V90.454C140.917 94.3841 161.032 94.7442 161.083 90.7828V88.2462Z" fill="#00B0FF"/>
<path d="M159.25 89.139C159.25 85.094 157.511 80.228 150.99 79.8333C144.73 79.8333 142.792 84.9925 142.75 88.8344V92.2436C145.146 93.5481 154.373 94.3412 159.25 92.5011V89.139Z" fill="#004085"/>
<rect x="155.583" y="95.4167" width="2.75" height="2.75" rx="1" fill="#B04210"/>
<rect x="151.917" y="95.4167" width="2.75" height="2.75" rx="1" fill="#00B0FF"/>
<path fill-rule="evenodd" clip-rule="evenodd" d="M144.46 96.8906C144.101 96.2244 144.584 95.4167 145.341 95.4167H150C150.552 95.4167 151 95.8644 151 96.4167V97.1667C151 97.7189 150.552 98.1667 150 98.1667H145.744C145.376 98.1667 145.038 97.9646 144.864 97.6406L144.46 96.8906Z" fill="#CBCBCB"/>
<path d="M158.333 86.4549C158.333 84.3735 157.36 81.8697 153.712 81.6667C150.209 81.6667 158.31 89.7898 158.333 87.7567V86.4549Z" fill="white"/>
<path d="M106.289 125.18C106.289 127.096 105.786 128.547 104.781 129.531C103.776 130.51 102.299 131 100.352 131H97.6172V119.578H100.703C102.526 119.578 103.911 120.055 104.859 121.008C105.812 121.961 106.289 123.352 106.289 125.18ZM105.422 125.211C105.422 123.576 105.005 122.346 104.172 121.523C103.344 120.695 102.125 120.281 100.516 120.281H98.4141V130.297H100.305C103.716 130.297 105.422 128.602 105.422 125.211ZM123.956 131H117.714V119.578H123.956V120.312H118.511V124.633H123.652V125.367H118.511V130.266H123.956V131ZM141.647 128.055C141.647 129.008 141.295 129.763 140.592 130.32C139.894 130.878 138.965 131.156 137.803 131.156C136.407 131.156 135.337 131.003 134.592 130.695V129.898C135.415 130.247 136.465 130.422 137.741 130.422C138.678 130.422 139.42 130.208 139.967 129.781C140.519 129.349 140.795 128.784 140.795 128.086C140.795 127.654 140.704 127.297 140.522 127.016C140.34 126.729 140.043 126.469 139.631 126.234C139.22 126 138.616 125.747 137.819 125.477C136.652 125.076 135.845 124.643 135.397 124.18C134.954 123.711 134.733 123.089 134.733 122.312C134.733 121.458 135.066 120.763 135.733 120.227C136.405 119.685 137.267 119.414 138.319 119.414C139.392 119.414 140.399 119.617 141.342 120.023L141.053 120.711C140.105 120.315 139.199 120.117 138.334 120.117C137.491 120.117 136.819 120.312 136.319 120.703C135.819 121.094 135.569 121.625 135.569 122.297C135.569 122.719 135.644 123.065 135.795 123.336C135.952 123.607 136.204 123.852 136.553 124.07C136.902 124.284 137.501 124.542 138.35 124.844C139.241 125.151 139.91 125.451 140.358 125.742C140.806 126.029 141.131 126.357 141.334 126.727C141.543 127.091 141.647 127.534 141.647 128.055ZM152.861 131V119.578H153.658V131H152.861ZM170.184 125.242H174.395V130.453C173.291 130.922 172.049 131.156 170.669 131.156C168.867 131.156 167.484 130.648 166.52 129.633C165.562 128.612 165.083 127.169 165.083 125.305C165.083 124.143 165.32 123.115 165.794 122.219C166.273 121.318 166.955 120.622 167.841 120.133C168.731 119.643 169.752 119.398 170.903 119.398C172.148 119.398 173.265 119.628 174.255 120.086L173.934 120.805C172.945 120.346 171.919 120.117 170.856 120.117C169.351 120.117 168.156 120.583 167.27 121.516C166.39 122.443 165.95 123.695 165.95 125.273C165.95 126.992 166.369 128.286 167.208 129.156C168.046 130.021 169.278 130.453 170.903 130.453C171.955 130.453 172.848 130.305 173.583 130.008V125.992H170.184V125.242ZM194.375 131H193.57L186.805 120.859H186.742C186.805 122.068 186.836 122.979 186.836 123.594V131H186.07V119.578H186.867L193.625 129.703H193.672C193.625 128.766 193.602 127.875 193.602 127.031V119.578H194.375V131ZM226.248 122.859C226.248 123.964 225.873 124.81 225.123 125.398C224.373 125.987 223.311 126.281 221.936 126.281H220.17V131H219.373V119.578H222.17C224.889 119.578 226.248 120.672 226.248 122.859ZM220.17 125.594H221.741C223.027 125.594 223.957 125.383 224.53 124.961C225.103 124.534 225.389 123.844 225.389 122.891C225.389 122.01 225.118 121.359 224.577 120.938C224.035 120.51 223.196 120.297 222.061 120.297H220.17V125.594ZM238.33 126.023V131H237.533V119.578H240.252C241.668 119.578 242.715 119.841 243.392 120.367C244.069 120.888 244.408 121.674 244.408 122.727C244.408 123.492 244.205 124.138 243.798 124.664C243.397 125.19 242.785 125.568 241.962 125.797L245.064 131H244.111L241.166 126.023H238.33ZM238.33 125.336H240.509C241.473 125.336 242.22 125.122 242.752 124.695C243.283 124.263 243.548 123.628 243.548 122.789C243.548 121.919 243.288 121.286 242.767 120.891C242.246 120.495 241.397 120.297 240.22 120.297H238.33V125.336ZM265.45 125.273C265.45 127.086 264.997 128.521 264.091 129.578C263.184 130.63 261.934 131.156 260.341 131.156C258.752 131.156 257.505 130.63 256.598 129.578C255.692 128.521 255.239 127.081 255.239 125.258C255.239 123.44 255.695 122.01 256.606 120.969C257.523 119.922 258.773 119.398 260.356 119.398C261.95 119.398 263.197 119.924 264.098 120.977C264.999 122.023 265.45 123.456 265.45 125.273ZM256.106 125.273C256.106 126.909 256.471 128.174 257.2 129.07C257.929 129.961 258.976 130.406 260.341 130.406C261.716 130.406 262.765 129.964 263.489 129.078C264.218 128.193 264.583 126.924 264.583 125.273C264.583 123.628 264.218 122.367 263.489 121.492C262.765 120.612 261.721 120.172 260.356 120.172C258.997 120.172 257.947 120.615 257.208 121.5C256.473 122.385 256.106 123.643 256.106 125.273ZM285.555 125.18C285.555 127.096 285.052 128.547 284.047 129.531C283.042 130.51 281.565 131 279.617 131H276.883V119.578H279.969C281.792 119.578 283.177 120.055 284.125 121.008C285.078 121.961 285.555 123.352 285.555 125.18ZM284.688 125.211C284.688 123.576 284.271 122.346 283.438 121.523C282.609 120.695 281.391 120.281 279.781 120.281H277.68V130.297H279.57C282.982 130.297 284.688 128.602 284.688 125.211ZM305.378 119.578V126.969C305.378 128.281 304.998 129.307 304.238 130.047C303.477 130.786 302.417 131.156 301.058 131.156C299.735 131.156 298.701 130.786 297.956 130.047C297.217 129.302 296.847 128.266 296.847 126.938V119.578H297.652V126.969C297.652 128.068 297.956 128.924 298.566 129.539C299.175 130.148 300.037 130.453 301.152 130.453C302.24 130.453 303.084 130.154 303.683 129.555C304.282 128.951 304.581 128.115 304.581 127.047V119.578H305.378ZM322.17 120.133C320.738 120.133 319.61 120.591 318.788 121.508C317.965 122.424 317.553 123.68 317.553 125.273C317.553 126.904 317.941 128.169 318.717 129.07C319.493 129.971 320.603 130.422 322.045 130.422C323.004 130.422 323.884 130.299 324.686 130.055V130.758C323.931 131.023 322.988 131.156 321.858 131.156C320.254 131.156 318.991 130.638 318.069 129.602C317.147 128.565 316.686 127.117 316.686 125.258C316.686 124.096 316.905 123.073 317.342 122.188C317.785 121.302 318.418 120.62 319.241 120.141C320.069 119.656 321.03 119.414 322.123 119.414C323.238 119.414 324.235 119.622 325.116 120.039L324.795 120.758C323.962 120.341 323.087 120.133 322.17 120.133ZM339.009 131H338.205V120.328H334.494V119.578H342.72V120.328H339.009V131Z" fill="black"/>
<path d="M124.047 178H122.016L120.078 171.188C119.995 170.891 119.891 170.464 119.766 169.906C119.641 169.344 119.565 168.953 119.539 168.734C119.487 169.068 119.401 169.5 119.281 170.031C119.167 170.562 119.07 170.958 118.992 171.219L117.102 178H115.07L113.594 172.281L112.094 166.578H114L115.633 173.234C115.888 174.302 116.07 175.245 116.18 176.062C116.237 175.62 116.323 175.125 116.438 174.578C116.552 174.031 116.656 173.589 116.75 173.25L118.609 166.578H120.461L122.367 173.281C122.549 173.901 122.742 174.828 122.945 176.062C123.023 175.318 123.211 174.37 123.508 173.219L125.133 166.578H127.023L124.047 178ZM132.227 178.156C130.883 178.156 129.831 177.766 129.07 176.984C128.315 176.198 127.938 175.117 127.938 173.742C127.938 172.331 128.289 171.221 128.992 170.414C129.695 169.607 130.661 169.203 131.891 169.203C133.031 169.203 133.932 169.549 134.594 170.242C135.255 170.935 135.586 171.888 135.586 173.102V174.094H129.828C129.854 174.932 130.081 175.578 130.508 176.031C130.935 176.479 131.536 176.703 132.312 176.703C132.823 176.703 133.297 176.656 133.734 176.562C134.177 176.464 134.651 176.302 135.156 176.078V177.57C134.708 177.784 134.255 177.935 133.797 178.023C133.339 178.112 132.815 178.156 132.227 178.156ZM131.891 170.594C131.307 170.594 130.839 170.779 130.484 171.148C130.135 171.518 129.927 172.057 129.859 172.766H133.781C133.771 172.052 133.599 171.513 133.266 171.148C132.932 170.779 132.474 170.594 131.891 170.594ZM198.477 175.539C198.477 176.383 198.169 177.031 197.555 177.484C196.94 177.932 196.06 178.156 194.914 178.156C193.763 178.156 192.839 177.982 192.141 177.633V176.047C193.156 176.516 194.102 176.75 194.977 176.75C196.107 176.75 196.672 176.409 196.672 175.727C196.672 175.508 196.609 175.326 196.484 175.18C196.359 175.034 196.154 174.883 195.867 174.727C195.581 174.57 195.182 174.393 194.672 174.195C193.677 173.81 193.003 173.424 192.648 173.039C192.299 172.654 192.125 172.154 192.125 171.539C192.125 170.799 192.422 170.227 193.016 169.82C193.615 169.409 194.427 169.203 195.453 169.203C196.469 169.203 197.43 169.409 198.336 169.82L197.742 171.203C196.81 170.818 196.026 170.625 195.391 170.625C194.422 170.625 193.938 170.901 193.938 171.453C193.938 171.724 194.062 171.953 194.312 172.141C194.568 172.328 195.12 172.586 195.969 172.914C196.682 173.19 197.201 173.443 197.523 173.672C197.846 173.901 198.086 174.167 198.242 174.469C198.398 174.766 198.477 175.122 198.477 175.539ZM208.133 173.664C208.133 175.076 207.771 176.177 207.047 176.969C206.323 177.76 205.315 178.156 204.023 178.156C203.216 178.156 202.503 177.974 201.883 177.609C201.263 177.245 200.786 176.721 200.453 176.039C200.12 175.357 199.953 174.565 199.953 173.664C199.953 172.263 200.312 171.169 201.031 170.383C201.75 169.596 202.763 169.203 204.07 169.203C205.32 169.203 206.31 169.607 207.039 170.414C207.768 171.216 208.133 172.299 208.133 173.664ZM201.844 173.664C201.844 175.659 202.581 176.656 204.055 176.656C205.513 176.656 206.242 175.659 206.242 173.664C206.242 171.69 205.508 170.703 204.039 170.703C203.268 170.703 202.708 170.958 202.359 171.469C202.016 171.979 201.844 172.711 201.844 173.664ZM212.086 178H210.25V165.844H212.086V178ZM216.688 178L213.406 169.359H215.344L217.102 174.383C217.404 175.227 217.586 175.909 217.648 176.43H217.711C217.758 176.055 217.94 175.372 218.258 174.383L220.016 169.359H221.969L218.672 178H216.688ZM227.055 178.156C225.711 178.156 224.659 177.766 223.898 176.984C223.143 176.198 222.766 175.117 222.766 173.742C222.766 172.331 223.117 171.221 223.82 170.414C224.523 169.607 225.49 169.203 226.719 169.203C227.859 169.203 228.76 169.549 229.422 170.242C230.083 170.935 230.414 171.888 230.414 173.102V174.094H224.656C224.682 174.932 224.909 175.578 225.336 176.031C225.763 176.479 226.365 176.703 227.141 176.703C227.651 176.703 228.125 176.656 228.562 176.562C229.005 176.464 229.479 176.302 229.984 176.078V177.57C229.536 177.784 229.083 177.935 228.625 178.023C228.167 178.112 227.643 178.156 227.055 178.156ZM226.719 170.594C226.135 170.594 225.667 170.779 225.312 171.148C224.964 171.518 224.755 172.057 224.688 172.766H228.609C228.599 172.052 228.427 171.513 228.094 171.148C227.76 170.779 227.302 170.594 226.719 170.594ZM241.039 178.156C239.945 178.156 239.096 177.763 238.492 176.977H238.383C238.456 177.706 238.492 178.148 238.492 178.305V181.844H236.656V169.359H238.141C238.182 169.521 238.268 169.906 238.398 170.516H238.492C239.065 169.641 239.924 169.203 241.07 169.203C242.148 169.203 242.987 169.594 243.586 170.375C244.19 171.156 244.492 172.253 244.492 173.664C244.492 175.076 244.185 176.177 243.57 176.969C242.961 177.76 242.117 178.156 241.039 178.156ZM240.594 170.703C239.865 170.703 239.331 170.917 238.992 171.344C238.659 171.771 238.492 172.453 238.492 173.391V173.664C238.492 174.716 238.659 175.479 238.992 175.953C239.326 176.422 239.87 176.656 240.625 176.656C241.26 176.656 241.75 176.396 242.094 175.875C242.438 175.354 242.609 174.612 242.609 173.648C242.609 172.68 242.438 171.948 242.094 171.453C241.755 170.953 241.255 170.703 240.594 170.703ZM251.008 169.203C251.378 169.203 251.682 169.229 251.922 169.281L251.742 170.992C251.482 170.93 251.211 170.898 250.93 170.898C250.195 170.898 249.599 171.138 249.141 171.617C248.688 172.096 248.461 172.719 248.461 173.484V178H246.625V169.359H248.062L248.305 170.883H248.398C248.685 170.367 249.057 169.958 249.516 169.656C249.979 169.354 250.477 169.203 251.008 169.203ZM261.195 173.664C261.195 175.076 260.833 176.177 260.109 176.969C259.385 177.76 258.378 178.156 257.086 178.156C256.279 178.156 255.565 177.974 254.945 177.609C254.326 177.245 253.849 176.721 253.516 176.039C253.182 175.357 253.016 174.565 253.016 173.664C253.016 172.263 253.375 171.169 254.094 170.383C254.812 169.596 255.826 169.203 257.133 169.203C258.383 169.203 259.372 169.607 260.102 170.414C260.831 171.216 261.195 172.299 261.195 173.664ZM254.906 173.664C254.906 175.659 255.643 176.656 257.117 176.656C258.576 176.656 259.305 175.659 259.305 173.664C259.305 171.69 258.57 170.703 257.102 170.703C256.331 170.703 255.771 170.958 255.422 171.469C255.078 171.979 254.906 172.711 254.906 173.664ZM267.727 169.203C268.805 169.203 269.643 169.594 270.242 170.375C270.846 171.156 271.148 172.253 271.148 173.664C271.148 175.081 270.844 176.185 270.234 176.977C269.625 177.763 268.779 178.156 267.695 178.156C266.602 178.156 265.753 177.763 265.148 176.977H265.023L264.688 178H263.312V165.844H265.148V168.734C265.148 168.948 265.138 169.266 265.117 169.688C265.096 170.109 265.081 170.378 265.07 170.492H265.148C265.732 169.633 266.591 169.203 267.727 169.203ZM267.25 170.703C266.51 170.703 265.977 170.922 265.648 171.359C265.326 171.792 265.159 172.518 265.148 173.539V173.664C265.148 174.716 265.315 175.479 265.648 175.953C265.982 176.422 266.526 176.656 267.281 176.656C267.932 176.656 268.424 176.398 268.758 175.883C269.096 175.367 269.266 174.622 269.266 173.648C269.266 171.685 268.594 170.703 267.25 170.703ZM275.117 178H273.281V165.844H275.117V178ZM281.523 178.156C280.18 178.156 279.128 177.766 278.367 176.984C277.612 176.198 277.234 175.117 277.234 173.742C277.234 172.331 277.586 171.221 278.289 170.414C278.992 169.607 279.958 169.203 281.188 169.203C282.328 169.203 283.229 169.549 283.891 170.242C284.552 170.935 284.883 171.888 284.883 173.102V174.094H279.125C279.151 174.932 279.378 175.578 279.805 176.031C280.232 176.479 280.833 176.703 281.609 176.703C282.12 176.703 282.594 176.656 283.031 176.562C283.474 176.464 283.948 176.302 284.453 176.078V177.57C284.005 177.784 283.552 177.935 283.094 178.023C282.635 178.112 282.112 178.156 281.523 178.156ZM281.188 170.594C280.604 170.594 280.135 170.779 279.781 171.148C279.432 171.518 279.224 172.057 279.156 172.766H283.078C283.068 172.052 282.896 171.513 282.562 171.148C282.229 170.779 281.771 170.594 281.188 170.594ZM294.25 178H292.406V172.672C292.406 172.01 292.281 171.518 292.031 171.195C291.781 170.867 291.391 170.703 290.859 170.703C290.151 170.703 289.63 170.935 289.297 171.398C288.969 171.857 288.805 172.622 288.805 173.695V178H286.969V169.359H288.406L288.664 170.492H288.758C288.997 170.081 289.344 169.763 289.797 169.539C290.255 169.315 290.758 169.203 291.305 169.203C292.633 169.203 293.513 169.656 293.945 170.562H294.07C294.326 170.135 294.685 169.802 295.148 169.562C295.612 169.323 296.143 169.203 296.742 169.203C297.773 169.203 298.523 169.464 298.992 169.984C299.466 170.505 299.703 171.299 299.703 172.367V178H297.867V172.672C297.867 172.01 297.74 171.518 297.484 171.195C297.234 170.867 296.844 170.703 296.312 170.703C295.599 170.703 295.076 170.927 294.742 171.375C294.414 171.818 294.25 172.5 294.25 173.422V178ZM308.07 175.539C308.07 176.383 307.763 177.031 307.148 177.484C306.534 177.932 305.654 178.156 304.508 178.156C303.357 178.156 302.432 177.982 301.734 177.633V176.047C302.75 176.516 303.695 176.75 304.57 176.75C305.701 176.75 306.266 176.409 306.266 175.727C306.266 175.508 306.203 175.326 306.078 175.18C305.953 175.034 305.747 174.883 305.461 174.727C305.174 174.57 304.776 174.393 304.266 174.195C303.271 173.81 302.596 173.424 302.242 173.039C301.893 172.654 301.719 172.154 301.719 171.539C301.719 170.799 302.016 170.227 302.609 169.82C303.208 169.409 304.021 169.203 305.047 169.203C306.062 169.203 307.023 169.409 307.93 169.82L307.336 171.203C306.404 170.818 305.62 170.625 304.984 170.625C304.016 170.625 303.531 170.901 303.531 171.453C303.531 171.724 303.656 171.953 303.906 172.141C304.161 172.328 304.714 172.586 305.562 172.914C306.276 173.19 306.794 173.443 307.117 173.672C307.44 173.901 307.68 174.167 307.836 174.469C307.992 174.766 308.07 175.122 308.07 175.539ZM311.648 174.531H310.289L309.883 166.578H312.047L311.648 174.531ZM309.789 177.023C309.789 176.638 309.891 176.346 310.094 176.148C310.297 175.945 310.586 175.844 310.961 175.844C311.331 175.844 311.615 175.948 311.812 176.156C312.01 176.365 312.109 176.654 312.109 177.023C312.109 177.393 312.008 177.688 311.805 177.906C311.607 178.12 311.326 178.227 310.961 178.227C310.591 178.227 310.302 178.122 310.094 177.914C309.891 177.706 309.789 177.409 309.789 177.023Z" fill="#0C4473"/>
<path d="M147.859 178V172.492C147.859 171.638 147.68 171.018 147.32 170.633C146.961 170.242 146.404 170.047 145.648 170.047C144.633 170.047 143.888 170.305 143.414 170.82C142.945 171.331 142.711 172.161 142.711 173.312V178H141.938V165.844H142.711V169.711L142.672 170.797H142.727C143.044 170.286 143.445 169.917 143.93 169.688C144.414 169.458 145.016 169.344 145.734 169.344C147.661 169.344 148.625 170.378 148.625 172.445V178H147.859ZM156.531 178L156.336 176.656H156.273C155.846 177.203 155.406 177.591 154.953 177.82C154.505 178.044 153.974 178.156 153.359 178.156C152.526 178.156 151.878 177.943 151.414 177.516C150.951 177.089 150.719 176.497 150.719 175.742C150.719 174.914 151.062 174.271 151.75 173.812C152.443 173.354 153.443 173.112 154.75 173.086L156.367 173.039V172.477C156.367 171.669 156.203 171.06 155.875 170.648C155.547 170.237 155.018 170.031 154.289 170.031C153.503 170.031 152.688 170.25 151.844 170.688L151.555 170.016C152.487 169.578 153.409 169.359 154.32 169.359C155.253 169.359 155.948 169.602 156.406 170.086C156.87 170.57 157.102 171.326 157.102 172.352V178H156.531ZM153.406 177.453C154.312 177.453 155.026 177.195 155.547 176.68C156.073 176.159 156.336 175.438 156.336 174.516V173.68L154.852 173.742C153.659 173.799 152.807 173.987 152.297 174.305C151.792 174.617 151.539 175.107 151.539 175.773C151.539 176.305 151.701 176.719 152.023 177.016C152.352 177.307 152.812 177.453 153.406 177.453ZM161.719 178L158.438 169.508H159.234L161.43 175.281C161.721 176.021 161.94 176.667 162.086 177.219H162.133C162.346 176.51 162.565 175.859 162.789 175.266L164.984 169.508H165.781L162.5 178H161.719ZM170.633 178.156C169.398 178.156 168.435 177.776 167.742 177.016C167.055 176.255 166.711 175.19 166.711 173.82C166.711 172.466 167.044 171.383 167.711 170.57C168.378 169.753 169.276 169.344 170.406 169.344C171.406 169.344 172.195 169.693 172.773 170.391C173.352 171.089 173.641 172.036 173.641 173.234V173.859H167.523C167.534 175.026 167.805 175.917 168.336 176.531C168.872 177.146 169.638 177.453 170.633 177.453C171.117 177.453 171.542 177.419 171.906 177.352C172.276 177.284 172.742 177.138 173.305 176.914V177.617C172.826 177.826 172.383 177.966 171.977 178.039C171.57 178.117 171.122 178.156 170.633 178.156ZM170.406 170.031C169.589 170.031 168.932 170.302 168.438 170.844C167.943 171.38 167.654 172.156 167.57 173.172H172.82C172.82 172.188 172.607 171.419 172.18 170.867C171.753 170.31 171.161 170.031 170.406 170.031ZM185.297 178L185.102 176.656H185.039C184.612 177.203 184.172 177.591 183.719 177.82C183.271 178.044 182.74 178.156 182.125 178.156C181.292 178.156 180.643 177.943 180.18 177.516C179.716 177.089 179.484 176.497 179.484 175.742C179.484 174.914 179.828 174.271 180.516 173.812C181.208 173.354 182.208 173.112 183.516 173.086L185.133 173.039V172.477C185.133 171.669 184.969 171.06 184.641 170.648C184.312 170.237 183.784 170.031 183.055 170.031C182.268 170.031 181.453 170.25 180.609 170.688L180.32 170.016C181.253 169.578 182.174 169.359 183.086 169.359C184.018 169.359 184.714 169.602 185.172 170.086C185.635 170.57 185.867 171.326 185.867 172.352V178H185.297ZM182.172 177.453C183.078 177.453 183.792 177.195 184.312 176.68C184.839 176.159 185.102 175.438 185.102 174.516V173.68L183.617 173.742C182.424 173.799 181.573 173.987 181.062 174.305C180.557 174.617 180.305 175.107 180.305 175.773C180.305 176.305 180.466 176.719 180.789 177.016C181.117 177.307 181.578 177.453 182.172 177.453Z" fill="#9EB3C4"/>
<path d="M140.516 174.156H187.195V174.953H140.516V174.156Z" fill="#9EB3C4"/>
</svg>
