<svg xmlns="http://www.w3.org/2000/svg" width="249" height="78" viewBox="0 0 249 78" fill="none">
<g filter="url(#filter0_d)">
<path d="M60.0401 36.6918C60.0401 27.8477 57.8648 21.0611 53.514 16.3317C49.1632 11.6023 43.0765 9.2377 35.2535 9.2377C27.6396 9.2377 21.647 11.6023 17.2753 16.3317C12.9036 21.0611 10.6551 27.6257 10.5296 36.0259V41.5065C10.5296 50.0774 12.7363 54.7498 17.1498 59.6499C21.5633 64.55 27.6396 67 35.379 67C43.1601 67 49.1842 64.6866 53.4513 60.0597C57.7183 55.4327 59.9146 50.8627 60.0401 42.2235V36.6918Z" fill="white"/>
</g>
<path d="M57.9772 36.4225C57.9772 27.296 53.1943 16.317 35.2561 15.4265C18.0394 15.4265 12.7076 27.0669 12.5926 35.7354V41.391C12.5926 50.2356 57.8622 51.0461 57.9772 42.131V36.4225Z" fill="#00B0FF"/>
<path d="M53.8513 38.4316C53.8513 29.3284 49.938 18.3776 35.2613 17.4894C21.1749 17.4894 16.8125 29.1 16.7184 37.7462V45.4186C22.1106 48.3542 42.8769 50.1392 53.8513 45.9979V38.4316Z" fill="#004085"/>
<rect x="46.7633" y="52.5414" width="4.86062" height="4.86062" rx="1" fill="#B04210"/>
<rect x="40.5771" y="52.5414" width="4.86062" height="4.86062" rx="1" fill="#00B0FF"/>
<path fill-rule="evenodd" clip-rule="evenodd" d="M26.7772 54.0111C26.4228 53.3451 26.9055 52.5414 27.66 52.5414H37.8096C38.3618 52.5414 38.8096 52.9891 38.8096 53.5414V56.402C38.8096 56.9543 38.3618 57.402 37.8096 57.402H29.182C28.8124 57.402 28.4729 57.1981 28.2992 56.8718L26.7772 54.0111Z" fill="#CBCBCB"/>
<path d="M52.5077 27.1034C52.5077 24.5235 51.3352 21.42 46.938 21.1682C42.7176 21.1682 52.4795 31.2373 52.5077 28.7171V27.1034Z" fill="white"/>
<path d="M101.325 42.6196H95.9836V31.7124H85.9752V42.6196H80.6167V17.348H85.9752V27.2527H95.9836V17.348H101.325V42.6196Z" fill="white"/>
<path d="M129.951 29.9492C129.951 34.1324 128.913 37.3475 126.839 39.5946C124.765 41.8418 121.792 42.9653 117.92 42.9653C114.048 42.9653 111.075 41.8418 109 39.5946C106.926 37.3475 105.889 34.1208 105.889 29.9147C105.889 25.7085 106.926 22.4991 109 20.2866C111.086 18.0625 114.071 16.9504 117.954 16.9504C121.838 16.9504 124.805 18.0682 126.856 20.3039C128.919 22.5395 129.951 25.7546 129.951 29.9492ZM111.507 29.9492C111.507 32.7726 112.043 34.8987 113.114 36.3276C114.186 37.7566 115.788 38.4711 117.92 38.4711C122.195 38.4711 124.333 35.6304 124.333 29.9492C124.333 24.2565 122.207 21.4101 117.954 21.4101C115.822 21.4101 114.215 22.1304 113.132 23.5708C112.048 24.9998 111.507 27.1259 111.507 29.9492Z" fill="white"/>
<path d="M155.05 17.348V33.7002C155.05 35.5671 154.629 37.2034 153.788 38.6093C152.958 40.0152 151.754 41.0927 150.175 41.8418C148.597 42.5908 146.73 42.9653 144.575 42.9653C141.325 42.9653 138.802 42.1356 137.004 40.4762C135.206 38.8052 134.307 36.5235 134.307 33.6311V17.348H139.649V32.8187C139.649 34.7662 140.04 36.1951 140.824 37.1055C141.608 38.0159 142.904 38.4711 144.713 38.4711C146.465 38.4711 147.732 38.0159 148.516 37.1055C149.311 36.1836 149.709 34.7431 149.709 32.7841V17.348H155.05Z" fill="white"/>
<path d="M175.448 35.6016C175.448 37.8833 174.624 39.681 172.976 40.9948C171.34 42.3085 169.058 42.9653 166.131 42.9653C163.434 42.9653 161.049 42.4583 158.975 41.4442V36.4659C160.68 37.2265 162.121 37.7623 163.296 38.0735C164.483 38.3846 165.566 38.5402 166.546 38.5402C167.721 38.5402 168.62 38.3155 169.242 37.8661C169.876 37.4166 170.193 36.7483 170.193 35.8609C170.193 35.3654 170.055 34.9275 169.778 34.5472C169.502 34.1554 169.092 33.7809 168.551 33.4236C168.021 33.0664 166.932 32.496 165.284 31.7124C163.74 30.9864 162.582 30.2892 161.809 29.6208C161.037 28.9524 160.421 28.1746 159.96 27.2872C159.499 26.3999 159.268 25.3628 159.268 24.1758C159.268 21.9402 160.023 20.1829 161.533 18.9037C163.054 17.6246 165.151 16.985 167.825 16.985C169.139 16.985 170.389 17.1406 171.576 17.4517C172.774 17.7629 174.025 18.2008 175.327 18.7654L173.598 22.9313C172.25 22.3781 171.132 21.9921 170.245 21.7731C169.369 21.5542 168.505 21.4447 167.652 21.4447C166.638 21.4447 165.86 21.6809 165.318 22.1534C164.777 22.6259 164.506 23.2424 164.506 24.003C164.506 24.4755 164.615 24.8903 164.834 25.2475C165.053 25.5933 165.399 25.9332 165.872 26.2674C166.356 26.5901 167.491 27.1778 169.277 28.0305C171.639 29.1599 173.258 30.2949 174.134 31.4358C175.01 32.5651 175.448 33.9537 175.448 35.6016Z" fill="white"/>
<path d="M189.07 42.6196H183.711V21.8077H176.849V17.348H195.932V21.8077H189.07V42.6196Z" fill="white"/>
<path d="M222.051 29.9492C222.051 34.1324 221.014 37.3475 218.94 39.5946C216.866 41.8418 213.892 42.9653 210.02 42.9653C206.148 42.9653 203.175 41.8418 201.101 39.5946C199.027 37.3475 197.99 34.1208 197.99 29.9147C197.99 25.7085 199.027 22.4991 201.101 20.2866C203.187 18.0625 206.171 16.9504 210.055 16.9504C213.939 16.9504 216.906 18.0682 218.957 20.3039C221.02 22.5395 222.051 25.7546 222.051 29.9492ZM203.607 29.9492C203.607 32.7726 204.143 34.8987 205.215 36.3276C206.287 37.7566 207.889 38.4711 210.02 38.4711C214.296 38.4711 216.433 35.6304 216.433 29.9492C216.433 24.2565 214.307 21.4101 210.055 21.4101C207.923 21.4101 206.316 22.1304 205.232 23.5708C204.149 24.9998 203.607 27.1259 203.607 29.9492Z" fill="white"/>
<path d="M249 42.6196H242.19L231.196 23.5017H231.04C231.259 26.8782 231.369 29.2866 231.369 30.7271V42.6196H226.581V17.348H233.339L244.316 36.2758H244.437C244.264 32.9915 244.178 30.6695 244.178 29.3097V17.348H249V42.6196Z" fill="white"/>
<path d="M89.0189 58.001C89.0189 59.6697 88.5648 60.9465 87.6568 61.8315C86.7533 62.7119 85.4511 63.1522 83.7502 63.1522H80.95V53.0435H84.0475C85.6194 53.0435 86.8409 53.4791 87.7121 54.3503C88.5833 55.2215 89.0189 56.4384 89.0189 58.001ZM87.7743 58.0425C87.7743 56.7242 87.4424 55.7309 86.7787 55.0625C86.1195 54.3941 85.1377 54.0599 83.8332 54.0599H82.1254V62.1358H83.5566C84.9579 62.1358 86.0112 61.7924 86.7164 61.1055C87.4217 60.4141 87.7743 59.3931 87.7743 58.0425Z" fill="white"/>
<path d="M97.623 63.1522H91.9879V53.0435H97.623V54.0876H93.1633V57.3442H97.3533V58.3813H93.1633V62.1012H97.623V63.1522Z" fill="white"/>
<path d="M106.282 60.4625C106.282 61.3521 105.96 62.0459 105.314 62.5437C104.669 63.0415 103.793 63.2904 102.687 63.2904C101.489 63.2904 100.567 63.136 99.9213 62.8272V61.6932C100.336 61.8684 100.788 62.0067 101.276 62.1081C101.765 62.2095 102.249 62.2602 102.728 62.2602C103.512 62.2602 104.102 62.1127 104.499 61.8177C104.895 61.5181 105.093 61.1032 105.093 60.5731C105.093 60.2228 105.022 59.937 104.879 59.7158C104.741 59.4899 104.505 59.2825 104.174 59.0935C103.846 58.9045 103.346 58.6902 102.673 58.4505C101.733 58.114 101.06 57.7152 100.654 57.2543C100.253 56.7933 100.053 56.1918 100.053 55.4497C100.053 54.6707 100.345 54.0507 100.931 53.5897C101.516 53.1288 102.291 52.8983 103.254 52.8983C104.259 52.8983 105.183 53.0827 106.027 53.4515L105.66 54.4748C104.826 54.1244 104.015 53.9493 103.226 53.9493C102.604 53.9493 102.118 54.083 101.767 54.3503C101.417 54.6177 101.242 54.9887 101.242 55.4635C101.242 55.8138 101.306 56.1019 101.436 56.3278C101.565 56.549 101.781 56.7542 102.085 56.9432C102.394 57.1275 102.864 57.3327 103.496 57.5585C104.556 57.9365 105.284 58.3421 105.681 58.7754C106.082 59.2087 106.282 59.7711 106.282 60.4625Z" fill="white"/>
<path d="M109.058 63.1522V53.0435H110.233V63.1522H109.058Z" fill="white"/>
<path d="M118.167 57.8558H121.603V62.7719C121.068 62.9424 120.524 63.0715 119.971 63.1591C119.418 63.2466 118.777 63.2904 118.049 63.2904C116.519 63.2904 115.327 62.8364 114.474 61.9283C113.622 61.0156 113.195 59.7388 113.195 58.0978C113.195 57.0469 113.405 56.1273 113.824 55.339C114.249 54.5462 114.857 53.9424 115.65 53.5275C116.443 53.108 117.371 52.8983 118.436 52.8983C119.515 52.8983 120.52 53.0965 121.451 53.4929L120.995 54.5301C120.082 54.1429 119.204 53.9493 118.36 53.9493C117.129 53.9493 116.168 54.3157 115.477 55.0486C114.786 55.7816 114.44 56.798 114.44 58.0978C114.44 59.4622 114.772 60.4971 115.435 61.2023C116.104 61.9076 117.083 62.2602 118.374 62.2602C119.075 62.2602 119.759 62.1795 120.428 62.0182V58.9068H118.167V57.8558Z" fill="white"/>
<path d="M132.641 63.1522H131.3L125.775 54.6684H125.72C125.793 55.664 125.83 56.5767 125.83 57.4064V63.1522H124.745V53.0435H126.072L131.583 61.4927H131.638C131.629 61.3683 131.608 60.9696 131.576 60.2966C131.544 59.619 131.532 59.135 131.542 58.8446V53.0435H132.641V63.1522Z" fill="white"/>
<path d="M146.219 60.4625C146.219 61.3521 145.896 62.0459 145.251 62.5437C144.606 63.0415 143.73 63.2904 142.624 63.2904C141.425 63.2904 140.503 63.136 139.858 62.8272V61.6932C140.273 61.8684 140.725 62.0067 141.213 62.1081C141.702 62.2095 142.186 62.2602 142.665 62.2602C143.449 62.2602 144.039 62.1127 144.435 61.8177C144.832 61.5181 145.03 61.1032 145.03 60.5731C145.03 60.2228 144.958 59.937 144.816 59.7158C144.677 59.4899 144.442 59.2825 144.11 59.0935C143.783 58.9045 143.283 58.6902 142.61 58.4505C141.67 58.114 140.997 57.7152 140.591 57.2543C140.19 56.7933 139.989 56.1918 139.989 55.4497C139.989 54.6707 140.282 54.0507 140.867 53.5897C141.453 53.1288 142.227 52.8983 143.191 52.8983C144.196 52.8983 145.12 53.0827 145.963 53.4515L145.597 54.4748C144.763 54.1244 143.951 53.9493 143.163 53.9493C142.541 53.9493 142.054 54.083 141.704 54.3503C141.354 54.6177 141.179 54.9887 141.179 55.4635C141.179 55.8138 141.243 56.1019 141.372 56.3278C141.501 56.549 141.718 56.7542 142.022 56.9432C142.331 57.1275 142.801 57.3327 143.433 57.5585C144.493 57.9365 145.221 58.3421 145.618 58.7754C146.019 59.2087 146.219 59.7711 146.219 60.4625Z" fill="white"/>
<path d="M151.567 58.0978L154.263 53.0435H155.535L152.161 59.2318V63.1522H150.972V59.2871L147.605 53.0435H148.891L151.567 58.0978Z" fill="white"/>
<path d="M163.344 60.4625C163.344 61.3521 163.022 62.0459 162.376 62.5437C161.731 63.0415 160.855 63.2904 159.749 63.2904C158.55 63.2904 157.629 63.136 156.983 62.8272V61.6932C157.398 61.8684 157.85 62.0067 158.338 62.1081C158.827 62.2095 159.311 62.2602 159.79 62.2602C160.574 62.2602 161.164 62.1127 161.56 61.8177C161.957 61.5181 162.155 61.1032 162.155 60.5731C162.155 60.2228 162.084 59.937 161.941 59.7158C161.802 59.4899 161.567 59.2825 161.236 59.0935C160.908 58.9045 160.408 58.6902 159.735 58.4505C158.795 58.114 158.122 57.7152 157.716 57.2543C157.315 56.7933 157.115 56.1918 157.115 55.4497C157.115 54.6707 157.407 54.0507 157.993 53.5897C158.578 53.1288 159.353 52.8983 160.316 52.8983C161.321 52.8983 162.245 53.0827 163.089 53.4515L162.722 54.4748C161.888 54.1244 161.076 53.9493 160.288 53.9493C159.666 53.9493 159.18 54.083 158.829 54.3503C158.479 54.6177 158.304 54.9887 158.304 55.4635C158.304 55.8138 158.368 56.1019 158.497 56.3278C158.627 56.549 158.843 56.7542 159.147 56.9432C159.456 57.1275 159.926 57.3327 160.558 57.5585C161.618 57.9365 162.346 58.3421 162.743 58.7754C163.144 59.2087 163.344 59.7711 163.344 60.4625Z" fill="white"/>
<path d="M169.231 63.1522H168.056V54.0876H164.854V53.0435H172.432V54.0876H169.231V63.1522Z" fill="white"/>
<path d="M180.304 63.1522H174.669V53.0435H180.304V54.0876H175.844V57.3442H180.034V58.3813H175.844V62.1012H180.304V63.1522Z" fill="white"/>
<path d="M187.732 63.1522L184.303 54.1913H184.248C184.312 54.9011 184.344 55.7447 184.344 56.7219V63.1522H183.259V53.0435H185.029L188.23 61.3821H188.285L191.514 53.0435H193.271V63.1522H192.095V56.6389C192.095 55.8922 192.127 55.0809 192.192 54.2051H192.137L188.68 63.1522H187.732Z" fill="white"/>
<defs>
<filter id="filter0_d" x="0.529572" y="0.237701" width="69.5105" height="77.7623" filterUnits="userSpaceOnUse" color-interpolation-filters="sRGB">
<feFlood flood-opacity="0" result="BackgroundImageFix"/>
<feColorMatrix in="SourceAlpha" type="matrix" values="0 0 0 0 0 0 0 0 0 0 0 0 0 0 0 0 0 0 127 0"/>
<feOffset dy="1"/>
<feGaussianBlur stdDeviation="5"/>
<feColorMatrix type="matrix" values="0 0 0 0 0.7125 0 0 0 0 0.7125 0 0 0 0 0.7125 0 0 0 1 0"/>
<feBlend mode="normal" in2="BackgroundImageFix" result="effect1_dropShadow"/>
<feBlend mode="normal" in="SourceGraphic" in2="effect1_dropShadow" result="shape"/>
</filter>
</defs>
</svg>