<svg width="134" height="50" viewBox="0 0 134 50" fill="none" xmlns="http://www.w3.org/2000/svg">
<g filter="url(#filter0_d)">
<path d="M35.7143 23.2588C35.7143 18.6655 34.5845 15.1407 32.3248 12.6844C30.0652 10.2281 26.9039 9 22.8408 9C18.8865 9 15.774 10.2281 13.5035 12.6844C11.233 15.1407 10.0652 18.5502 10 22.913V25.7594C10 30.2109 11.1461 32.6376 13.4383 35.1826C15.7306 37.7275 18.8865 39 22.906 39C26.9473 39 30.076 37.7985 32.2922 35.3954C34.5084 32.9923 35.6491 30.6188 35.7143 26.1318V23.2588Z" fill="white"/>
</g>
<path d="M34.643 23.119C34.643 18.3789 32.1588 12.6768 22.8423 12.2143C13.9005 12.2143 11.1313 18.26 11.0715 22.7621V25.6995C11.0715 30.2931 34.5832 30.714 34.643 26.0838V23.119Z" fill="#00B0FF"/>
<path d="M32.5001 24.1624C32.5001 19.4345 30.4676 13.747 22.845 13.2857C15.5289 13.2857 13.2632 19.3159 13.2144 23.8065V27.7913C16.0149 29.3159 26.8003 30.243 32.5001 28.0921V24.1624Z" fill="#004085"/>
<rect x="28.8186" y="31.4907" width="2.52446" height="2.52446" rx="1" fill="#B04210"/>
<rect x="25.6057" y="31.4907" width="2.52446" height="2.52446" rx="1" fill="#00B0FF"/>
<path fill-rule="evenodd" clip-rule="evenodd" d="M18.8142 32.9604C18.4598 32.2943 18.9426 31.4907 19.697 31.4907H23.6876C24.2399 31.4907 24.6876 31.9384 24.6876 32.4907V33.0151C24.6876 33.5674 24.2399 34.0151 23.6876 34.0151H19.9761C19.6064 34.0151 19.2669 33.8112 19.0933 33.4848L18.8142 32.9604Z" fill="#CBCBCB"/>
<path d="M31.8021 18.2789C31.8021 16.939 31.1931 15.3271 28.9093 15.1964C26.7174 15.1964 31.7874 20.4259 31.8021 19.117V18.2789Z" fill="white"/>
<path d="M57.1563 26.3375H54.3822V20.6726H49.1842V26.3375H46.4011V13.2122H49.1842V18.3564H54.3822V13.2122H57.1563V26.3375Z" fill="#004085"/>
<path d="M72.0237 19.7569C72.0237 21.9295 71.485 23.5993 70.4077 24.7664C69.3304 25.9335 67.7862 26.5171 65.7752 26.5171C63.7642 26.5171 62.2201 25.9335 61.1428 24.7664C60.0654 23.5993 59.5268 21.9235 59.5268 19.739C59.5268 17.5544 60.0654 15.8876 61.1428 14.7384C62.2261 13.5833 63.7762 13.0057 65.7932 13.0057C67.8102 13.0057 69.3513 13.5863 70.4167 14.7474C71.488 15.9085 72.0237 17.5783 72.0237 19.7569ZM62.4445 19.7569C62.4445 21.2233 62.7228 22.3275 63.2794 23.0697C63.8361 23.8118 64.668 24.1829 65.7752 24.1829C67.9957 24.1829 69.1059 22.7076 69.1059 19.7569C69.1059 16.8003 68.0017 15.322 65.7932 15.322C64.6859 15.322 63.851 15.696 63.2884 16.4442C62.7258 17.1863 62.4445 18.2906 62.4445 19.7569Z" fill="#004085"/>
<path d="M85.0595 13.2122V21.7051C85.0595 22.6747 84.8411 23.5245 84.4042 24.2547C83.9733 24.9849 83.3478 25.5445 82.5279 25.9335C81.7079 26.3226 80.7383 26.5171 79.6191 26.5171C77.9313 26.5171 76.6206 26.0862 75.6869 25.2243C74.7532 24.3565 74.2864 23.1714 74.2864 21.6692V13.2122H77.0605V21.2472C77.0605 22.2587 77.264 23.0008 77.671 23.4737C78.0779 23.9465 78.7513 24.1829 79.6909 24.1829C80.6007 24.1829 81.259 23.9465 81.666 23.4737C82.079 22.9949 82.2855 22.2467 82.2855 21.2293V13.2122H85.0595Z" fill="#004085"/>
<path d="M95.6535 22.6926C95.6535 23.8777 95.2256 24.8113 94.3697 25.4936C93.5198 26.1759 92.3348 26.5171 90.8146 26.5171C89.4141 26.5171 88.1751 26.2537 87.0978 25.727V23.1415C87.9836 23.5365 88.7318 23.8148 89.3422 23.9764C89.9587 24.138 90.5213 24.2188 91.03 24.2188C91.6405 24.2188 92.1074 24.1021 92.4305 23.8687C92.7597 23.6353 92.9243 23.2881 92.9243 22.8273C92.9243 22.5699 92.8525 22.3425 92.7089 22.145C92.5652 21.9415 92.3527 21.747 92.0714 21.5614C91.7961 21.3759 91.2305 21.0796 90.3747 20.6726C89.5727 20.2956 88.9712 19.9335 88.5702 19.5863C88.1692 19.2392 87.849 18.8352 87.6096 18.3744C87.3702 17.9135 87.2505 17.3749 87.2505 16.7584C87.2505 15.5973 87.6425 14.6846 88.4265 14.0202C89.2166 13.3559 90.3058 13.0237 91.6944 13.0237C92.3767 13.0237 93.0261 13.1045 93.6425 13.2661C94.265 13.4277 94.9144 13.6551 95.5907 13.9484L94.6929 16.112C93.9927 15.8247 93.4121 15.6242 92.9513 15.5105C92.4964 15.3968 92.0475 15.3399 91.6046 15.3399C91.0779 15.3399 90.6739 15.4626 90.3926 15.708C90.1113 15.9534 89.9707 16.2736 89.9707 16.6686C89.9707 16.914 90.0275 17.1295 90.1413 17.315C90.255 17.4946 90.4345 17.6711 90.6799 17.8447C90.9313 18.0123 91.5208 18.3175 92.4485 18.7604C93.6754 19.3469 94.5164 19.9365 94.9712 20.529C95.4261 21.1155 95.6535 21.8367 95.6535 22.6926Z" fill="#004085"/>
<path d="M102.728 26.3375H99.9452V15.5285H96.3811V13.2122H106.292V15.5285H102.728V26.3375Z" fill="#004085"/>
<path d="M119.858 19.7569C119.858 21.9295 119.319 23.5993 118.242 24.7664C117.165 25.9335 115.621 26.5171 113.61 26.5171C111.599 26.5171 110.054 25.9335 108.977 24.7664C107.9 23.5993 107.361 21.9235 107.361 19.739C107.361 17.5544 107.9 15.8876 108.977 14.7384C110.06 13.5833 111.61 13.0057 113.627 13.0057C115.644 13.0057 117.186 13.5863 118.251 14.7474C119.322 15.9085 119.858 17.5783 119.858 19.7569ZM110.279 19.7569C110.279 21.2233 110.557 22.3275 111.114 23.0697C111.67 23.8118 112.502 24.1829 113.61 24.1829C115.83 24.1829 116.94 22.7076 116.94 19.7569C116.94 16.8003 115.836 15.322 113.627 15.322C112.52 15.322 111.685 15.696 111.123 16.4442C110.56 17.1863 110.279 18.2906 110.279 19.7569Z" fill="#004085"/>
<path d="M133.854 26.3375H130.317L124.607 16.4083H124.527C124.64 18.1619 124.697 19.4128 124.697 20.1609V26.3375H122.21V13.2122H125.721L131.422 23.0427H131.484C131.395 21.337 131.35 20.131 131.35 19.4247V13.2122H133.854V26.3375Z" fill="#004085"/>
<path d="M50.765 34.3262C50.765 35.1928 50.5292 35.856 50.0575 36.3156C49.5883 36.7729 48.912 37.0015 48.0286 37.0015H46.5742V31.7514H48.183C48.9994 31.7514 49.6338 31.9776 50.0863 32.4301C50.5387 32.8826 50.765 33.5146 50.765 34.3262ZM50.1186 34.3477C50.1186 33.663 49.9462 33.1471 49.6015 32.8C49.2591 32.4528 48.7492 32.2793 48.0717 32.2793H47.1847V36.4736H47.928C48.6558 36.4736 49.2029 36.2953 49.5692 35.9385C49.9354 35.5794 50.1186 35.0492 50.1186 34.3477Z" fill="#78909C"/>
<path d="M55.2337 37.0015H52.307V31.7514H55.2337V32.2936H52.9175V33.985H55.0936V34.5237H52.9175V36.4557H55.2337V37.0015Z" fill="#78909C"/>
<path d="M59.7311 35.6046C59.7311 36.0666 59.5635 36.4269 59.2284 36.6855C58.8932 36.944 58.4383 37.0733 57.8638 37.0733C57.2413 37.0733 56.7625 36.9931 56.4274 36.8327V36.2438C56.6428 36.3348 56.8774 36.4066 57.1312 36.4592C57.385 36.5119 57.6363 36.5383 57.8853 36.5383C58.2923 36.5383 58.5987 36.4616 58.8046 36.3084C59.0105 36.1528 59.1135 35.9373 59.1135 35.662C59.1135 35.4801 59.0764 35.3317 59.0021 35.2167C58.9303 35.0994 58.8082 34.9917 58.6359 34.8935C58.4659 34.7954 58.2061 34.6841 57.8566 34.5596C57.3682 34.3848 57.0187 34.1777 56.808 33.9383C56.5997 33.6989 56.4956 33.3865 56.4956 33.0011C56.4956 32.5965 56.6476 32.2745 56.9516 32.0351C57.2557 31.7957 57.6579 31.676 58.1582 31.676C58.6801 31.676 59.1601 31.7717 59.5983 31.9632L59.4079 32.4947C58.9746 32.3128 58.5533 32.2218 58.1439 32.2218C57.8207 32.2218 57.5681 32.2912 57.3862 32.4301C57.2042 32.5689 57.1132 32.7617 57.1132 33.0082C57.1132 33.1902 57.1468 33.3398 57.2138 33.4571C57.2808 33.572 57.3933 33.6786 57.5514 33.7767C57.7118 33.8725 57.9559 33.979 58.2839 34.0963C58.8346 34.2926 59.2128 34.5033 59.4187 34.7284C59.627 34.9534 59.7311 35.2455 59.7311 35.6046Z" fill="#78909C"/>
<path d="M61.1726 37.0015V31.7514H61.7831V37.0015H61.1726Z" fill="#78909C"/>
<path d="M65.9034 34.2508H67.6882V36.804C67.4105 36.8926 67.128 36.9596 66.8407 37.0051C66.5534 37.0506 66.2206 37.0733 65.8424 37.0733C65.0476 37.0733 64.4287 36.8375 63.9858 36.3659C63.5429 35.8919 63.3215 35.2287 63.3215 34.3764C63.3215 33.8306 63.4304 33.353 63.6482 32.9436C63.8685 32.5318 64.1845 32.2182 64.5963 32.0028C65.0081 31.7849 65.4905 31.676 66.0435 31.676C66.6037 31.676 67.1256 31.7789 67.6092 31.9848L67.3722 32.5235C66.8982 32.3224 66.4421 32.2218 66.004 32.2218C65.3648 32.2218 64.8656 32.4121 64.5065 32.7928C64.1474 33.1734 63.9679 33.7013 63.9679 34.3764C63.9679 35.0851 64.1402 35.6225 64.485 35.9888C64.8321 36.3551 65.3408 36.5383 66.0112 36.5383C66.3751 36.5383 66.7306 36.4964 67.0777 36.4126V34.7966H65.9034V34.2508Z" fill="#78909C"/>
<path d="M73.4209 37.0015H72.7243L69.855 32.5953H69.8263C69.8646 33.1124 69.8838 33.5864 69.8838 34.0173V37.0015H69.32V31.7514H70.0094L72.8715 36.1396H72.9002C72.8955 36.075 72.8847 35.8679 72.8679 35.5184C72.8512 35.1665 72.8452 34.9151 72.85 34.7643V31.7514H73.4209V37.0015Z" fill="#78909C"/>
<path d="M80.4731 35.6046C80.4731 36.0666 80.3055 36.4269 79.9703 36.6855C79.6351 36.944 79.1803 37.0733 78.6057 37.0733C77.9833 37.0733 77.5045 36.9931 77.1693 36.8327V36.2438C77.3848 36.3348 77.6194 36.4066 77.8731 36.4592C78.1269 36.5119 78.3783 36.5383 78.6273 36.5383C79.0342 36.5383 79.3407 36.4616 79.5466 36.3084C79.7525 36.1528 79.8554 35.9373 79.8554 35.662C79.8554 35.4801 79.8183 35.3317 79.7441 35.2167C79.6723 35.0994 79.5502 34.9917 79.3778 34.8935C79.2078 34.7954 78.9481 34.6841 78.5985 34.5596C78.1101 34.3848 77.7606 34.1777 77.5499 33.9383C77.3417 33.6989 77.2375 33.3865 77.2375 33.0011C77.2375 32.5965 77.3895 32.2745 77.6936 32.0351C77.9976 31.7957 78.3998 31.676 78.9002 31.676C79.4221 31.676 79.9021 31.7717 80.3402 31.9632L80.1499 32.4947C79.7165 32.3128 79.2952 32.2218 78.8858 32.2218C78.5626 32.2218 78.31 32.2912 78.1281 32.4301C77.9462 32.5689 77.8552 32.7617 77.8552 33.0082C77.8552 33.1902 77.8887 33.3398 77.9557 33.4571C78.0228 33.572 78.1353 33.6786 78.2933 33.7767C78.4537 33.8725 78.6979 33.979 79.0259 34.0963C79.5765 34.2926 79.9548 34.5033 80.1606 34.7284C80.3689 34.9534 80.4731 35.2455 80.4731 35.6046Z" fill="#78909C"/>
<path d="M83.2504 34.3764L84.6509 31.7514H85.3116L83.5592 34.9654V37.0015H82.9416V34.9941L81.1927 31.7514H81.8606L83.2504 34.3764Z" fill="#78909C"/>
<path d="M89.3674 35.6046C89.3674 36.0666 89.1998 36.4269 88.8646 36.6855C88.5295 36.944 88.0746 37.0733 87.5 37.0733C86.8776 37.0733 86.3988 36.9931 86.0636 36.8327V36.2438C86.2791 36.3348 86.5137 36.4066 86.7675 36.4592C87.0212 36.5119 87.2726 36.5383 87.5216 36.5383C87.9286 36.5383 88.235 36.4616 88.4409 36.3084C88.6468 36.1528 88.7497 35.9373 88.7497 35.662C88.7497 35.4801 88.7126 35.3317 88.6384 35.2167C88.5666 35.0994 88.4445 34.9917 88.2721 34.8935C88.1021 34.7954 87.8424 34.6841 87.4929 34.5596C87.0045 34.3848 86.6549 34.1777 86.4443 33.9383C86.236 33.6989 86.1318 33.3865 86.1318 33.0011C86.1318 32.5965 86.2839 32.2745 86.5879 32.0351C86.892 31.7957 87.2941 31.676 87.7945 31.676C88.3164 31.676 88.7964 31.7717 89.2345 31.9632L89.0442 32.4947C88.6109 32.3128 88.1895 32.2218 87.7801 32.2218C87.4569 32.2218 87.2044 32.2912 87.0224 32.4301C86.8405 32.5689 86.7495 32.7617 86.7495 33.0082C86.7495 33.1902 86.783 33.3398 86.8501 33.4571C86.9171 33.572 87.0296 33.6786 87.1876 33.7767C87.348 33.8725 87.5922 33.979 87.9202 34.0963C88.4708 34.2926 88.8491 34.5033 89.055 34.7284C89.2632 34.9534 89.3674 35.2455 89.3674 35.6046Z" fill="#78909C"/>
<path d="M92.4248 37.0015H91.8143V32.2936H90.1517V31.7514H94.0875V32.2936H92.4248V37.0015Z" fill="#78909C"/>
<path d="M98.1755 37.0015H95.2488V31.7514H98.1755V32.2936H95.8593V33.985H98.0355V34.5237H95.8593V36.4557H98.1755V37.0015Z" fill="#78909C"/>
<path d="M102.034 37.0015L100.253 32.3475H100.224C100.257 32.7162 100.274 33.1543 100.274 33.6618V37.0015H99.7103V31.7514H100.63L102.292 36.0822H102.321L103.998 31.7514H104.91V37.0015H104.3V33.6187C104.3 33.2309 104.316 32.8095 104.35 32.3547H104.321L102.526 37.0015H102.034Z" fill="#78909C"/>
<defs>
<filter id="filter0_d" x="0" y="0" width="45.7143" height="50" filterUnits="userSpaceOnUse" color-interpolation-filters="sRGB">
<feFlood flood-opacity="0" result="BackgroundImageFix"/>
<feColorMatrix in="SourceAlpha" type="matrix" values="0 0 0 0 0 0 0 0 0 0 0 0 0 0 0 0 0 0 127 0"/>
<feOffset dy="1"/>
<feGaussianBlur stdDeviation="5"/>
<feColorMatrix type="matrix" values="0 0 0 0 0.7125 0 0 0 0 0.7125 0 0 0 0 0.7125 0 0 0 1 0"/>
<feBlend mode="normal" in2="BackgroundImageFix" result="effect1_dropShadow"/>
<feBlend mode="normal" in="SourceGraphic" in2="effect1_dropShadow" result="shape"/>
</filter>
</defs>
</svg>
