<svg width="192" height="192" viewBox="0 0 192 192" fill="none" xmlns="http://www.w3.org/2000/svg">
<path d="M104 60C104 55.5817 107.582 52 112 52C116.418 52 120 55.5817 120 60V68C120 72.4183 116.418 76 112 76C107.582 76 104 72.4183 104 68V60Z" fill="#546E7A"/>
<path d="M104 92C104 87.5817 107.582 84 112 84C116.418 84 120 87.5817 120 92V100C120 104.418 116.418 108 112 108C107.582 108 104 104.418 104 100V92Z" fill="#546E7A"/>
<path d="M104 124C104 119.582 107.582 116 112 116C116.418 116 120 119.582 120 124V132C120 136.418 116.418 140 112 140C107.582 140 104 136.418 104 132V124Z" fill="#546E7A"/>
<path fill-rule="evenodd" clip-rule="evenodd" d="M16.004 112C24.8317 111.991 31.9849 104.831 31.9849 96.0001C31.9849 87.1689 24.8307 80.0087 16.0021 80.0002L16 80.0002L16 40C16 35.5817 19.5814 32 23.9993 32L168.001 32C172.419 32 176 35.5817 176 40L176 80.0002C167.171 80.0076 160.015 87.1682 160.015 96.0001C160.015 104.832 167.171 111.993 176 112V152C176 156.418 172.419 160 168.001 160L23.9993 160C19.5814 160 16 156.418 16 152L16 112H16.004ZM164 148V121.299C154.548 116.802 148.015 107.164 148.015 96.0001C148.015 84.8367 154.548 75.1984 164 70.7015L164 44L28 44L28 70.7015C37.452 75.1984 43.9849 84.8367 43.9849 96.0001C43.9849 107.164 37.452 116.802 28 121.299L28 148L164 148Z" fill="#546E7A"/>
</svg>
