<svg width="192" height="192" viewBox="0 0 192 192" fill="none" xmlns="http://www.w3.org/2000/svg">
<path fill-rule="evenodd" clip-rule="evenodd" d="M139 36H53C43.6112 36 36 43.6112 36 53V139C36 148.389 43.6112 156 53 156H139C148.389 156 156 148.389 156 139V53C156 43.6112 148.389 36 139 36ZM53 24C36.9837 24 24 36.9837 24 53V139C24 155.016 36.9837 168 53 168H139C155.016 168 168 155.016 168 139V53C168 36.9837 155.016 24 139 24H53ZM96 116C107.046 116 116 107.046 116 96C116 84.9543 107.046 76 96 76C84.9543 76 76 84.9543 76 96C76 107.046 84.9543 116 96 116ZM96 128C113.673 128 128 113.673 128 96C128 78.3269 113.673 64 96 64C78.3269 64 64 78.3269 64 96C64 113.673 78.3269 128 96 128ZM133.5 69C139.299 69 144 64.299 144 58.5C144 52.701 139.299 48 133.5 48C127.701 48 123 52.701 123 58.5C123 64.299 127.701 69 133.5 69Z" fill="#546E7A"/>
</svg>
