<svg xmlns="http://www.w3.org/2000/svg" xmlns:xlink="http://www.w3.org/1999/xlink" viewBox="0 0 512 270"><defs><style>.cls-1,.cls-18,.cls-20{fill:none;}.cls-2{isolation:isolate;}.cls-3{clip-path:url(#clip-path);}.cls-4{fill:#fff;}.cls-5{clip-path:url(#clip-path-2);}.cls-6{fill:#f9fafb;}.cls-7{fill:#cdebfa;}.cls-8{fill:#e9a82c;}.cls-9{fill:#ffc434;}.cls-10{fill:#d4d4d4;}.cls-11{fill:#c2c2c2;}.cls-12{fill:#d9d9d9;}.cls-13,.cls-35{fill:#c9c9c9;}.cls-14{fill:#c7c7c7;}.cls-15{fill:#0faefd;}.cls-16{fill:#b0b0b0;}.cls-17{fill:#004083;}.cls-18{stroke:#f1f1f1;}.cls-18,.cls-20{stroke-miterlimit:10;stroke-width:2.07px;}.cls-19{fill:#ae4210;}.cls-20{stroke:#fff;}.cls-21{fill:#f48fb1;}.cls-22,.cls-34{fill:#9a9a9a;}.cls-22,.cls-29{opacity:0.43;}.cls-22,.cls-29,.cls-32{mix-blend-mode:multiply;}.cls-23{fill:#f47aa9;}.cls-24{fill:#ffa68e;opacity:0.35;}.cls-25{fill:#8c4499;}.cls-26{fill:#7d3c87;}.cls-27{fill:#9e4dab;}.cls-28{fill:#ae56bd;}.cls-29{fill:#707070;}.cls-30{fill:#f391ff;}.cls-31{fill:#b1e7fc;}.cls-32{opacity:0.28;}.cls-33{fill:#51aca3;}.cls-35{fill-rule:evenodd;}</style><clipPath id="clip-path"><rect class="cls-1" x="-532.32" width="513" height="272"/></clipPath><clipPath id="clip-path-2"><rect class="cls-1" x="-0.8" y="-1" width="513" height="272"/></clipPath></defs><g class="cls-2"><g id="Segundo"><g class="cls-3"><polygon class="cls-4" points="1.46 154.16 2.96 154.21 3.77 155.48 4.29 154.07 5.74 153.69 4.56 152.77 4.65 151.27 3.4 152.11 2.01 151.56 2.42 153 1.46 154.16"/><polygon class="cls-4" points="9.25 217.42 10.76 217.47 11.56 218.74 12.08 217.33 13.53 216.95 12.35 216.03 12.44 214.52 11.2 215.36 9.8 214.81 10.21 216.26 9.25 217.42"/><path class="cls-4" d="M22.36,250.72a.7.7,0,1,1-.7-.68A.69.69,0,0,1,22.36,250.72Z"/><ellipse class="cls-4" cx="9.25" cy="114.26" rx="1.4" ry="1.36"/><path class="cls-4" d="M12.79,185a1.4,1.4,0,1,1-1.4-1.36A1.38,1.38,0,0,1,12.79,185Z"/><polygon class="cls-4" points="5.25 48.42 6.75 48.47 7.56 49.74 8.08 48.33 9.53 47.95 8.35 47.02 8.44 45.52 7.2 46.36 5.8 45.81 6.21 47.26 5.25 48.42"/><path class="cls-4" d="M18.36,81.72a.7.7,0,1,1-.7-.68A.69.69,0,0,1,18.36,81.72Z"/><path class="cls-4" d="M8.79,16a1.4,1.4,0,1,1-1.4-1.36A1.38,1.38,0,0,1,8.79,16Z"/></g></g><g id="Terceiro"><g class="cls-5"><rect class="cls-6" x="-6.8" y="-5" width="526" height="282"/><path class="cls-7" d="M410.61,195.79c7.94,5.2,10.47,16.61,6.75,25.35s-12.59,14.62-21.93,16.28S372.18,235,363,232.49c-10.43-2.9-21,3.53-29.45,10.35s-17.13,14.72-27.93,15.43c-21.11,1.37-36.5-25.14-57.57-23.34-20.85,1.79-34.46,30.7-55,26.42-11.35-2.37-18-14.2-28-20-10.72-6.17-23.94-4.83-36.31-4.74s-26.44-2.2-33.27-12.51c-5.91-8.92-4.27-20.82-.84-31s8.44-20,8.67-30.74c.31-14.23-7.81-27-13.53-40s-8.69-29.58.5-40.43c13-15.31,41.14-9.08,53.45-24.92,9-11.58,5.24-30.27,15.84-40.4,8.37-8,22-6.76,32.66-2.23s20.16,11.77,31.35,14.7,25.48-.35,29.66-11.13c3.33-8.61,15.78-13.24,23.78-8.64s12.31,13.5,16.43,21.75,9.14,17,17.66,20.52c9.1,3.77,19.61.48,28.22-4.3s16.55-11.09,26-13.91,21.36-.94,26.34,7.56c9,15.32-10.91,36.63-1.2,51.49,7.52,11.51,25.17,8,37.88,13.26,13.37,5.5,20.41,22.82,14.66,36.09-3.35,7.74-10,13.46-16.44,19s-13,11.39-16,19.27S403.54,191.17,410.61,195.79Z"/><polygon class="cls-4" points="62.77 50.26 60.41 50.35 59.15 52.33 58.34 50.12 56.06 49.53 57.92 48.08 57.77 45.73 59.73 47.05 61.92 46.18 61.27 48.45 62.77 50.26"/><polygon class="cls-4" points="93.11 126.78 91.61 126.83 90.81 128.1 90.29 126.69 88.83 126.31 90.02 125.39 89.93 123.89 91.17 124.72 92.57 124.17 92.16 125.62 93.11 126.78"/><polygon class="cls-4" points="122.89 37.34 121.38 37.39 120.58 38.66 120.06 37.25 118.61 36.87 119.79 35.95 119.7 34.45 120.94 35.28 122.34 34.73 121.93 36.18 122.89 37.34"/><polygon class="cls-4" points="42.78 106.73 41.28 106.79 40.47 108.06 39.95 106.64 38.5 106.27 39.68 105.34 39.59 103.84 40.84 104.68 42.23 104.13 41.82 105.57 42.78 106.73"/><polygon class="cls-4" points="44.92 175.63 43.42 175.69 42.61 176.95 42.09 175.54 40.64 175.17 41.82 174.24 41.73 172.74 42.98 173.58 44.38 173.03 43.96 174.47 44.92 175.63"/><polygon class="cls-4" points="59.42 138.49 57.06 138.57 55.8 140.56 54.99 138.35 52.71 137.76 54.56 136.31 54.42 133.96 56.37 135.27 58.56 134.41 57.92 136.67 59.42 138.49"/><polygon class="cls-4" points="149.13 57.39 145.58 57.52 143.68 60.51 142.46 57.18 139.03 56.29 141.82 54.1 141.6 50.56 144.54 52.54 147.84 51.24 146.87 54.65 149.13 57.39"/><polygon class="cls-4" points="88.35 183.58 84.81 183.71 82.9 186.7 81.69 183.37 78.25 182.48 81.05 180.3 80.83 176.75 83.77 178.74 87.07 177.43 86.1 180.84 88.35 183.58"/><polygon class="cls-4" points="246.31 97.72 248.66 97.8 249.93 99.79 250.74 97.58 253.02 96.99 251.16 95.54 251.31 93.19 249.35 94.5 247.16 93.64 247.81 95.9 246.31 97.72"/><polygon class="cls-4" points="264.48 220.8 265.98 220.85 266.79 222.12 267.3 220.71 268.76 220.33 267.57 219.41 267.67 217.91 266.42 218.75 265.02 218.19 265.43 219.64 264.48 220.8"/><polygon class="cls-4" points="292.88 110.76 294.38 110.82 295.18 112.08 295.7 110.67 297.15 110.3 295.97 109.37 296.06 107.87 294.82 108.71 293.42 108.16 293.83 109.6 292.88 110.76"/><polygon class="cls-4" points="332.98 89.16 334.49 89.21 335.29 90.48 335.81 89.07 337.26 88.69 336.08 87.77 336.17 86.27 334.93 87.11 333.53 86.56 333.94 88 332.98 89.16"/><polygon class="cls-4" points="340.77 152.42 342.27 152.47 343.08 153.74 343.6 152.33 345.05 151.95 343.87 151.03 343.96 149.52 342.71 150.36 341.32 149.81 341.73 151.26 340.77 152.42"/><polygon class="cls-4" points="319.14 130.97 321.49 131.05 322.76 133.04 323.56 130.83 325.85 130.24 323.99 128.79 324.14 126.44 322.18 127.75 319.99 126.89 320.64 129.15 319.14 130.97"/><polygon class="cls-4" points="272.58 126.84 276.12 126.97 278.03 129.96 279.25 126.63 282.68 125.75 279.89 123.56 280.11 120.02 277.16 122 273.86 120.7 274.84 124.11 272.58 126.84"/><polygon class="cls-4" points="261.57 187.57 265.11 187.7 267.02 190.69 268.23 187.36 271.67 186.48 268.88 184.29 269.09 180.75 266.15 182.73 262.85 181.43 263.82 184.84 261.57 187.57"/><path class="cls-4" d="M44.92,66.49a.7.7,0,1,1-.7-.68A.69.69,0,0,1,44.92,66.49Z"/><path class="cls-4" d="M312.1,33.63a.7.7,0,1,1-.7-.68A.69.69,0,0,1,312.1,33.63Z"/><path class="cls-4" d="M353.88,185.72a.7.7,0,1,1-.7-.68A.69.69,0,0,1,353.88,185.72Z"/><path class="cls-4" d="M266.48,153.81a.7.7,0,1,1-.7-.68A.69.69,0,0,1,266.48,153.81Z"/><path class="cls-4" d="M261.15,117.55a.7.7,0,1,1-.7-.68A.69.69,0,0,1,261.15,117.55Z"/><path class="cls-4" d="M222.73,28.68A.7.7,0,1,1,222,28,.69.69,0,0,1,222.73,28.68Z"/><path class="cls-4" d="M39.2,156.46a.7.7,0,1,1-.7-.68A.69.69,0,0,1,39.2,156.46Z"/><path class="cls-4" d="M113.54,115.8a.7.7,0,1,1-.7-.68A.69.69,0,0,1,113.54,115.8Z"/><path class="cls-4" d="M247.32,187.57a.7.7,0,1,1-.7-.68A.69.69,0,0,1,247.32,187.57Z"/><path class="cls-4" d="M107,205.54a.7.7,0,1,1-.7-.68A.69.69,0,0,1,107,205.54Z"/><path class="cls-4" d="M64.52,112.26a1.4,1.4,0,1,1-1.4-1.36A1.38,1.38,0,0,1,64.52,112.26Z"/><path class="cls-4" d="M240.22,221.1a1.4,1.4,0,1,1-1.4-1.36A1.38,1.38,0,0,1,240.22,221.1Z"/><path class="cls-4" d="M145.48,80a1.41,1.41,0,1,1-1.4-1.36A1.38,1.38,0,0,1,145.48,80Z"/><path class="cls-4" d="M169.06,33.63a1.4,1.4,0,1,1-1.4-1.36A1.38,1.38,0,0,1,169.06,33.63Z"/><ellipse class="cls-4" cx="340.77" cy="49.26" rx="1.4" ry="1.36"/><path class="cls-4" d="M344.31,120a1.4,1.4,0,1,1-1.4-1.36A1.38,1.38,0,0,1,344.31,120Z"/><path class="cls-4" d="M311.4,230.28a1.4,1.4,0,1,1-1.4-1.37A1.38,1.38,0,0,1,311.4,230.28Z"/><path class="cls-4" d="M130.42,231.64a1.4,1.4,0,1,1-1.4-1.36A1.38,1.38,0,0,1,130.42,231.64Z"/><path class="cls-4" d="M65.92,215.35a1.4,1.4,0,1,1-1.4-1.36A1.38,1.38,0,0,1,65.92,215.35Z"/><polygon class="cls-4" points="262.77 114.26 260.42 114.35 259.15 116.33 258.34 114.12 256.06 113.53 257.92 112.08 257.77 109.73 259.73 111.05 261.92 110.18 261.27 112.45 262.77 114.26"/><polygon class="cls-4" points="293.12 190.78 291.61 190.83 290.81 192.1 290.29 190.69 288.83 190.31 290.02 189.38 289.93 187.88 291.17 188.72 292.57 188.17 292.16 189.62 293.12 190.78"/><polygon class="cls-4" points="322.89 101.34 321.38 101.39 320.58 102.66 320.06 101.25 318.61 100.87 319.79 99.95 319.7 98.45 320.94 99.28 322.34 98.73 321.93 100.18 322.89 101.34"/><polygon class="cls-4" points="242.78 170.73 241.28 170.79 240.47 172.06 239.96 170.64 238.5 170.27 239.68 169.34 239.59 167.84 240.84 168.68 242.24 168.13 241.82 169.57 242.78 170.73"/><polygon class="cls-4" points="244.92 239.63 243.42 239.69 242.61 240.95 242.09 239.54 240.64 239.17 241.82 238.24 241.73 236.74 242.98 237.58 244.38 237.03 243.96 238.47 244.92 239.63"/><polygon class="cls-4" points="259.42 202.49 257.06 202.57 255.8 204.56 254.99 202.35 252.71 201.76 254.56 200.31 254.42 197.96 256.37 199.27 258.56 198.41 257.92 200.67 259.42 202.49"/><polygon class="cls-4" points="349.13 121.39 345.58 121.52 343.68 124.51 342.46 121.18 339.02 120.29 341.82 118.1 341.6 114.56 344.54 116.54 347.84 115.24 346.87 118.65 349.13 121.39"/><polygon class="cls-4" points="288.35 247.58 284.81 247.71 282.9 250.7 281.69 247.37 278.25 246.48 281.05 244.3 280.83 240.75 283.77 242.74 287.07 241.43 286.1 244.84 288.35 247.58"/><polygon class="cls-4" points="446.31 161.72 448.67 161.8 449.93 163.79 450.74 161.58 453.02 160.99 451.16 159.54 451.31 157.19 449.36 158.5 447.16 157.63 447.81 159.9 446.31 161.72"/><polygon class="cls-4" points="492.88 174.76 494.38 174.82 495.18 176.08 495.7 174.67 497.15 174.3 495.97 173.37 496.06 171.87 494.82 172.71 493.42 172.16 493.83 173.6 492.88 174.76"/><polygon class="cls-4" points="472.58 190.84 476.12 190.97 478.03 193.96 479.25 190.63 482.68 189.75 479.89 187.56 480.11 184.02 477.16 186 473.86 184.7 474.84 188.11 472.58 190.84"/><polygon class="cls-4" points="461.57 251.57 465.11 251.7 467.02 254.69 468.23 251.36 471.67 250.48 468.88 248.29 469.09 244.75 466.15 246.73 462.85 245.43 463.82 248.84 461.57 251.57"/><path class="cls-4" d="M244.92,130.49a.7.7,0,1,1-.7-.68A.69.69,0,0,1,244.92,130.49Z"/><path class="cls-4" d="M512.1,97.63a.7.7,0,1,1-.7-.68A.69.69,0,0,1,512.1,97.63Z"/><path class="cls-4" d="M466.48,217.81a.7.7,0,1,1-.7-.68A.69.69,0,0,1,466.48,217.81Z"/><path class="cls-4" d="M461.15,181.55a.7.7,0,1,1-.7-.68A.69.69,0,0,1,461.15,181.55Z"/><path class="cls-4" d="M422.73,92.68A.7.7,0,1,1,422,92,.69.69,0,0,1,422.73,92.68Z"/><path class="cls-4" d="M239.2,220.46a.7.7,0,1,1-.7-.68A.69.69,0,0,1,239.2,220.46Z"/><path class="cls-4" d="M313.54,179.8a.7.7,0,1,1-.7-.68A.69.69,0,0,1,313.54,179.8Z"/><path class="cls-4" d="M447.32,251.57a.7.7,0,1,1-.7-.68A.69.69,0,0,1,447.32,251.57Z"/><path class="cls-4" d="M307,269.54a.7.7,0,1,1-.7-.68A.69.69,0,0,1,307,269.54Z"/><path class="cls-4" d="M264.52,176.26a1.4,1.4,0,1,1-1.4-1.36A1.38,1.38,0,0,1,264.52,176.26Z"/><path class="cls-4" d="M345.48,144a1.41,1.41,0,1,1-1.4-1.36A1.38,1.38,0,0,1,345.48,144Z"/><path class="cls-4" d="M369.06,97.63a1.4,1.4,0,1,1-1.4-1.36A1.38,1.38,0,0,1,369.06,97.63Z"/><polygon class="cls-4" points="289.12 21.78 287.61 21.83 286.81 23.1 286.29 21.69 284.83 21.31 286.02 20.39 285.93 18.89 287.17 19.72 288.57 19.17 288.16 20.62 289.12 21.78"/><polygon class="cls-4" points="238.78 1.73 237.28 1.79 236.47 3.06 235.96 1.64 234.5 1.27 235.68 0.34 235.59 -1.16 236.84 -0.32 238.24 -0.87 237.82 0.57 238.78 1.73"/><polygon class="cls-4" points="240.92 70.63 239.42 70.69 238.61 71.95 238.09 70.54 236.64 70.17 237.82 69.24 237.73 67.74 238.98 68.58 240.38 68.03 239.96 69.47 240.92 70.63"/><polygon class="cls-4" points="255.42 33.49 253.06 33.57 251.8 35.56 250.99 33.35 248.71 32.76 250.56 31.31 250.42 28.95 252.37 30.27 254.56 29.41 253.92 31.67 255.42 33.49"/><polygon class="cls-4" points="284.35 78.58 280.81 78.71 278.9 81.7 277.69 78.37 274.25 77.48 277.05 75.3 276.83 71.75 279.77 73.73 283.07 72.43 282.1 75.84 284.35 78.58"/><polygon class="cls-4" points="460.48 115.8 461.98 115.85 462.79 117.12 463.3 115.71 464.76 115.33 463.57 114.41 463.67 112.91 462.42 113.75 461.02 113.19 461.43 114.64 460.48 115.8"/><polygon class="cls-4" points="488.88 5.76 490.38 5.82 491.18 7.08 491.7 5.67 493.15 5.3 491.97 4.37 492.06 2.87 490.82 3.71 489.42 3.16 489.83 4.6 488.88 5.76"/><polygon class="cls-4" points="468.58 21.84 472.12 21.97 474.03 24.96 475.25 21.63 478.68 20.75 475.89 18.56 476.11 15.02 473.16 17 469.86 15.7 470.84 19.11 468.58 21.84"/><polygon class="cls-4" points="457.57 82.57 461.11 82.7 463.02 85.69 464.23 82.36 467.67 81.48 464.88 79.29 465.09 75.75 462.15 77.73 458.85 76.43 459.82 79.84 457.57 82.57"/><path class="cls-4" d="M462.48,48.81a.7.7,0,1,1-.7-.68A.69.69,0,0,1,462.48,48.81Z"/><path class="cls-4" d="M457.15,12.55a.7.7,0,1,1-.7-.68A.69.69,0,0,1,457.15,12.55Z"/><path class="cls-4" d="M235.2,51.46a.7.7,0,1,1-.7-.68A.69.69,0,0,1,235.2,51.46Z"/><path class="cls-4" d="M309.54,10.8a.7.7,0,1,1-.7-.68A.69.69,0,0,1,309.54,10.8Z"/><path class="cls-4" d="M443.32,82.57a.7.7,0,1,1-.7-.68A.69.69,0,0,1,443.32,82.57Z"/><path class="cls-4" d="M303,100.54a.7.7,0,1,1-.7-.68A.69.69,0,0,1,303,100.54Z"/><path class="cls-4" d="M260.52,7.26a1.4,1.4,0,1,1-1.4-1.36A1.38,1.38,0,0,1,260.52,7.26Z"/><path class="cls-4" d="M436.22,116.1a1.4,1.4,0,1,1-1.4-1.36A1.38,1.38,0,0,1,436.22,116.1Z"/><path class="cls-4" d="M507.4,125.28a1.4,1.4,0,1,1-1.4-1.37A1.38,1.38,0,0,1,507.4,125.28Z"/><path class="cls-4" d="M326.42,126.64a1.4,1.4,0,1,1-1.4-1.36A1.38,1.38,0,0,1,326.42,126.64Z"/><path class="cls-4" d="M261.92,110.35a1.4,1.4,0,1,1-1.4-1.36A1.38,1.38,0,0,1,261.92,110.35Z"/><polygon class="cls-4" points="14.13 -2.61 10.58 -2.48 8.68 0.51 7.46 -2.82 4.03 -3.71 6.82 -5.9 6.6 -9.44 9.54 -7.46 12.84 -8.76 11.87 -5.35 14.13 -2.61"/><polygon class="cls-4" points="111.31 37.72 113.67 37.8 114.93 39.79 115.74 37.58 118.02 36.99 116.16 35.54 116.31 33.19 114.36 34.5 112.16 33.63 112.81 35.9 111.31 37.72"/><polygon class="cls-4" points="129.48 160.8 130.98 160.85 131.79 162.12 132.3 160.71 133.76 160.33 132.57 159.41 132.67 157.91 131.42 158.75 130.02 158.19 130.43 159.64 129.48 160.8"/><polygon class="cls-4" points="157.88 50.76 159.38 50.82 160.18 52.08 160.7 50.67 162.16 50.3 160.97 49.37 161.06 47.87 159.82 48.71 158.42 48.16 158.83 49.6 157.88 50.76"/><polygon class="cls-4" points="197.98 29.16 199.49 29.21 200.29 30.48 200.81 29.07 202.26 28.69 201.08 27.77 201.17 26.27 199.93 27.11 198.53 26.55 198.94 28 197.98 29.16"/><polygon class="cls-4" points="205.77 92.42 207.28 92.47 208.08 93.74 208.6 92.33 210.05 91.95 208.87 91.03 208.96 89.52 207.72 90.36 206.32 89.81 206.73 91.26 205.77 92.42"/><polygon class="cls-4" points="184.14 70.97 186.49 71.05 187.76 73.04 188.56 70.83 190.84 70.24 188.99 68.79 189.14 66.44 187.18 67.75 184.99 66.89 185.64 69.15 184.14 70.97"/><polygon class="cls-4" points="137.58 66.84 141.12 66.97 143.03 69.96 144.25 66.63 147.68 65.75 144.89 63.56 145.11 60.02 142.16 62 138.86 60.7 139.84 64.11 137.58 66.84"/><polygon class="cls-4" points="126.57 127.57 130.11 127.7 132.02 130.69 133.23 127.36 136.67 126.48 133.88 124.29 134.09 120.75 131.15 122.73 127.85 121.43 128.82 124.84 126.57 127.57"/><path class="cls-4" d="M218.88,125.72a.7.7,0,1,1-.7-.68A.69.69,0,0,1,218.88,125.72Z"/><path class="cls-4" d="M131.48,93.81a.7.7,0,1,1-.7-.68A.69.69,0,0,1,131.48,93.81Z"/><path class="cls-4" d="M126.15,57.55a.7.7,0,1,1-.7-.68A.69.69,0,0,1,126.15,57.55Z"/><path class="cls-4" d="M112.32,127.57a.7.7,0,1,1-.7-.68A.69.69,0,0,1,112.32,127.57Z"/><path class="cls-4" d="M105.22,161.1a1.4,1.4,0,1,1-1.4-1.36A1.38,1.38,0,0,1,105.22,161.1Z"/><path class="cls-4" d="M10.48,20a1.41,1.41,0,1,1-1.4-1.36A1.38,1.38,0,0,1,10.48,20Z"/><path class="cls-4" d="M209.31,60a1.4,1.4,0,1,1-1.4-1.36A1.38,1.38,0,0,1,209.31,60Z"/><path class="cls-4" d="M176.4,170.28a1.4,1.4,0,1,1-1.4-1.37A1.38,1.38,0,0,1,176.4,170.28Z"/><polygon class="cls-4" points="76.31 185.72 78.67 185.8 79.93 187.79 80.74 185.58 83.02 184.99 81.16 183.54 81.31 181.19 79.36 182.5 77.16 181.63 77.81 183.9 76.31 185.72"/><polygon class="cls-4" points="122.88 198.76 124.38 198.82 125.18 200.08 125.7 198.67 127.16 198.3 125.97 197.37 126.06 195.87 124.82 196.71 123.42 196.16 123.83 197.6 122.88 198.76"/><polygon class="cls-4" points="162.98 177.16 164.49 177.21 165.29 178.48 165.81 177.07 167.26 176.69 166.08 175.77 166.17 174.27 164.93 175.11 163.53 174.56 163.94 176 162.98 177.16"/><polygon class="cls-4" points="170.77 240.42 172.28 240.47 173.08 241.74 173.6 240.33 175.05 239.95 173.87 239.03 173.96 237.52 172.72 238.36 171.32 237.81 171.73 239.26 170.77 240.42"/><polygon class="cls-4" points="149.14 218.97 151.49 219.05 152.76 221.04 153.56 218.83 155.84 218.24 153.99 216.79 154.14 214.44 152.18 215.75 149.99 214.89 150.64 217.15 149.14 218.97"/><polygon class="cls-4" points="102.58 214.84 106.12 214.97 108.03 217.96 109.25 214.63 112.68 213.75 109.89 211.56 110.11 208.02 107.16 210 103.86 208.7 104.84 212.11 102.58 214.84"/><polygon class="cls-4" points="91.57 275.57 95.11 275.7 97.02 278.69 98.23 275.36 101.67 274.48 98.88 272.29 99.09 268.75 96.15 270.73 92.85 269.43 93.83 272.84 91.57 275.57"/><path class="cls-4" d="M142.1,121.63a.7.7,0,1,1-.7-.68A.69.69,0,0,1,142.1,121.63Z"/><path class="cls-4" d="M96.48,241.81a.7.7,0,1,1-.7-.68A.69.69,0,0,1,96.48,241.81Z"/><path class="cls-4" d="M91.15,205.55a.7.7,0,1,1-.7-.68A.69.69,0,0,1,91.15,205.55Z"/><path class="cls-4" d="M52.73,116.68A.7.7,0,1,1,52,116,.69.69,0,0,1,52.73,116.68Z"/><ellipse class="cls-4" cx="170.77" cy="137.26" rx="1.4" ry="1.36"/><path class="cls-4" d="M174.31,208a1.4,1.4,0,1,1-1.4-1.36A1.38,1.38,0,0,1,174.31,208Z"/></g><circle class="cls-8" cx="324.43" cy="196.55" r="53.57" transform="translate(38.45 445.76) rotate(-72.28)"/><circle class="cls-9" cx="319.65" cy="191.82" r="48.81" transform="translate(89.52 485.1) rotate(-82.85)"/><path class="cls-10" d="M353.77,151.33c4.28.8,8.62,1.62,12.49,3.62s7.24,5.37,8.18,9.62c1,4.6-.94,9.3-3,13.54a203.94,203.94,0,0,1-15.11,26c-1.86,2.72-3.89,5.49-6.81,7-4.35,2.23-9.81,1.13-13.91-1.52s-7.13-6.64-10.08-10.54C335.76,183.21,345.5,168.31,353.77,151.33Z"/><path class="cls-11" d="M325.53,199.09c10.23-15.88,20-30.78,28.24-47.76a71.48,71.48,0,0,1,8,1.81c-5.41,19.89-15.11,39.22-29.06,54.24A56.76,56.76,0,0,1,325.53,199.09Z"/><path class="cls-12" d="M266.15,130.77c-1.27-2.91-3.47-5.82-6.62-6.29-3.71-.57-7.23,2.82-7.67,6.55s1.57,7.4,4.37,9.9,6.51,4.74,9.51,7l11.56,8.71c4.35,3.28,8.75,6.58,13.73,8.77s10.7,3.17,15.92,1.64,9.77-6,10.43-11.37-2.27-11.74-7.71-12.07a111.33,111.33,0,0,1-36.94-3.23c0-3.58.11-8.39-.78-11.86-.35-1.36-1-2.93-2.38-3.21a2.71,2.71,0,0,0-2.86,2A6.8,6.8,0,0,0,266.15,130.77Z"/><path class="cls-13" d="M309.67,143.61c5.44.33,8.36,6.67,7.71,12.07s-5.21,9.83-10.43,11.37-10.93.54-15.91-1.64a46.47,46.47,0,0,1-6.73-3.73,90.58,90.58,0,0,1,10.06-17.91A111.6,111.6,0,0,0,309.67,143.61Z"/><path class="cls-4" d="M342.59,181c-3.78,8.56-8.24,17.09-15.2,23.34s-16.92,9.86-25.87,7.15c-10.41-3.15-17-14.31-17.23-25.18s6-20.46,11.55-29.81c8-13.45,9-22.5,21.63-23.66,9.46-.86,30.33,7.61,35.36,16C358,157.46,346.43,172.33,342.59,181Z"/><path class="cls-14" d="M293.48,164.28c6.07,5.56,15.68,11.14,23.68,13.06,2.89-5.75,4.38-11.07,7.27-16.82l-.91-1.83c-6-2.66-14.44-5.48-19.92-9.09-2.51,3-11,12.84-11,12.84Z"/><path class="cls-12" d="M292.58,162.44c6.06,5.57,15.68,11.15,23.68,13.07,2.89-5.75,4.37-11.08,7.26-16.82a118.31,118.31,0,0,1-20.82-10.92C298.65,152.56,292.58,162.44,292.58,162.44Z"/><path class="cls-4" d="M371.23,138.32c-3.77,7.18-10.18,13.43-18.14,15-8.46,1.65-16.93-2.11-24.73-5.78-8.79-4.14-18.48-9.29-21.25-18.6-2.38-8,1.23-16.47,4.76-24.05C316,96,321.42,86.11,331,84.24c5.32-1,10.75.74,15.78,2.73a178.69,178.69,0,0,1,23.5,11.3C385.7,107.11,378.17,125.09,371.23,138.32Z"/><path class="cls-15" d="M361.18,129.11c-2.38,4.51-6.39,8.44-11.38,9.46-4.3.88-8.72-.47-12.79-2.1-7.05-2.82-23.19-7.83-29.27-12.38-5.5-4.11,5.47-28.91,12.8-30.33s14.88.85,21.75,3.78c6.72,2.86,13.6,6.47,18.93,11.56C367.33,114.94,365,121.88,361.18,129.11Z"/><path class="cls-4" d="M295.39,202.52c-17.42,4-35.95,9-46.61,23.37-5.41-3.32-9.42-5.86-14.83-9.18a25.52,25.52,0,0,1,11.86-2.54c2.93-11.37,7.89-22,17.82-28.31a28.48,28.48,0,0,1,13.18-4.75c4.71-.3,9.68,1.19,12.89,4.65S297.77,198.44,295.39,202.52Z"/><path class="cls-15" d="M252.55,197.34c3,2.42,7.15,1.81,10-.81a8.55,8.55,0,0,0,1.1-10.67C258.89,188.34,255.11,193,252.55,197.34Z"/><path class="cls-4" d="M317.08,210.63c-17.42,4-35.95,9-46.61,23.37-5.4-3.32-9.41-5.86-14.82-9.18a25.48,25.48,0,0,1,11.85-2.54c2.93-11.37,7.89-22.05,17.83-28.31a28.48,28.48,0,0,1,13.18-4.75c4.71-.3,9.67,1.19,12.88,4.66S319.46,206.55,317.08,210.63Z"/><path class="cls-15" d="M274.25,206.08c3,2.42,7.15,1.81,10-.81a8.55,8.55,0,0,0,1.1-10.67C280.58,197.08,276.8,201.73,274.25,206.08Z"/><path class="cls-16" d="M258.34,217.07s-7.22-5.39-10.78-8.81l-1.75,5.91s-7.18-.28-11.86,2.54l14.83,9.18A46.09,46.09,0,0,1,258.34,217.07Z"/><path class="cls-16" d="M280,224.91s-7.23-5.39-10.78-8.82L267.5,222s-7.17-.28-11.85,2.54l14.82,9.17A45.78,45.78,0,0,1,280,224.91Z"/><path class="cls-15" d="M331.43,201a66.6,66.6,0,0,1-45.74-25.92l2.65-5.69a67.61,67.61,0,0,0,45,27.9Z"/><path class="cls-17" d="M359.88,126.52C357.51,131,353.5,135,348.5,136c-4.3.87-8.72-.47-12.79-2.1-7-2.83-23.19-7.83-29.27-12.38-5.5-4.11,5.47-28.92,12.81-30.33S334.12,92,341,94.94c6.72,2.87,13.59,6.48,18.92,11.57C366,112.35,363.69,119.28,359.88,126.52Z"/><path class="cls-17" d="M354.42,107.45a3.88,3.88,0,0,0,2.05-3.86,41.89,41.89,0,0,1,3.45,2.92l.23.24c-9.26,6.25-9.55,16.81-6.71,27.11A13.84,13.84,0,0,1,348.5,136a14.85,14.85,0,0,1-1.88.23c1.65-6.33.68-13.82-1.28-21C344.05,110.05,351.83,110.05,354.42,107.45Z"/><path class="cls-17" d="M341,94.94a83,83,0,0,1,10.88,5.52,5,5,0,0,0,0,.51c-10.38,6.48-14.27,14.26-11.67,25.94a15.9,15.9,0,0,1-.36,8.4c-1.39-.4-2.76-.9-4.09-1.43-1.9-.77-4.49-1.69-7.35-2.72a61.91,61.91,0,0,1,12.15-36.42Z"/><path class="cls-17" d="M323.88,90.75a37.8,37.8,0,0,1,12.21,2.3c-5.88,11.15-10.86,23.85-12.08,36.52-2.41-.89-4.87-1.82-7.22-2.78C313.76,113.78,314.51,100.57,323.88,90.75Z"/><path class="cls-4" d="M317.46,104.53a5.34,5.34,0,1,0,5.33-5.34A5.33,5.33,0,0,0,317.46,104.53Z"/><path class="cls-4" d="M375.53,136.58a10.47,10.47,0,0,1-3.89-11.67c.23-.37.46-.73.7-1.07a10.46,10.46,0,0,1,1.12-.53c1.08.61,2.18,1.13,3.27,1.64a6.24,6.24,0,0,1,3.09,8.12,23.15,23.15,0,0,1-2.27,4A5,5,0,0,1,375.53,136.58Z"/><path class="cls-10" d="M372.34,123.84c-.24.34-.47.7-.7,1.07a10.47,10.47,0,0,0,3.89,11.67,5,5,0,0,0,2,.52c-.13.18-.23.38-.37.55A7.31,7.31,0,0,1,367,139.2l-1.81-1.32C364.61,132.33,367.45,126.42,372.34,123.84Z"/><path class="cls-18" d="M329.34,198.43c-18-.7-41.07-20.14-41.07-24.34"/><path class="cls-16" d="M272.49,140.83a6.54,6.54,0,0,1-.52,2.68,8.78,8.78,0,0,1-1.41,2.28,8.52,8.52,0,0,1-2,1.76,6.13,6.13,0,0,1-2.56.94,19.67,19.67,0,0,1,1.48-2.15c.51-.66,1-1.28,1.54-1.88s1.05-1.22,1.61-1.82A19.41,19.41,0,0,1,272.49,140.83Z"/><rect class="cls-19" x="314.37" y="146.96" width="6.08" height="6.08" rx="0.55" transform="translate(37.54 361.95) rotate(-62.43)"/><rect class="cls-15" x="307.34" y="143.22" width="6.08" height="6.08" rx="0.55" transform="translate(33.04 348.28) rotate(-61.3)"/><path class="cls-20" d="M250.59,141.56c6.45-.61,11.65-6.23,13.32-12.49s.4-13-1.85-19-5.43-11.77-7.75-17.82-3.76-12.7-2.32-19"/><path class="cls-20" d="M206.13,89.34c7.87,5.19,17.6,6.44,26.9,8s19.07,3.74,25.9,10.24,9.11,18.66,2.31,25.2c-6.65,6.4-18.41,4.77-24.91,11.34a13.52,13.52,0,0,0-.21,18.1"/><path class="cls-20" d="M295.41,80.17c1,7.91-5.39,14.75-11.91,19.33s-14.06,8.59-17.62,15.71c-2.48,5-2.61,10.79-2.47,16.35s.48,11.28-1.2,16.59-5.92,10.24-11.46,10.87"/><circle class="cls-21" cx="300.22" cy="46.83" r="35.5" transform="translate(199.81 333.61) rotate(-79.57)"/><path class="cls-22" d="M320.73,47.87a51.8,51.8,0,0,0,11-17.37A35.5,35.5,0,0,1,270.33,66a35.12,35.12,0,0,1-2.94-5.67C285.78,65.49,306.13,62.17,320.73,47.87Z"/><path class="cls-23" d="M306.12,28a5.22,5.22,0,1,0,1.59-7.21A5.22,5.22,0,0,0,306.12,28Z"/><path class="cls-23" d="M319,41a5.23,5.23,0,1,0,1.58-7.23A5.22,5.22,0,0,0,319,41Z"/><path class="cls-23" d="M297.94,45.71a6,6,0,1,0,1.83-8.35A6,6,0,0,0,297.94,45.71Z"/><path class="cls-23" d="M314.14,53.17a3.88,3.88,0,1,0,1.17-5.35A3.88,3.88,0,0,0,314.14,53.17Z"/><path class="cls-23" d="M284.64,43.62a3.88,3.88,0,1,0,1.17-5.36A3.87,3.87,0,0,0,284.64,43.62Z"/><path class="cls-23" d="M282.89,30.34a7.57,7.57,0,1,0,2.29-10.46A7.56,7.56,0,0,0,282.89,30.34Z"/><path class="cls-24" d="M284.55,14.88c15.23-7.17,33-3.19,43.28,9.12-12.09-8.24-28.44-9.63-41.07-.35C274.44,32.91,266,47.41,268.11,61.5,259.44,44.3,268.29,22.54,284.55,14.88Z"/><circle class="cls-25" cx="181.63" cy="59.99" r="38.82" transform="translate(-8.27 82.92) rotate(-25.16)"/><path class="cls-25" d="M174.75,21.78A38.77,38.77,0,0,1,208.52,32c-13,.52-25.8-3.28-38-9.2A39.11,39.11,0,0,1,174.75,21.78Z"/><path class="cls-26" d="M170.51,22.8c12.21,5.92,25,9.72,38,9.2a39.23,39.23,0,0,1,3.66,4.06c-16.37.35-32.32-4.08-47.09-11.19A37.19,37.19,0,0,1,170.51,22.8Z"/><path class="cls-26" d="M145.85,45c23.44,11.93,49,19.74,74.16,20.75a37.67,37.67,0,0,1-1.09,4.89c-25.87,1.2-50.7-8.84-74.53-21.49A40,40,0,0,1,145.85,45Z"/><path class="cls-27" d="M143.42,66.86a39.06,39.06,0,0,1-.59-6,231.88,231.88,0,0,0,70.59,21.28,39.18,39.18,0,0,1-4.35,5.2C185.78,89.08,164.41,80.6,144,69.45,143.77,68.6,143.58,67.74,143.42,66.86Z"/><path class="cls-26" d="M188.5,98.2a38.83,38.83,0,0,1-41.07-19.84c14.91,9,30.63,16,47.86,17.94A38.91,38.91,0,0,1,188.5,98.2Z"/><path class="cls-28" d="M156.11,30.78c19.55,9.33,41,15.07,62,16a39,39,0,0,1,1.64,6c-23.8.07-46.29-7.55-67.51-18.13A38.31,38.31,0,0,1,156.11,30.78Z"/><path class="cls-29" d="M145.14,58.33c11,9.88,22.59,15.7,37.09,15.73,14.66.71,32-4.75,37.94-18.68a38.82,38.82,0,1,1-77.13.31Q144,57,145.14,58.33Z"/><path class="cls-30" d="M143.82,51a10.89,10.89,0,0,0-.37,2.41c-17.22,5.15-28.54,11.37-27.7,16.05,1.2,6.64,26.43,7.66,56.37,2.28s53.23-15.14,52-21.78c-.34-1.91-2.69-3.36-6.58-4.32-.43-1-.84-2.11-1.27-3.21l.17-.05c10.95.76,17.93,3.07,18.62,6.87,1.48,8.26-27.5,20.39-64.75,27.09s-68.64,5.43-70.12-2.84C99,66.91,117.36,57.82,143.82,51Z"/><circle class="cls-31" cx="243.59" cy="42.46" r="35.5" transform="translate(131.66 262.93) rotate(-72.97)"/><path class="cls-15" d="M227.77,10.67a35.44,35.44,0,0,1,31.06-.27c-11.29.37-22.64,1-34,1.9C225.8,11.72,226.77,11.17,227.77,10.67Z"/><path class="cls-15" d="M222.19,14.13c14.45.23,29,.91,43.14.29A35.57,35.57,0,0,1,271,20c-19,1.25-37.92,2.36-56.75,2.5A35.23,35.23,0,0,1,222.19,14.13Z"/><path class="cls-15" d="M208.81,35.59a642,642,0,0,1,69.93,1.91,35.35,35.35,0,0,1,.28,6.73c-23.78-2.54-47.36-2.81-70.88-3A36.13,36.13,0,0,1,208.81,35.59Z"/><path class="cls-15" d="M208.13,43.54c23.68.78,47.53.44,70.58,3.8a36.32,36.32,0,0,1-1.8,7.2c-22.79-2.47-45.21-4-68-4.5A35.1,35.1,0,0,1,208.13,43.54Z"/><path class="cls-15" d="M211.81,58.28a35.69,35.69,0,0,1-1.71-4.06c21.58,0,43.09.83,64.42,5.57a35.69,35.69,0,0,1-4.46,6.29c-19-2.77-38.31-5.82-57.75-6.86C212.14,58.91,212,58.6,211.81,58.28Z"/><path class="cls-15" d="M216.47,65.35c16.29.56,32.53,2,48.29,5.59A36.26,36.26,0,0,1,259.87,74c-12.66-2.86-25.45-3.76-38.36-3.79A35.57,35.57,0,0,1,216.47,65.35Z"/><path class="cls-15" d="M211.3,27.8a621.21,621.21,0,0,0,62.92-3.27c.4.69.79,1.38,1.15,2.1a37,37,0,0,1,2,4.88c-22.63-.75-45.24.31-67.68.61A36.78,36.78,0,0,1,211.3,27.8Z"/><g class="cls-32"><path class="cls-33" d="M257.78,46.55c7.29-5.66,13.46-15,14.76-24.65a36.51,36.51,0,0,1,2.83,4.73,35.5,35.5,0,1,1-63.56,31.65c-.3-.6-.57-1.19-.83-1.8A56.19,56.19,0,0,0,257.78,46.55Z"/><path class="cls-33" d="M257.78,46.55c7.29-5.66,13.46-15,14.76-24.65a36.51,36.51,0,0,1,2.83,4.73,35.5,35.5,0,1,1-63.56,31.65c-.3-.6-.57-1.19-.83-1.8A56.19,56.19,0,0,0,257.78,46.55Z"/><path class="cls-33" d="M257.78,46.55c7.29-5.66,13.46-15,14.76-24.65a36.51,36.51,0,0,1,2.83,4.73,35.5,35.5,0,1,1-63.56,31.65c-.3-.6-.57-1.19-.83-1.8A56.19,56.19,0,0,0,257.78,46.55Z"/><path class="cls-34" d="M257.78,46.55c7.29-5.66,13.46-15,14.76-24.65a36.51,36.51,0,0,1,2.83,4.73,35.5,35.5,0,1,1-63.56,31.65c-.3-.6-.57-1.19-.83-1.8A56.19,56.19,0,0,0,257.78,46.55Z"/></g><path class="cls-31" d="M227.76,10.64c15.22-7.17,33-3.2,43.28,9.11-12.1-8.23-28.44-9.62-41.07-.34-12.33,9.25-20.81,23.75-18.65,37.84C202.64,40.05,211.49,18.3,227.76,10.64Z"/><path class="cls-10" d="M338,151c-2.27.85-2.49,3.65-4.22,10.27a181,181,0,0,1-8.35,24c-.34.81-.6,1.43-.77,1.82-1.44,3.36-2.09,5.38-1.46,7.41A7.43,7.43,0,0,0,326,198a10.31,10.31,0,0,0,4,2c2.35.44,5.68-2.16,16-20a82,82,0,0,0,8-23,4,4,0,0,0-.4-3.07,2.06,2.06,0,0,0-.51-.55c-2.09-1.45-4.54-1-7.22-1C341,152.36,340.16,150.19,338,151Z"/><path class="cls-4" d="M309.76,156.7c-.12-1.88,2.32-3.22,4.05-2.45,4.08,1.81-1.82,9.17-1.82,9.17,5,5.7,9.74,10.62,14.72,16.31,0-5.32.54-10.9,3.43-15.37s8.88-7.35,13.72-5.14c3.19,1.45,5.24,4.78,5.87,8.22a23.49,23.49,0,0,1-.88,10.38,54.35,54.35,0,0,1-10.18,19.8c-3,3.67-7.09,7.2-11.79,6.74-3.57-.35-6.48-2.92-9.11-5.35-4.4-4.08-16.29-23.43-15.55-30.48-4.26-4-6.53-10.79-6-16.59.29-3.27,2-6.95,5.26-7.43,2.43-.35,4.79,1.36,6,3.51A27.61,27.61,0,0,1,309.76,156.7Z"/><path class="cls-15" d="M354.1,153.07v1.78s-10.48.43-26-5.25-19.77-13.35-19.77-13.35l1.86-1.27a67.94,67.94,0,0,0,18.14,11.12C339.6,150.84,354.1,153.07,354.1,153.07Z"/><path class="cls-16" d="M302.14,168.67l2.69-1.2c.84-.38,1.65-.78,2.44-1.2s1.58-.87,2.36-1.36l2.5-1.55a6.27,6.27,0,0,1-1.43,2.78,8.63,8.63,0,0,1-5.45,2.89A6.34,6.34,0,0,1,302.14,168.67Z"/><path class="cls-35" d="M337.13,157.07a.55.55,0,0,0-.11-.94l-13.27-6a.56.56,0,0,0-.73.28l-2,4.53a.55.55,0,0,0,.27.73l10.86,4.92a.54.54,0,0,0,.56-.07Z"/></g></g></svg>