<svg xmlns="http://www.w3.org/2000/svg" xmlns:xlink="http://www.w3.org/1999/xlink" viewBox="0 0 512 270"><defs><style>.cls-1{fill:none;}.cls-2{clip-path:url(#clip-path);}.cls-3{fill:#fff;}.cls-4{clip-path:url(#clip-path-2);}.cls-5{fill:#f9fafb;}.cls-6{fill:#cdebfa;}.cls-7{fill:#d9d9d9;}.cls-8{fill:#0faefd;}.cls-9{fill:#004083;}.cls-10{fill:#ae4210;}.cls-11{fill:#c9c9c9;fill-rule:evenodd;}.cls-12{fill:#70d2f9;}.cls-13{fill:#f2a5c3;}.cls-14{fill:#f48fb1;}.cls-15{fill:#e4eef9;}.cls-16{clip-path:url(#clip-path-3);}</style><clipPath id="clip-path"><rect class="cls-1" x="-532" y="-1" width="513" height="272"/></clipPath><clipPath id="clip-path-2"><rect class="cls-1" x="-0.32" width="513" height="272"/></clipPath><clipPath id="clip-path-3"><rect class="cls-1" x="531.2" y="-1" width="513" height="272"/></clipPath></defs><g id="Personagem"><g class="cls-2"><polygon class="cls-3" points="1.78 153.16 3.29 153.21 4.09 154.48 4.61 153.07 6.06 152.69 4.88 151.77 4.97 150.27 3.73 151.11 2.33 150.56 2.74 152 1.78 153.16"/><polygon class="cls-3" points="9.57 216.42 11.07 216.47 11.88 217.74 12.4 216.33 13.85 215.95 12.67 215.03 12.76 213.52 11.52 214.36 10.12 213.81 10.53 215.26 9.57 216.42"/><path class="cls-3" d="M22.68,249.72A.7.7,0,1,1,22,249,.69.69,0,0,1,22.68,249.72Z"/><ellipse class="cls-3" cx="9.57" cy="113.26" rx="1.4" ry="1.36"/><path class="cls-3" d="M13.11,184a1.4,1.4,0,1,1-1.4-1.36A1.38,1.38,0,0,1,13.11,184Z"/><polygon class="cls-3" points="5.57 47.42 7.08 47.47 7.88 48.74 8.4 47.33 9.85 46.95 8.67 46.02 8.76 44.52 7.51 45.36 6.12 44.81 6.53 46.26 5.57 47.42"/><path class="cls-3" d="M18.68,80.72A.7.7,0,1,1,18,80,.69.69,0,0,1,18.68,80.72Z"/><path class="cls-3" d="M9.11,15a1.4,1.4,0,1,1-1.4-1.36A1.38,1.38,0,0,1,9.11,15Z"/></g></g><g id="Segundo"><g class="cls-4"><rect class="cls-5" x="-6.32" y="-4" width="526" height="282"/><path class="cls-6" d="M411.09,196.79c7.94,5.2,10.47,16.61,6.75,25.35s-12.59,14.62-21.93,16.28-23.25-2.38-32.39-4.93c-10.43-2.9-21,3.53-29.45,10.35s-17.13,14.72-27.93,15.43c-21.11,1.37-36.5-25.14-57.57-23.34-20.85,1.79-34.46,30.7-54.95,26.42-11.35-2.37-18-14.2-28-20-10.72-6.17-23.94-4.83-36.31-4.74s-26.44-2.2-33.27-12.51c-5.91-8.92-4.27-20.82-.84-31s8.44-20,8.67-30.74c.31-14.23-7.81-27-13.53-40s-8.69-29.58.5-40.43c13-15.31,41.14-9.08,53.45-24.92,9-11.58,5.24-30.27,15.84-40.4,8.37-8,22-6.76,32.66-2.23s20.16,11.77,31.35,14.7,25.48-.35,29.66-11.13c3.33-8.61,15.78-13.24,23.78-8.64S289.86,23.81,294,32.06s9.14,17,17.66,20.52c9.1,3.77,19.61.48,28.22-4.3s16.55-11.09,26-13.91,21.36-.94,26.34,7.56c9,15.32-10.91,36.63-1.2,51.49,7.52,11.51,25.17,8,37.88,13.26,13.37,5.5,20.41,22.82,14.66,36.09-3.35,7.74-10,13.46-16.44,19s-13,11.39-16,19.27S404,192.17,411.09,196.79Z"/><polygon class="cls-3" points="63.25 51.26 60.9 51.35 59.63 53.33 58.82 51.12 56.54 50.53 58.4 49.08 58.25 46.73 60.21 48.05 62.4 47.18 61.75 49.45 63.25 51.26"/><polygon class="cls-3" points="93.59 127.78 92.09 127.83 91.29 129.1 90.77 127.69 89.31 127.31 90.5 126.39 90.41 124.89 91.65 125.72 93.05 125.17 92.64 126.62 93.59 127.78"/><polygon class="cls-3" points="123.37 38.34 121.86 38.39 121.06 39.66 120.54 38.25 119.09 37.87 120.27 36.95 120.18 35.45 121.42 36.28 122.82 35.73 122.41 37.18 123.37 38.34"/><polygon class="cls-3" points="43.26 107.73 41.76 107.79 40.95 109.06 40.44 107.64 38.98 107.27 40.16 106.34 40.07 104.84 41.32 105.68 42.72 105.13 42.3 106.57 43.26 107.73"/><polygon class="cls-3" points="45.4 176.63 43.9 176.69 43.09 177.95 42.58 176.54 41.12 176.17 42.3 175.24 42.21 173.74 43.46 174.58 44.85 174.03 44.44 175.47 45.4 176.63"/><polygon class="cls-3" points="59.9 139.49 57.54 139.57 56.28 141.56 55.47 139.35 53.19 138.76 55.04 137.31 54.9 134.96 56.85 136.27 59.04 135.41 58.4 137.67 59.9 139.49"/><polygon class="cls-3" points="149.61 58.39 146.06 58.52 144.16 61.51 142.94 58.18 139.5 57.29 142.3 55.1 142.08 51.56 145.02 53.54 148.32 52.24 147.35 55.65 149.61 58.39"/><polygon class="cls-3" points="88.83 184.58 85.29 184.71 83.38 187.7 82.17 184.37 78.73 183.48 81.53 181.3 81.31 177.75 84.25 179.74 87.55 178.43 86.58 181.84 88.83 184.58"/><polygon class="cls-3" points="246.79 98.72 249.15 98.8 250.41 100.79 251.22 98.58 253.5 97.99 251.64 96.54 251.79 94.19 249.84 95.5 247.64 94.64 248.29 96.9 246.79 98.72"/><polygon class="cls-3" points="264.96 221.8 266.46 221.85 267.27 223.12 267.78 221.71 269.24 221.33 268.05 220.41 268.15 218.91 266.9 219.75 265.5 219.19 265.91 220.64 264.96 221.8"/><polygon class="cls-3" points="293.36 111.76 294.86 111.82 295.66 113.08 296.18 111.67 297.63 111.3 296.45 110.37 296.54 108.87 295.3 109.71 293.9 109.16 294.31 110.6 293.36 111.76"/><polygon class="cls-3" points="333.46 90.16 334.96 90.21 335.77 91.48 336.29 90.07 337.74 89.69 336.56 88.77 336.65 87.27 335.4 88.11 334.01 87.56 334.42 89 333.46 90.16"/><polygon class="cls-3" points="341.25 153.42 342.75 153.47 343.56 154.74 344.08 153.33 345.53 152.95 344.35 152.03 344.44 150.52 343.19 151.36 341.8 150.81 342.21 152.26 341.25 153.42"/><polygon class="cls-3" points="319.62 131.97 321.97 132.05 323.24 134.04 324.05 131.83 326.32 131.24 324.47 129.79 324.62 127.44 322.66 128.75 320.47 127.89 321.12 130.15 319.62 131.97"/><polygon class="cls-3" points="273.06 127.84 276.6 127.97 278.51 130.96 279.73 127.63 283.16 126.75 280.37 124.56 280.59 121.02 277.64 123 274.34 121.7 275.32 125.11 273.06 127.84"/><polygon class="cls-3" points="262.05 188.57 265.59 188.7 267.5 191.69 268.71 188.36 272.15 187.48 269.36 185.29 269.57 181.75 266.63 183.73 263.33 182.43 264.31 185.84 262.05 188.57"/><path class="cls-3" d="M45.4,67.49a.7.7,0,1,1-.7-.68A.69.69,0,0,1,45.4,67.49Z"/><path class="cls-3" d="M312.58,34.63a.7.7,0,1,1-.7-.68A.69.69,0,0,1,312.58,34.63Z"/><path class="cls-3" d="M354.36,186.72a.7.7,0,1,1-.7-.68A.69.69,0,0,1,354.36,186.72Z"/><path class="cls-3" d="M267,154.81a.7.7,0,1,1-.7-.68A.69.69,0,0,1,267,154.81Z"/><path class="cls-3" d="M261.63,118.55a.7.7,0,1,1-.7-.68A.69.69,0,0,1,261.63,118.55Z"/><path class="cls-3" d="M223.21,29.68a.7.7,0,1,1-.7-.68A.69.69,0,0,1,223.21,29.68Z"/><path class="cls-3" d="M39.68,157.46a.7.7,0,1,1-.7-.68A.69.69,0,0,1,39.68,157.46Z"/><path class="cls-3" d="M114,116.8a.7.7,0,1,1-.7-.68A.69.69,0,0,1,114,116.8Z"/><path class="cls-3" d="M247.8,188.57a.7.7,0,1,1-.7-.68A.69.69,0,0,1,247.8,188.57Z"/><path class="cls-3" d="M107.45,206.54a.7.7,0,1,1-.7-.68A.69.69,0,0,1,107.45,206.54Z"/><path class="cls-3" d="M65,113.26a1.4,1.4,0,1,1-1.4-1.36A1.38,1.38,0,0,1,65,113.26Z"/><path class="cls-3" d="M240.7,222.1a1.4,1.4,0,1,1-1.4-1.36A1.38,1.38,0,0,1,240.7,222.1Z"/><path class="cls-3" d="M146,81a1.41,1.41,0,1,1-1.4-1.36A1.38,1.38,0,0,1,146,81Z"/><path class="cls-3" d="M169.54,34.63a1.4,1.4,0,1,1-1.4-1.36A1.38,1.38,0,0,1,169.54,34.63Z"/><ellipse class="cls-3" cx="341.25" cy="50.26" rx="1.4" ry="1.36"/><path class="cls-3" d="M344.79,121a1.4,1.4,0,1,1-1.4-1.36A1.38,1.38,0,0,1,344.79,121Z"/><path class="cls-3" d="M311.88,231.28a1.4,1.4,0,1,1-1.4-1.37A1.38,1.38,0,0,1,311.88,231.28Z"/><path class="cls-3" d="M130.9,232.64a1.4,1.4,0,1,1-1.4-1.36A1.38,1.38,0,0,1,130.9,232.64Z"/><path class="cls-3" d="M66.4,216.35A1.4,1.4,0,1,1,65,215,1.38,1.38,0,0,1,66.4,216.35Z"/><polygon class="cls-3" points="263.25 115.26 260.89 115.35 259.63 117.33 258.82 115.12 256.54 114.53 258.4 113.08 258.25 110.73 260.21 112.05 262.4 111.18 261.75 113.45 263.25 115.26"/><polygon class="cls-3" points="293.6 191.78 292.09 191.83 291.29 193.1 290.77 191.69 289.31 191.31 290.5 190.38 290.41 188.88 291.65 189.72 293.05 189.17 292.64 190.62 293.6 191.78"/><polygon class="cls-3" points="323.37 102.34 321.86 102.39 321.06 103.66 320.54 102.25 319.09 101.87 320.27 100.95 320.18 99.45 321.42 100.28 322.82 99.73 322.41 101.18 323.37 102.34"/><polygon class="cls-3" points="243.26 171.73 241.76 171.79 240.95 173.06 240.44 171.64 238.98 171.27 240.16 170.34 240.07 168.84 241.32 169.68 242.72 169.13 242.3 170.57 243.26 171.73"/><polygon class="cls-3" points="245.4 240.63 243.9 240.69 243.09 241.95 242.57 240.54 241.12 240.17 242.3 239.24 242.21 237.74 243.46 238.58 244.85 238.03 244.44 239.47 245.4 240.63"/><polygon class="cls-3" points="259.9 203.49 257.54 203.57 256.28 205.56 255.47 203.35 253.19 202.76 255.04 201.31 254.9 198.96 256.85 200.27 259.04 199.41 258.4 201.67 259.9 203.49"/><polygon class="cls-3" points="349.61 122.39 346.06 122.52 344.16 125.51 342.94 122.18 339.5 121.29 342.3 119.1 342.08 115.56 345.02 117.54 348.32 116.24 347.35 119.65 349.61 122.39"/><polygon class="cls-3" points="288.83 248.58 285.29 248.71 283.38 251.7 282.17 248.37 278.73 247.48 281.52 245.3 281.31 241.75 284.25 243.74 287.55 242.43 286.58 245.84 288.83 248.58"/><polygon class="cls-3" points="446.79 162.72 449.14 162.8 450.41 164.79 451.22 162.58 453.5 161.99 451.64 160.54 451.79 158.19 449.83 159.5 447.64 158.63 448.29 160.9 446.79 162.72"/><polygon class="cls-3" points="493.36 175.76 494.86 175.82 495.66 177.08 496.18 175.67 497.63 175.3 496.45 174.37 496.54 172.87 495.3 173.71 493.9 173.16 494.31 174.6 493.36 175.76"/><polygon class="cls-3" points="473.06 191.84 476.6 191.97 478.51 194.96 479.73 191.63 483.16 190.75 480.37 188.56 480.59 185.02 477.64 187 474.34 185.7 475.32 189.11 473.06 191.84"/><polygon class="cls-3" points="462.05 252.57 465.59 252.7 467.5 255.69 468.71 252.36 472.15 251.48 469.36 249.29 469.57 245.75 466.63 247.73 463.33 246.43 464.31 249.84 462.05 252.57"/><path class="cls-3" d="M245.4,131.49a.7.7,0,1,1-.7-.68A.69.69,0,0,1,245.4,131.49Z"/><path class="cls-3" d="M512.58,98.63a.7.7,0,1,1-.7-.68A.69.69,0,0,1,512.58,98.63Z"/><path class="cls-3" d="M467,218.81a.7.7,0,1,1-.7-.68A.69.69,0,0,1,467,218.81Z"/><path class="cls-3" d="M461.63,182.55a.7.7,0,1,1-.7-.68A.69.69,0,0,1,461.63,182.55Z"/><path class="cls-3" d="M423.21,93.68a.7.7,0,1,1-.7-.68A.69.69,0,0,1,423.21,93.68Z"/><path class="cls-3" d="M239.68,221.46a.7.7,0,1,1-.7-.68A.69.69,0,0,1,239.68,221.46Z"/><path class="cls-3" d="M314,180.8a.7.7,0,1,1-.7-.68A.69.69,0,0,1,314,180.8Z"/><path class="cls-3" d="M447.8,252.57a.7.7,0,1,1-.7-.68A.69.69,0,0,1,447.8,252.57Z"/><path class="cls-3" d="M307.45,270.54a.7.7,0,1,1-.7-.68A.69.69,0,0,1,307.45,270.54Z"/><path class="cls-3" d="M265,177.26a1.4,1.4,0,1,1-1.4-1.36A1.38,1.38,0,0,1,265,177.26Z"/><path class="cls-3" d="M346,145a1.41,1.41,0,1,1-1.4-1.36A1.38,1.38,0,0,1,346,145Z"/><path class="cls-3" d="M369.54,98.63a1.4,1.4,0,1,1-1.4-1.36A1.38,1.38,0,0,1,369.54,98.63Z"/><polygon class="cls-3" points="289.6 22.78 288.09 22.83 287.29 24.1 286.77 22.69 285.31 22.31 286.5 21.39 286.41 19.89 287.65 20.72 289.05 20.17 288.64 21.62 289.6 22.78"/><polygon class="cls-3" points="239.26 2.73 237.76 2.79 236.95 4.05 236.44 2.64 234.98 2.27 236.16 1.34 236.07 -0.16 237.32 0.68 238.72 0.13 238.3 1.57 239.26 2.73"/><polygon class="cls-3" points="241.4 71.63 239.9 71.69 239.09 72.95 238.57 71.54 237.12 71.17 238.3 70.24 238.21 68.74 239.46 69.58 240.85 69.03 240.44 70.47 241.4 71.63"/><polygon class="cls-3" points="255.9 34.49 253.54 34.57 252.28 36.56 251.47 34.35 249.19 33.76 251.04 32.31 250.9 29.95 252.85 31.27 255.04 30.41 254.4 32.67 255.9 34.49"/><polygon class="cls-3" points="284.83 79.58 281.29 79.71 279.38 82.7 278.17 79.37 274.73 78.48 277.52 76.3 277.31 72.75 280.25 74.73 283.55 73.43 282.58 76.84 284.83 79.58"/><polygon class="cls-3" points="460.96 116.8 462.46 116.85 463.27 118.12 463.78 116.71 465.24 116.33 464.05 115.41 464.15 113.91 462.9 114.75 461.5 114.19 461.91 115.64 460.96 116.8"/><polygon class="cls-3" points="489.36 6.76 490.86 6.82 491.66 8.08 492.18 6.67 493.63 6.3 492.45 5.37 492.54 3.87 491.3 4.71 489.9 4.16 490.31 5.6 489.36 6.76"/><polygon class="cls-3" points="469.06 22.84 472.6 22.97 474.51 25.96 475.73 22.63 479.16 21.75 476.37 19.56 476.59 16.02 473.64 18 470.34 16.7 471.32 20.11 469.06 22.84"/><polygon class="cls-3" points="458.05 83.57 461.59 83.7 463.5 86.69 464.71 83.36 468.15 82.48 465.36 80.29 465.57 76.75 462.63 78.73 459.33 77.43 460.31 80.84 458.05 83.57"/><path class="cls-3" d="M463,49.81a.7.7,0,1,1-.7-.68A.69.69,0,0,1,463,49.81Z"/><path class="cls-3" d="M457.63,13.55a.7.7,0,1,1-.7-.68A.69.69,0,0,1,457.63,13.55Z"/><path class="cls-3" d="M235.68,52.46a.7.7,0,1,1-.7-.68A.69.69,0,0,1,235.68,52.46Z"/><path class="cls-3" d="M310,11.8a.7.7,0,1,1-.7-.68A.69.69,0,0,1,310,11.8Z"/><path class="cls-3" d="M443.8,83.57a.7.7,0,1,1-.7-.68A.69.69,0,0,1,443.8,83.57Z"/><path class="cls-3" d="M303.45,101.54a.7.7,0,1,1-.7-.68A.69.69,0,0,1,303.45,101.54Z"/><path class="cls-3" d="M261,8.26a1.4,1.4,0,1,1-1.4-1.36A1.38,1.38,0,0,1,261,8.26Z"/><path class="cls-3" d="M436.7,117.1a1.4,1.4,0,1,1-1.4-1.36A1.38,1.38,0,0,1,436.7,117.1Z"/><path class="cls-3" d="M507.88,126.28a1.4,1.4,0,1,1-1.4-1.37A1.38,1.38,0,0,1,507.88,126.28Z"/><path class="cls-3" d="M326.9,127.64a1.4,1.4,0,1,1-1.4-1.36A1.38,1.38,0,0,1,326.9,127.64Z"/><path class="cls-3" d="M262.4,111.35A1.4,1.4,0,1,1,261,110,1.38,1.38,0,0,1,262.4,111.35Z"/><polygon class="cls-3" points="14.61 -1.61 11.06 -1.48 9.16 1.51 7.94 -1.82 4.5 -2.71 7.3 -4.9 7.08 -8.44 10.02 -6.46 13.32 -7.76 12.35 -4.35 14.61 -1.61"/><polygon class="cls-3" points="111.79 38.72 114.14 38.8 115.41 40.79 116.22 38.58 118.5 37.99 116.64 36.54 116.79 34.19 114.83 35.5 112.64 34.63 113.29 36.9 111.79 38.72"/><polygon class="cls-3" points="129.96 161.8 131.46 161.85 132.27 163.12 132.78 161.71 134.24 161.33 133.05 160.41 133.15 158.91 131.9 159.75 130.5 159.19 130.91 160.64 129.96 161.8"/><polygon class="cls-3" points="158.35 51.76 159.86 51.82 160.66 53.08 161.18 51.67 162.63 51.3 161.45 50.37 161.54 48.87 160.3 49.71 158.9 49.16 159.31 50.6 158.35 51.76"/><polygon class="cls-3" points="198.46 30.16 199.97 30.21 200.77 31.48 201.29 30.07 202.74 29.69 201.56 28.77 201.65 27.27 200.41 28.11 199.01 27.55 199.42 29 198.46 30.16"/><polygon class="cls-3" points="206.25 93.42 207.75 93.47 208.56 94.74 209.08 93.33 210.53 92.95 209.35 92.03 209.44 90.52 208.19 91.36 206.8 90.81 207.21 92.26 206.25 93.42"/><polygon class="cls-3" points="184.62 71.97 186.97 72.05 188.24 74.04 189.04 71.83 191.32 71.24 189.47 69.79 189.62 67.44 187.66 68.75 185.47 67.89 186.12 70.15 184.62 71.97"/><polygon class="cls-3" points="138.06 67.84 141.6 67.97 143.51 70.96 144.72 67.63 148.16 66.75 145.37 64.56 145.59 61.02 142.64 63 139.34 61.7 140.32 65.11 138.06 67.84"/><polygon class="cls-3" points="127.05 128.57 130.59 128.7 132.5 131.69 133.71 128.36 137.15 127.48 134.35 125.29 134.57 121.75 131.63 123.73 128.33 122.43 129.31 125.84 127.05 128.57"/><path class="cls-3" d="M219.36,126.72a.7.7,0,1,1-.7-.68A.69.69,0,0,1,219.36,126.72Z"/><path class="cls-3" d="M132,94.81a.7.7,0,1,1-.7-.68A.69.69,0,0,1,132,94.81Z"/><path class="cls-3" d="M126.63,58.55a.7.7,0,1,1-.7-.68A.69.69,0,0,1,126.63,58.55Z"/><path class="cls-3" d="M112.8,128.57a.7.7,0,1,1-.7-.68A.69.69,0,0,1,112.8,128.57Z"/><path class="cls-3" d="M105.7,162.1a1.4,1.4,0,1,1-1.4-1.36A1.38,1.38,0,0,1,105.7,162.1Z"/><path class="cls-3" d="M11,21a1.41,1.41,0,1,1-1.4-1.36A1.38,1.38,0,0,1,11,21Z"/><path class="cls-3" d="M209.79,61a1.4,1.4,0,1,1-1.4-1.36A1.38,1.38,0,0,1,209.79,61Z"/><path class="cls-3" d="M176.88,171.28a1.4,1.4,0,1,1-1.4-1.37A1.38,1.38,0,0,1,176.88,171.28Z"/><polygon class="cls-3" points="76.79 186.72 79.14 186.8 80.41 188.79 81.22 186.58 83.5 185.99 81.64 184.54 81.79 182.19 79.83 183.5 77.64 182.63 78.29 184.9 76.79 186.72"/><polygon class="cls-3" points="123.36 199.76 124.86 199.82 125.66 201.08 126.18 199.67 127.64 199.3 126.45 198.37 126.54 196.87 125.3 197.71 123.9 197.16 124.31 198.6 123.36 199.76"/><polygon class="cls-3" points="163.46 178.16 164.97 178.21 165.77 179.48 166.29 178.07 167.74 177.69 166.56 176.77 166.65 175.27 165.41 176.11 164.01 175.56 164.42 177 163.46 178.16"/><polygon class="cls-3" points="171.25 241.42 172.75 241.47 173.56 242.74 174.08 241.33 175.53 240.95 174.35 240.03 174.44 238.52 173.19 239.36 171.8 238.81 172.21 240.26 171.25 241.42"/><polygon class="cls-3" points="149.62 219.97 151.97 220.05 153.24 222.04 154.04 219.83 156.32 219.24 154.47 217.79 154.62 215.44 152.66 216.75 150.47 215.89 151.12 218.15 149.62 219.97"/><polygon class="cls-3" points="103.06 215.84 106.6 215.97 108.51 218.96 109.72 215.63 113.16 214.75 110.37 212.56 110.59 209.02 107.64 211 104.34 209.7 105.32 213.11 103.06 215.84"/><polygon class="cls-3" points="92.05 276.57 95.59 276.7 97.5 279.69 98.71 276.36 102.15 275.48 99.36 273.29 99.57 269.75 96.63 271.73 93.33 270.43 94.31 273.84 92.05 276.57"/><path class="cls-3" d="M142.58,122.63a.7.7,0,1,1-.7-.68A.69.69,0,0,1,142.58,122.63Z"/><path class="cls-3" d="M97,242.81a.7.7,0,1,1-.7-.68A.69.69,0,0,1,97,242.81Z"/><path class="cls-3" d="M91.63,206.55a.7.7,0,1,1-.7-.68A.69.69,0,0,1,91.63,206.55Z"/><path class="cls-3" d="M53.21,117.68a.7.7,0,1,1-.7-.68A.69.69,0,0,1,53.21,117.68Z"/><ellipse class="cls-3" cx="171.25" cy="138.26" rx="1.4" ry="1.36"/><path class="cls-3" d="M174.79,209a1.4,1.4,0,1,1-1.4-1.36A1.38,1.38,0,0,1,174.79,209Z"/></g><path class="cls-7" d="M361.83,140.75c2-4.65,5.54-9.28,10.56-10,5.91-.9,11.51,4.49,12.22,10.43s-2.51,11.79-7,15.77-10.37,7.56-15.15,11.16L344.07,182c-6.92,5.22-13.93,10.49-21.87,14s-17,5.05-25.35,2.61-15.57-9.49-16.61-18.1,3.61-18.7,12.27-19.23a177.37,177.37,0,0,0,58.85-5.15c0-5.7-.18-13.37,1.24-18.89.56-2.17,1.59-4.67,3.79-5.12,2-.4,3.93,1.27,4.56,3.2S362.17,138.74,361.83,140.75Z"/><path class="cls-7" d="M164,144.79c-2-4.65-5.54-9.28-10.56-10-5.91-.9-11.51,4.49-12.22,10.43s2.51,11.79,7,15.77,10.37,7.56,15.15,11.16L181.77,186c6.92,5.22,13.93,10.49,21.87,14s17,5,25.35,2.61,15.57-9.49,16.61-18.1-3.61-18.7-12.27-19.23a177.37,177.37,0,0,1-58.85-5.15c0-5.7.18-13.37-1.24-18.89-.56-2.17-1.59-4.67-3.79-5.12-2-.4-3.93,1.27-4.56,3.2S163.67,142.78,164,144.79Z"/><path class="cls-3" d="M223.66,167.93c.8,14.88,2.62,30.1,9.47,43.34s19.64,24.24,34.5,25.26c17.28,1.18,33.41-11.72,39.88-27.78s2.62-33.88-.38-50.94c-4.31-24.54-.67-38.58-18.86-47.44-13.61-6.63-49.48-5.79-61.7,3.85C214,124.1,222.85,152.78,223.66,167.93Z"/><path class="cls-3" d="M207.56,89.81c1.56,12.84,7.57,25.76,18.56,32.58,11.66,7.23,26.41,6.41,40.1,5.34,15.42-1.21,32.76-3.4,42.14-15.71,8.08-10.6,7.47-25.22,6.49-38.52C313.71,58,311.22,40.15,298,32c-7.33-4.54-16.42-4.95-25-4.84a286.73,286.73,0,0,0-41.38,3.57C203.62,35.16,204.68,66.2,207.56,89.81Z"/><path class="cls-8" d="M214.29,80.08c1,8.06,4.74,16.18,11.61,20.51,5.91,3.73,13.25,4.23,20.23,4.1,12.1-.24,39,1.43,50.6-1.92,10.51-3,8.17-46.16-2-52.41s-22.64-7.14-34.53-6.65c-11.63.47-23.9,2-34.71,6.54C213.13,55.5,212.7,67.15,214.29,80.08Z"/><path class="cls-9" d="M215.68,77c1,8.06,4.75,16.18,11.62,20.51,5.9,3.73,13.25,4.23,20.23,4.1,12.1-.24,39,1.43,50.59-1.92,10.51-3,8.17-46.16-1.95-52.41s-22.64-7.14-34.53-6.65c-11.63.47-23.91,2-34.72,6.54C214.52,52.37,214.09,64,215.68,77Z"/><path class="cls-9" d="M234.58,51.63a6.17,6.17,0,0,1-.87-6.91,65.8,65.8,0,0,0-6.79,2.4c-.17.07-.31.15-.47.23,10.26,14.54,4.74,30.43-5.32,44.18A20.91,20.91,0,0,0,230,98.87c1.13-10.36,6.8-21,13.75-30.52C248.57,61.35,237,57,234.58,51.63Z"/><path class="cls-9" d="M261.64,40.58a132.46,132.46,0,0,0-19.32,2.07,5,5,0,0,1-.22.79c11.79,15.51,13.2,29.3,2.75,45.22a25.36,25.36,0,0,0-4.22,12.72c2.3.19,4.62.22,6.9.18,3.27-.07,7.64,0,12.48.09a98.46,98.46,0,0,0,2.46-61.1C262.19,40.56,261.91,40.56,261.64,40.58Z"/><path class="cls-9" d="M289.51,44A60.18,60.18,0,0,0,270,40.52c2.45,19.94,2.71,41.66-2.62,61.23,4.08,0,8.28,0,12.31-.08C291.58,84,297.91,63.9,289.51,44Z"/><path class="cls-3" d="M291.29,68.14a8.5,8.5,0,1,1-4.94-11A8.51,8.51,0,0,1,291.29,68.14Z"/><path class="cls-8" d="M222.31,119.77l-1,2.65S236.67,129,263,129.26s37-8.73,37-8.73l-2-2.94a108.57,108.57,0,0,1-33.31,6.32C245.16,124.63,222.31,119.77,222.31,119.77Z"/><rect class="cls-10" x="254.73" y="133.72" width="9.69" height="9.69" rx="0.88" transform="translate(-1.97 3.76) rotate(-0.83)"/><rect class="cls-8" x="267.42" y="133.44" width="9.69" height="9.69" rx="0.88" transform="translate(-4.56 9.38) rotate(-1.96)"/><path class="cls-11" d="M227.24,135.71a.88.88,0,0,1,.76-1.31l23.19-.33a.88.88,0,0,1,.89.87l.12,7.93a.89.89,0,0,1-.87.89l-19,.27a.88.88,0,0,1-.78-.46Z"/><path class="cls-12" d="M141.73,123a640.23,640.23,0,0,1,21.06,113.54c35.65,8.34,72,21.62,101.13,44.48,0-35.6,0-119.46,0-119.46s-19.76-16.42-46-25.73C193.51,127.15,167.65,122.22,141.73,123Z"/><path class="cls-13" d="M263.92,157.9s-35.82-36.82-111.3-39.77l-2.92-12.39S237.82,111,263.92,157.9Z"/><path class="cls-13" d="M263.92,151.36s-29.08-43.22-103.81-50.75l-2.38-11.89S229.1,95.46,263.92,151.36Z"/><path class="cls-8" d="M386.11,123a640.34,640.34,0,0,0-21.06,113.55c-35.65,8.34-72,21.61-101.13,44.47,0-35.6,0-119.46,0-119.46s19.76-16.42,46-25.73C334.33,127.15,360.19,122.22,386.11,123Z"/><path class="cls-14" d="M263.92,157.9s35.82-36.81,111.3-39.76l2.92-12.4S290,111,263.92,157.9Z"/><path class="cls-14" d="M263.92,151.36S293,108.15,367.73,100.61l2.38-11.89S298.74,95.46,263.92,151.36Z"/><path class="cls-15" d="M174.66,36.45a2.5,2.5,0,1,1-2.5-2.5A2.49,2.49,0,0,1,174.66,36.45Z"/><ellipse class="cls-7" cx="150.5" cy="149.5" rx="7.5" ry="12.5" transform="translate(-30.11 38.23) rotate(-13.17)"/><ellipse class="cls-7" cx="376.5" cy="145.5" rx="12.5" ry="7.5" transform="matrix(0.31, -0.95, 0.95, 0.31, 121.12, 458.07)"/></g><g id="Terceiro"><g class="cls-16"><polygon class="cls-3" points="490.12 66.78 488.61 66.83 487.81 68.1 487.29 66.69 485.83 66.31 487.02 65.39 486.93 63.88 488.17 64.72 489.57 64.17 489.16 65.62 490.12 66.78"/><polygon class="cls-3" points="439.78 46.73 438.28 46.79 437.47 48.05 436.95 46.64 435.5 46.27 436.68 45.34 436.59 43.84 437.84 44.68 439.24 44.13 438.82 45.57 439.78 46.73"/><polygon class="cls-3" points="441.92 115.63 440.42 115.69 439.61 116.95 439.1 115.54 437.64 115.17 438.82 114.24 438.73 112.74 439.98 113.58 441.38 113.03 440.96 114.47 441.92 115.63"/><polygon class="cls-3" points="456.42 78.49 454.06 78.57 452.8 80.56 451.99 78.35 449.71 77.76 451.56 76.31 451.42 73.95 453.37 75.27 455.56 74.41 454.92 76.67 456.42 78.49"/><polygon class="cls-3" points="485.35 123.58 481.81 123.71 479.9 126.7 478.69 123.37 475.25 122.48 478.05 120.3 477.83 116.75 480.77 118.73 484.07 117.43 483.1 120.84 485.35 123.58"/><path class="cls-3" d="M441.92,6.49a.7.7,0,1,1-.7-.68A.69.69,0,0,1,441.92,6.49Z"/><path class="cls-3" d="M436.2,96.46a.7.7,0,1,1-.7-.68A.69.69,0,0,1,436.2,96.46Z"/><path class="cls-3" d="M510.54,55.8a.7.7,0,1,1-.7-.68A.69.69,0,0,1,510.54,55.8Z"/><path class="cls-3" d="M504,145.54a.7.7,0,1,1-.7-.68A.69.69,0,0,1,504,145.54Z"/><path class="cls-3" d="M461.52,52.26a1.4,1.4,0,1,1-1.4-1.36A1.38,1.38,0,0,1,461.52,52.26Z"/><path class="cls-3" d="M462.92,155.35a1.4,1.4,0,1,1-1.4-1.36A1.38,1.38,0,0,1,462.92,155.35Z"/><polygon class="cls-3" points="424.77 138.26 422.42 138.35 421.15 140.33 420.34 138.12 418.06 137.53 419.92 136.08 419.77 133.73 421.73 135.04 423.92 134.18 423.27 136.45 424.77 138.26"/><polygon class="cls-3" points="455.12 214.78 453.61 214.83 452.81 216.1 452.29 214.69 450.83 214.31 452.02 213.38 451.93 211.88 453.17 212.72 454.57 212.17 454.16 213.62 455.12 214.78"/><polygon class="cls-3" points="484.89 125.34 483.38 125.39 482.58 126.66 482.06 125.25 480.61 124.87 481.79 123.95 481.7 122.45 482.94 123.28 484.34 122.73 483.93 124.18 484.89 125.34"/><polygon class="cls-3" points="404.78 194.73 403.28 194.79 402.47 196.06 401.95 194.64 400.5 194.27 401.68 193.34 401.59 191.84 402.84 192.68 404.24 192.13 403.82 193.57 404.78 194.73"/><polygon class="cls-3" points="406.92 263.63 405.42 263.69 404.61 264.95 404.1 263.54 402.64 263.17 403.82 262.24 403.73 260.74 404.98 261.58 406.38 261.03 405.96 262.47 406.92 263.63"/><polygon class="cls-3" points="421.42 226.49 419.06 226.57 417.8 228.56 416.99 226.35 414.71 225.76 416.56 224.31 416.42 221.96 418.37 223.27 420.56 222.41 419.92 224.67 421.42 226.49"/><polygon class="cls-3" points="511.13 145.39 507.58 145.52 505.68 148.51 504.46 145.18 501.02 144.29 503.82 142.1 503.6 138.56 506.54 140.54 509.84 139.24 508.87 142.65 511.13 145.39"/><polygon class="cls-3" points="450.35 271.58 446.81 271.71 444.9 274.7 443.69 271.37 440.25 270.48 443.05 268.3 442.83 264.75 445.77 266.74 449.07 265.43 448.1 268.85 450.35 271.58"/><path class="cls-3" d="M406.92,154.49a.7.7,0,1,1-.7-.68A.69.69,0,0,1,406.92,154.49Z"/><path class="cls-3" d="M401.2,244.46a.7.7,0,1,1-.7-.68A.69.69,0,0,1,401.2,244.46Z"/><path class="cls-3" d="M475.54,203.8a.7.7,0,1,1-.7-.68A.69.69,0,0,1,475.54,203.8Z"/><path class="cls-3" d="M426.52,200.26a1.4,1.4,0,1,1-1.4-1.36A1.38,1.38,0,0,1,426.52,200.26Z"/><path class="cls-3" d="M507.48,168a1.41,1.41,0,1,1-1.4-1.36A1.38,1.38,0,0,1,507.48,168Z"/></g></g></svg>