<svg xmlns="http://www.w3.org/2000/svg" fill="none" viewBox="0 0 219 219">
      <circle cx="109.5" cy="109.5" r="109.5" fill="#001BFF"></circle>
      <path
        fill="#fff"
        stroke="#004085"
        strokeWidth="3"
        d="M51.5 104.602v12.425c0 9.828 1.265 17.514 3.847 24.186 2.582 6.677 6.448 12.246 11.52 17.878 10.323 11.461 24.51 17.13 42.369 17.13 17.922 0 31.997-5.34 42.002-16.19 4.914-5.327 8.692-10.686 11.264-17.246 2.569-6.553 3.901-14.216 4.044-24.113l.001-.011v-12.53c0-20.249-4.982-36.023-15.166-47.092C141.191 47.96 126.978 42.5 108.952 42.5c-17.566 0-31.558 5.47-41.787 16.536-10.213 11.049-15.377 26.3-15.665 45.566z"
      ></path>
      <path
        fill="#00B0FF"
        d="M160.378 105.522c0-20.655-10.824-45.501-51.42-47.516-38.962 0-51.029 26.343-51.29 45.96v12.8c0 20.016 102.45 21.85 102.71 1.674v-12.918z"
      ></path>
      <path
        fill="#004085"
        d="M151.041 110.068c0-20.6-8.856-45.384-42.071-47.394-31.879 0-41.751 26.276-41.964 45.843v17.363c12.203 6.644 59.199 10.683 84.035 1.311v-17.123z"
      ></path>
      <rect width="11" height="11" x="135" y="142" fill="#B04210" rx="1"></rect>
      <rect width="11" height="11" x="121" y="142" fill="#00B0FF" rx="1"></rect>
      <path
        fill="#CBCBCB"
        fillRule="evenodd"
        d="M88.782 143.47a1 1 0 01.883-1.47H116a1 1 0 011 1v9a1 1 0 01-1 1H94.454a1 1 0 01-.883-.53l-4.789-9z"
        clipRule="evenodd"
      ></path>
      <path
        fill="#fff"
        d="M148 84.432c0-5.839-2.653-12.862-12.605-13.432-9.551 0 12.541 22.787 12.605 17.084v-3.652z"
      ></path>
    </svg>