<svg width="134" height="50" viewBox="0 0 134 50" fill="none" xmlns="http://www.w3.org/2000/svg">
<g filter="url(#filter0_d)">
<path d="M35.7143 23.2588C35.7143 18.6655 34.5845 15.1407 32.3248 12.6844C30.0652 10.2281 26.9039 9 22.8408 9C18.8865 9 15.774 10.2281 13.5035 12.6844C11.233 15.1407 10.0652 18.5502 10 22.913V25.7594C10 30.2109 11.1461 32.6376 13.4383 35.1826C15.7306 37.7275 18.8865 39 22.906 39C26.9473 39 30.076 37.7985 32.2922 35.3954C34.5084 32.9923 35.6491 30.6188 35.7143 26.1318V23.2588Z" fill="white"/>
</g>
<path d="M34.6427 23.119C34.6427 18.3789 32.1586 12.6768 22.8421 12.2143C13.9002 12.2143 11.131 18.26 11.0713 22.7621V25.6995C11.0713 30.2931 34.583 30.714 34.6427 26.0838V23.119Z" fill="#00B0FF"/>
<path d="M32.5001 24.1624C32.5001 19.4345 30.4676 13.747 22.845 13.2857C15.5289 13.2857 13.2632 19.3159 13.2144 23.8065V27.7913C16.0149 29.3159 26.8003 30.243 32.5001 28.0921V24.1624Z" fill="#004085"/>
<rect x="28.8188" y="31.4907" width="2.52446" height="2.52446" rx="1" fill="#B04210"/>
<rect x="25.606" y="31.4907" width="2.52446" height="2.52446" rx="1" fill="#00B0FF"/>
<path fill-rule="evenodd" clip-rule="evenodd" d="M18.8142 32.9604C18.4598 32.2943 18.9426 31.4907 19.697 31.4907H23.6876C24.2399 31.4907 24.6876 31.9384 24.6876 32.4907V33.0151C24.6876 33.5674 24.2399 34.0151 23.6876 34.0151H19.9761C19.6064 34.0151 19.2669 33.8112 19.0933 33.4848L18.8142 32.9604Z" fill="#CBCBCB"/>
<path d="M31.8023 18.2789C31.8023 16.939 31.1934 15.3271 28.9096 15.1964C26.7176 15.1964 31.7877 20.4259 31.8023 19.117V18.2789Z" fill="white"/>
<path d="M57.1566 26.3376H54.3825V20.6727H49.1844V26.3376H46.4014V13.2123H49.1844V18.3564H54.3825V13.2123H57.1566V26.3376Z" fill="white"/>
<path d="M72.0239 19.757C72.0239 21.9295 71.4852 23.5994 70.4079 24.7665C69.3306 25.9336 67.7865 26.5171 65.7755 26.5171C63.7645 26.5171 62.2203 25.9336 61.143 24.7665C60.0657 23.5994 59.527 21.9236 59.527 19.739C59.527 17.5544 60.0657 15.8876 61.143 14.7385C62.2263 13.5833 63.7764 13.0058 65.7934 13.0058C67.8104 13.0058 69.3516 13.5863 70.4169 14.7474C71.4882 15.9085 72.0239 17.5784 72.0239 19.757ZM62.4448 19.757C62.4448 21.2233 62.7231 22.3275 63.2797 23.0697C63.8363 23.8119 64.6682 24.1829 65.7755 24.1829C67.9959 24.1829 69.1062 22.7076 69.1062 19.757C69.1062 16.8003 68.0019 15.322 65.7934 15.322C64.6862 15.322 63.8513 15.6961 63.2887 16.4442C62.7261 17.1864 62.4448 18.2906 62.4448 19.757Z" fill="white"/>
<path d="M85.0598 13.2123V21.7051C85.0598 22.6747 84.8413 23.5246 84.4044 24.2547C83.9735 24.9849 83.3481 25.5445 82.5281 25.9336C81.7081 26.3226 80.7386 26.5171 79.6193 26.5171C77.9315 26.5171 76.6208 26.0862 75.6871 25.2243C74.7535 24.3565 74.2866 23.1714 74.2866 21.6692V13.2123H77.0607V21.2472C77.0607 22.2587 77.2642 23.0009 77.6712 23.4737C78.0782 23.9465 78.7515 24.1829 79.6912 24.1829C80.6009 24.1829 81.2593 23.9465 81.6662 23.4737C82.0792 22.9949 82.2857 22.2467 82.2857 21.2293V13.2123H85.0598Z" fill="white"/>
<path d="M95.6538 22.6926C95.6538 23.8777 95.2258 24.8114 94.37 25.4937C93.5201 26.176 92.335 26.5171 90.8148 26.5171C89.4143 26.5171 88.1754 26.2538 87.0981 25.7271V23.1415C87.9839 23.5365 88.732 23.8148 89.3425 23.9764C89.959 24.138 90.5215 24.2188 91.0303 24.2188C91.6408 24.2188 92.1076 24.1021 92.4308 23.8687C92.76 23.6353 92.9246 23.2882 92.9246 22.8273C92.9246 22.5699 92.8527 22.3425 92.7091 22.145C92.5655 21.9415 92.353 21.747 92.0717 21.5615C91.7964 21.3759 91.2308 21.0797 90.3749 20.6727C89.5729 20.2956 88.9714 19.9335 88.5704 19.5864C88.1694 19.2392 87.8492 18.8352 87.6098 18.3744C87.3704 17.9135 87.2507 17.3749 87.2507 16.7584C87.2507 15.5973 87.6427 14.6846 88.4268 14.0202C89.2168 13.3559 90.3061 13.0237 91.6946 13.0237C92.3769 13.0237 93.0263 13.1045 93.6428 13.2661C94.2652 13.4277 94.9146 13.6552 95.5909 13.9484L94.6932 16.112C93.9929 15.8247 93.4123 15.6242 92.9515 15.5105C92.4966 15.3968 92.0477 15.34 91.6049 15.34C91.0782 15.34 90.6742 15.4626 90.3929 15.708C90.1116 15.9534 89.9709 16.2736 89.9709 16.6686C89.9709 16.914 90.0278 17.1295 90.1415 17.315C90.2552 17.4946 90.4348 17.6711 90.6802 17.8447C90.9315 18.0123 91.5211 18.3175 92.4487 18.7604C93.6757 19.347 94.5166 19.9365 94.9715 20.529C95.4263 21.1156 95.6538 21.8368 95.6538 22.6926Z" fill="white"/>
<path d="M102.729 26.3376H99.9454V15.5285H96.3813V13.2123H106.293V15.5285H102.729V26.3376Z" fill="white"/>
<path d="M119.858 19.757C119.858 21.9295 119.32 23.5994 118.242 24.7665C117.165 25.9336 115.621 26.5171 113.61 26.5171C111.599 26.5171 110.055 25.9336 108.977 24.7665C107.9 23.5994 107.361 21.9236 107.361 19.739C107.361 17.5544 107.9 15.8876 108.977 14.7385C110.061 13.5833 111.611 13.0058 113.628 13.0058C115.645 13.0058 117.186 13.5863 118.251 14.7474C119.323 15.9085 119.858 17.5784 119.858 19.757ZM110.279 19.757C110.279 21.2233 110.557 22.3275 111.114 23.0697C111.671 23.8119 112.503 24.1829 113.61 24.1829C115.83 24.1829 116.94 22.7076 116.94 19.757C116.94 16.8003 115.836 15.322 113.628 15.322C112.52 15.322 111.686 15.6961 111.123 16.4442C110.56 17.1864 110.279 18.2906 110.279 19.757Z" fill="white"/>
<path d="M133.855 26.3376H130.317L124.608 16.4083H124.527C124.641 18.1619 124.697 19.4128 124.697 20.1609V26.3376H122.211V13.2123H125.721L131.422 23.0428H131.485C131.395 21.337 131.35 20.131 131.35 19.4248V13.2123H133.855V26.3376Z" fill="white"/>
<path d="M50.765 34.3262C50.765 35.1929 50.5292 35.856 50.0575 36.3157C49.5883 36.7729 48.912 37.0016 48.0286 37.0016H46.5742V31.7514H48.183C48.9994 31.7514 49.6338 31.9777 50.0863 32.4301C50.5387 32.8826 50.765 33.5146 50.765 34.3262ZM50.1186 34.3478C50.1186 33.6631 49.9462 33.1472 49.6015 32.8C49.2591 32.4529 48.7492 32.2793 48.0717 32.2793H47.1847V36.4737H47.928C48.6558 36.4737 49.2029 36.2953 49.5692 35.9386C49.9354 35.5795 50.1186 35.0492 50.1186 34.3478Z" fill="#78909C"/>
<path d="M55.2337 37.0016H52.307V31.7514H55.2337V32.2937H52.9175V33.9851H55.0936V34.5237H52.9175V36.4557H55.2337V37.0016Z" fill="#78909C"/>
<path d="M59.7311 35.6046C59.7311 36.0667 59.5635 36.427 59.2284 36.6855C58.8932 36.9441 58.4383 37.0734 57.8638 37.0734C57.2413 37.0734 56.7625 36.9932 56.4274 36.8328V36.2438C56.6428 36.3348 56.8774 36.4066 57.1312 36.4593C57.385 36.512 57.6363 36.5383 57.8853 36.5383C58.2923 36.5383 58.5987 36.4617 58.8046 36.3085C59.0105 36.1529 59.1135 35.9374 59.1135 35.6621C59.1135 35.4801 59.0764 35.3317 59.0021 35.2168C58.9303 35.0995 58.8082 34.9918 58.6359 34.8936C58.4659 34.7955 58.2061 34.6841 57.8566 34.5596C57.3682 34.3849 57.0187 34.1778 56.808 33.9384C56.5997 33.699 56.4956 33.3866 56.4956 33.0011C56.4956 32.5965 56.6476 32.2745 56.9516 32.0351C57.2557 31.7957 57.6579 31.676 58.1582 31.676C58.6801 31.676 59.1601 31.7718 59.5983 31.9633L59.4079 32.4948C58.9746 32.3128 58.5533 32.2219 58.1439 32.2219C57.8207 32.2219 57.5681 32.2913 57.3862 32.4301C57.2042 32.569 57.1132 32.7617 57.1132 33.0083C57.1132 33.1903 57.1468 33.3399 57.2138 33.4572C57.2808 33.5721 57.3933 33.6786 57.5514 33.7768C57.7118 33.8726 57.9559 33.9791 58.2839 34.0964C58.8346 34.2927 59.2128 34.5034 59.4187 34.7284C59.627 34.9535 59.7311 35.2455 59.7311 35.6046Z" fill="#78909C"/>
<path d="M61.1726 37.0016V31.7514H61.7831V37.0016H61.1726Z" fill="#78909C"/>
<path d="M65.9034 34.2508H67.6882V36.8041C67.4105 36.8926 67.128 36.9597 66.8407 37.0052C66.5534 37.0506 66.2206 37.0734 65.8424 37.0734C65.0476 37.0734 64.4287 36.8376 63.9858 36.3659C63.5429 35.8919 63.3215 35.2288 63.3215 34.3765C63.3215 33.8307 63.4304 33.353 63.6482 32.9437C63.8685 32.5319 64.1845 32.2183 64.5963 32.0028C65.0081 31.785 65.4905 31.676 66.0435 31.676C66.6037 31.676 67.1256 31.779 67.6092 31.9849L67.3722 32.5235C66.8982 32.3224 66.4421 32.2219 66.004 32.2219C65.3648 32.2219 64.8656 32.4122 64.5065 32.7928C64.1474 33.1735 63.9679 33.7014 63.9679 34.3765C63.9679 35.0851 64.1402 35.6226 64.485 35.9889C64.8321 36.3552 65.3408 36.5383 66.0112 36.5383C66.3751 36.5383 66.7306 36.4964 67.0777 36.4126V34.7967H65.9034V34.2508Z" fill="#78909C"/>
<path d="M73.4209 37.0016H72.7243L69.855 32.5953H69.8263C69.8646 33.1124 69.8838 33.5865 69.8838 34.0174V37.0016H69.32V31.7514H70.0094L72.8715 36.1397H72.9002C72.8955 36.0751 72.8847 35.868 72.8679 35.5185C72.8512 35.1665 72.8452 34.9152 72.85 34.7643V31.7514H73.4209V37.0016Z" fill="#78909C"/>
<path d="M80.4731 35.6046C80.4731 36.0667 80.3055 36.427 79.9703 36.6855C79.6351 36.9441 79.1803 37.0734 78.6057 37.0734C77.9833 37.0734 77.5045 36.9932 77.1693 36.8328V36.2438C77.3848 36.3348 77.6194 36.4066 77.8731 36.4593C78.1269 36.512 78.3783 36.5383 78.6273 36.5383C79.0342 36.5383 79.3407 36.4617 79.5466 36.3085C79.7525 36.1529 79.8554 35.9374 79.8554 35.6621C79.8554 35.4801 79.8183 35.3317 79.7441 35.2168C79.6723 35.0995 79.5502 34.9918 79.3778 34.8936C79.2078 34.7955 78.9481 34.6841 78.5985 34.5596C78.1101 34.3849 77.7606 34.1778 77.5499 33.9384C77.3417 33.699 77.2375 33.3866 77.2375 33.0011C77.2375 32.5965 77.3895 32.2745 77.6936 32.0351C77.9976 31.7957 78.3998 31.676 78.9002 31.676C79.4221 31.676 79.9021 31.7718 80.3402 31.9633L80.1499 32.4948C79.7165 32.3128 79.2952 32.2219 78.8858 32.2219C78.5626 32.2219 78.31 32.2913 78.1281 32.4301C77.9462 32.569 77.8552 32.7617 77.8552 33.0083C77.8552 33.1903 77.8887 33.3399 77.9557 33.4572C78.0228 33.5721 78.1353 33.6786 78.2933 33.7768C78.4537 33.8726 78.6979 33.9791 79.0259 34.0964C79.5765 34.2927 79.9548 34.5034 80.1606 34.7284C80.3689 34.9535 80.4731 35.2455 80.4731 35.6046Z" fill="#78909C"/>
<path d="M83.2504 34.3765L84.6509 31.7514H85.3116L83.5592 34.9654V37.0016H82.9416V34.9942L81.1927 31.7514H81.8606L83.2504 34.3765Z" fill="#78909C"/>
<path d="M89.3674 35.6046C89.3674 36.0667 89.1998 36.427 88.8646 36.6855C88.5295 36.9441 88.0746 37.0734 87.5 37.0734C86.8776 37.0734 86.3988 36.9932 86.0636 36.8328V36.2438C86.2791 36.3348 86.5137 36.4066 86.7675 36.4593C87.0212 36.512 87.2726 36.5383 87.5216 36.5383C87.9286 36.5383 88.235 36.4617 88.4409 36.3085C88.6468 36.1529 88.7497 35.9374 88.7497 35.6621C88.7497 35.4801 88.7126 35.3317 88.6384 35.2168C88.5666 35.0995 88.4445 34.9918 88.2721 34.8936C88.1021 34.7955 87.8424 34.6841 87.4929 34.5596C87.0045 34.3849 86.6549 34.1778 86.4443 33.9384C86.236 33.699 86.1318 33.3866 86.1318 33.0011C86.1318 32.5965 86.2839 32.2745 86.5879 32.0351C86.892 31.7957 87.2941 31.676 87.7945 31.676C88.3164 31.676 88.7964 31.7718 89.2345 31.9633L89.0442 32.4948C88.6109 32.3128 88.1895 32.2219 87.7801 32.2219C87.4569 32.2219 87.2044 32.2913 87.0224 32.4301C86.8405 32.569 86.7495 32.7617 86.7495 33.0083C86.7495 33.1903 86.783 33.3399 86.8501 33.4572C86.9171 33.5721 87.0296 33.6786 87.1876 33.7768C87.348 33.8726 87.5922 33.9791 87.9202 34.0964C88.4708 34.2927 88.8491 34.5034 89.055 34.7284C89.2632 34.9535 89.3674 35.2455 89.3674 35.6046Z" fill="#78909C"/>
<path d="M92.4248 37.0016H91.8143V32.2937H90.1517V31.7514H94.0875V32.2937H92.4248V37.0016Z" fill="#78909C"/>
<path d="M98.1755 37.0016H95.2488V31.7514H98.1755V32.2937H95.8593V33.9851H98.0355V34.5237H95.8593V36.4557H98.1755V37.0016Z" fill="#78909C"/>
<path d="M102.034 37.0016L100.253 32.3476H100.224C100.257 32.7162 100.274 33.1543 100.274 33.6619V37.0016H99.7103V31.7514H100.63L102.292 36.0822H102.321L103.998 31.7514H104.91V37.0016H104.3V33.6188C104.3 33.231 104.316 32.8096 104.35 32.3547H104.321L102.526 37.0016H102.034Z" fill="#78909C"/>
<defs>
<filter id="filter0_d" x="0" y="0" width="45.7143" height="50" filterUnits="userSpaceOnUse" color-interpolation-filters="sRGB">
<feFlood flood-opacity="0" result="BackgroundImageFix"/>
<feColorMatrix in="SourceAlpha" type="matrix" values="0 0 0 0 0 0 0 0 0 0 0 0 0 0 0 0 0 0 127 0"/>
<feOffset dy="1"/>
<feGaussianBlur stdDeviation="5"/>
<feColorMatrix type="matrix" values="0 0 0 0 0.7125 0 0 0 0 0.7125 0 0 0 0 0.7125 0 0 0 1 0"/>
<feBlend mode="normal" in2="BackgroundImageFix" result="effect1_dropShadow"/>
<feBlend mode="normal" in="SourceGraphic" in2="effect1_dropShadow" result="shape"/>
</filter>
</defs>
</svg>
