<svg width="192" height="192" viewBox="0 0 192 192" fill="none" xmlns="http://www.w3.org/2000/svg">
<path fill-rule="evenodd" clip-rule="evenodd" d="M96 164C133.555 164 164 133.555 164 96C164 58.4446 133.555 28 96 28C58.4446 28 28 58.4446 28 96C28 133.555 58.4446 164 96 164ZM96 176C140.183 176 176 140.183 176 96C176 51.8172 140.183 16 96 16C51.8172 16 16 51.8172 16 96C16 140.183 51.8172 176 96 176Z" fill="#546E7A"/>
<path d="M97.4664 111.788C99.5472 111.788 101.263 110.381 101.367 108.589L103.995 63.5374C104.107 61.6132 102.328 60 100.094 60H91.9059C89.6702 60 87.8907 61.6153 88.0052 63.5407L90.6845 108.593C90.7911 110.383 92.5058 111.788 94.5852 111.788H97.4664Z" fill="#546E7A"/>
<path d="M96 131C100.418 131 104 127.634 104 123.482C104 119.33 100.418 115.965 96 115.965C91.5817 115.965 88 119.33 88 123.482C88 127.634 91.5817 131 96 131Z" fill="#546E7A"/>
</svg>
