<svg width="94" height="129" viewBox="0 0 94 129" fill="none" xmlns="http://www.w3.org/2000/svg">
<path d="M0.962891 0.503906H39.1074C56.8027 0.503906 69.5762 3.08203 77.4277 8.23828C85.3379 13.3945 89.293 21.5391 89.293 32.6719C89.293 40.1719 87.3594 46.4121 83.4922 51.3926C79.625 56.373 74.0586 59.5078 66.793 60.7969V61.6758C75.8164 63.375 82.4375 66.7441 86.6562 71.7832C90.9336 76.7637 93.0723 83.5312 93.0723 92.0859C93.0723 103.629 89.0293 112.682 80.9434 119.244C72.916 125.748 61.7246 129 47.3691 129H0.962891V0.503906ZM21.9688 53.5898H42.1836C50.9727 53.5898 57.3887 52.2129 61.4316 49.459C65.4746 46.6465 67.4961 41.9004 67.4961 35.2207C67.4961 29.1855 65.2988 24.8203 60.9043 22.125C56.5684 19.4297 49.6543 18.082 40.1621 18.082H21.9688V53.5898ZM21.9688 70.6406V111.334H44.293C53.082 111.334 59.7031 109.664 64.1562 106.324C68.668 102.926 70.9238 97.5938 70.9238 90.3281C70.9238 83.6484 68.6387 78.6973 64.0684 75.4746C59.498 72.252 52.5547 70.6406 43.2383 70.6406H21.9688Z" fill="#0D47A1"/>
</svg>
