<svg width="937" height="264" viewBox="0 0 937 264" fill="none" xmlns="http://www.w3.org/2000/svg">
<path fill-rule="evenodd" clip-rule="evenodd" d="M39 185C39 181.686 41.6863 179 45 179H167C170.314 179 173 181.686 173 185C173 188.314 170.314 191 167 191H45C41.6863 191 39 188.314 39 185Z" fill="#546E7A"/>
<path fill-rule="evenodd" clip-rule="evenodd" d="M184 161V141.136C175.91 136.825 170.413 128.296 170.413 118.5C170.413 108.704 175.91 100.176 184 95.8647L184 76L72 76L72 95.8647C80.09 100.176 85.5872 108.704 85.5872 118.5C85.5872 128.296 80.09 136.825 72 141.136L72 161L184 161ZM60 132.125L60 166.187C60 169.95 63.0442 173 66.7994 173L189.201 173C192.956 173 196 169.95 196 166.188V132.125C188.495 132.119 182.413 126.021 182.413 118.5C182.413 110.979 188.495 104.881 196 104.875L196 70.8125C196 67.0501 192.956 64 189.201 64L66.7994 64C63.0442 64 60 67.0501 60 70.8125L60 104.875C67.5051 104.881 73.5872 110.979 73.5872 118.5C73.5872 126.021 67.5051 132.119 60 132.125Z" fill="#546E7A"/>
<path fill-rule="evenodd" clip-rule="evenodd" d="M43 131C46.3137 131 49 133.686 49 137V185C49 188.314 46.3137 191 43 191C39.6863 191 37 188.314 37 185V137C37 133.686 39.6863 131 43 131Z" fill="#546E7A"/>
<path d="M142 115C142 111.686 144.686 109 148 109C151.314 109 154 111.686 154 115V121C154 124.314 151.314 127 148 127C144.686 127 142 124.314 142 121V115Z" fill="#546E7A"/>
<path d="M142 91C142 87.6863 144.686 85 148 85C151.314 85 154 87.6863 154 91V97C154 100.314 151.314 103 148 103C144.686 103 142 100.314 142 97V91Z" fill="#546E7A"/>
<path d="M142 139C142 135.686 144.686 133 148 133C151.314 133 154 135.686 154 139V145C154 148.314 151.314 151 148 151C144.686 151 142 148.314 142 145V139Z" fill="#546E7A"/>
<path fill-rule="evenodd" clip-rule="evenodd" d="M489 185C489 181.686 491.686 179 495 179H617C620.314 179 623 181.686 623 185C623 188.314 620.314 191 617 191H495C491.686 191 489 188.314 489 185Z" fill="white"/>
<path fill-rule="evenodd" clip-rule="evenodd" d="M634 161V141.136C625.91 136.825 620.413 128.296 620.413 118.5C620.413 108.704 625.91 100.176 634 95.8647L634 76L522 76L522 95.8647C530.09 100.176 535.587 108.704 535.587 118.5C535.587 128.296 530.09 136.825 522 141.136L522 161L634 161ZM510 132.125L510 166.187C510 169.95 513.044 173 516.799 173L639.201 173C642.956 173 646 169.95 646 166.188V132.125C638.495 132.119 632.413 126.021 632.413 118.5C632.413 110.979 638.495 104.881 646 104.875L646 70.8125C646 67.0501 642.956 64 639.201 64L516.799 64C513.044 64 510 67.0501 510 70.8125L510 104.875C517.505 104.881 523.587 110.979 523.587 118.5C523.587 126.021 517.505 132.119 510 132.125Z" fill="white"/>
<path fill-rule="evenodd" clip-rule="evenodd" d="M493 131C496.314 131 499 133.686 499 137V185C499 188.314 496.314 191 493 191C489.686 191 487 188.314 487 185V137C487 133.686 489.686 131 493 131Z" fill="white"/>
<path d="M592 115C592 111.686 594.686 109 598 109C601.314 109 604 111.686 604 115V121C604 124.314 601.314 127 598 127C594.686 127 592 124.314 592 121V115Z" fill="white"/>
<path d="M592 91C592 87.6863 594.686 85 598 85C601.314 85 604 87.6863 604 91V97C604 100.314 601.314 103 598 103C594.686 103 592 100.314 592 97V91Z" fill="white"/>
<path d="M592 139C592 135.686 594.686 133 598 133C601.314 133 604 135.686 604 139V145C604 148.314 601.314 151 598 151C594.686 151 592 148.314 592 145V139Z" fill="white"/>
<path fill-rule="evenodd" clip-rule="evenodd" d="M414.201 173C417.956 173 421 169.95 421 166.188V132.125C413.495 132.119 407.413 126.021 407.413 118.5C407.413 110.979 413.495 104.881 421 104.875L421 70.8125C421 67.0501 417.956 64 414.201 64L291.799 64C288.044 64 285 67.0501 285 70.8125L285 104.875C292.505 104.881 298.587 110.979 298.587 118.5C298.587 126.021 292.505 132.119 285 132.125L285 166.187C285 169.95 288.044 173 291.799 173L414.201 173ZM370.036 87.9168C370.036 84.1576 373.078 81.1101 376.83 81.1101C380.582 81.1101 383.624 84.1576 383.624 87.9168V94.7235C383.624 98.4827 380.582 101.53 376.83 101.53C373.078 101.53 370.036 98.4827 370.036 94.7235V87.9168ZM370.036 115.143C370.036 111.384 373.078 108.337 376.83 108.337C380.582 108.337 383.624 111.384 383.624 115.143V121.95C383.624 125.709 380.582 128.757 376.83 128.757C373.078 128.757 370.036 125.709 370.036 121.95V115.143ZM370.036 142.37C370.036 138.611 373.078 135.563 376.83 135.563C380.582 135.563 383.624 138.611 383.624 142.37V149.177C383.624 152.936 380.582 155.983 376.83 155.983C373.078 155.983 370.036 152.936 370.036 149.177V142.37Z" fill="#546E7A"/>
<path fill-rule="evenodd" clip-rule="evenodd" d="M267 131C270.314 131 273 133.686 273 137V185C273 188.314 270.314 191 267 191C263.686 191 261 188.314 261 185V137C261 133.686 263.686 131 267 131Z" fill="#546E7A"/>
<path fill-rule="evenodd" clip-rule="evenodd" d="M263 185C263 181.686 265.686 179 269 179H391C394.314 179 397 181.686 397 185C397 188.314 394.314 191 391 191H269C265.686 191 263 188.314 263 185Z" fill="#546E7A"/>
<path fill-rule="evenodd" clip-rule="evenodd" d="M864.201 173C867.956 173 871 169.95 871 166.188V132.125C863.495 132.119 857.413 126.021 857.413 118.5C857.413 110.979 863.495 104.881 871 104.875L871 70.8125C871 67.0501 867.956 64 864.201 64L741.799 64C738.044 64 735 67.0501 735 70.8125L735 104.875C742.505 104.881 748.587 110.979 748.587 118.5C748.587 126.021 742.505 132.119 735 132.125L735 166.187C735 169.95 738.044 173 741.799 173L864.201 173ZM820.036 87.9168C820.036 84.1576 823.078 81.1101 826.83 81.1101C830.582 81.1101 833.624 84.1576 833.624 87.9168V94.7235C833.624 98.4827 830.582 101.53 826.83 101.53C823.078 101.53 820.036 98.4827 820.036 94.7235V87.9168ZM820.036 115.143C820.036 111.384 823.078 108.337 826.83 108.337C830.582 108.337 833.624 111.384 833.624 115.143V121.95C833.624 125.709 830.582 128.757 826.83 128.757C823.078 128.757 820.036 125.709 820.036 121.95V115.143ZM820.036 142.37C820.036 138.611 823.078 135.563 826.83 135.563C830.582 135.563 833.624 138.611 833.624 142.37V149.177C833.624 152.936 830.582 155.983 826.83 155.983C823.078 155.983 820.036 152.936 820.036 149.177V142.37Z" fill="white"/>
<path fill-rule="evenodd" clip-rule="evenodd" d="M717 131C720.314 131 723 133.686 723 137V185C723 188.314 720.314 191 717 191C713.686 191 711 188.314 711 185V137C711 133.686 713.686 131 717 131Z" fill="white"/>
<path fill-rule="evenodd" clip-rule="evenodd" d="M713 185C713 181.686 715.686 179 719 179H841C844.314 179 847 181.686 847 185C847 188.314 844.314 191 841 191H719C715.686 191 713 188.314 713 185Z" fill="white"/>
<rect x="0.5" y="0.5" width="936" height="263" rx="4.5" stroke="#7B61FF" stroke-dasharray="10 5"/>
</svg>
