<svg width="192" height="192" viewBox="0 0 192 192" fill="none" xmlns="http://www.w3.org/2000/svg">
<path fill-rule="evenodd" clip-rule="evenodd" d="M101 116.113L106.909 112.632C114.171 108.354 119 100.484 119 91.5C119 77.969 108.031 67 94.5 67C80.969 67 70 77.969 70 91.5C70 100.484 74.8292 108.354 82.091 112.632L88 116.113V136H101V116.113ZM113 122.971V142.98C113 145.753 109.988 148 106.273 148H82.7273C79.0119 148 76 145.753 76 142.98V122.971C65.2281 116.625 58 104.907 58 91.5C58 71.3416 74.3416 55 94.5 55C114.658 55 131 71.3416 131 91.5C131 104.907 123.772 116.625 113 122.971Z" fill="#546E7A"/>
<path d="M81 160H109V168C109 172.419 105.418 176 101 176H89C84.5817 176 81 172.419 81 168V160Z" fill="#546E7A"/>
<path fill-rule="evenodd" clip-rule="evenodd" d="M16 89C16 85.6863 18.6863 83 22 83H36C39.3137 83 42 85.6863 42 89C42 92.3137 39.3137 95 36 95H22C18.6863 95 16 92.3137 16 89Z" fill="#546E7A"/>
<path fill-rule="evenodd" clip-rule="evenodd" d="M40.2427 38.7574C42.5859 36.4143 46.3848 36.4143 48.728 38.7574L58.6275 48.6569C60.9706 51.0001 60.9706 54.799 58.6275 57.1422C56.2843 59.4853 52.4854 59.4853 50.1422 57.1422L40.2427 47.2427C37.8996 44.8995 37.8996 41.1006 40.2427 38.7574Z" fill="#546E7A"/>
<path fill-rule="evenodd" clip-rule="evenodd" d="M96 42C92.6863 42 90 39.3137 90 36V22C90 18.6863 92.6863 16 96 16C99.3137 16 102 18.6863 102 22V36C102 39.3137 99.3137 42 96 42Z" fill="#546E7A"/>
<path fill-rule="evenodd" clip-rule="evenodd" d="M134.757 57.1422C132.414 54.799 132.414 51 134.757 48.6569L144.657 38.7574C147 36.4143 150.799 36.4143 153.142 38.7574C155.485 41.1005 155.485 44.8995 153.142 47.2427L143.243 57.1422C140.899 59.4853 137.1 59.4853 134.757 57.1422Z" fill="#546E7A"/>
<path fill-rule="evenodd" clip-rule="evenodd" d="M150 89C150 85.6863 152.686 83 156 83H170C173.314 83 176 85.6863 176 89C176 92.3137 173.314 95 170 95H156C152.686 95 150 92.3137 150 89Z" fill="#546E7A"/>
</svg>
