<svg width="192" height="192" viewBox="0 0 192 192" fill="none" xmlns="http://www.w3.org/2000/svg">
<path fill-rule="evenodd" clip-rule="evenodd" d="M35.2427 35.2426C37.5859 32.8995 41.3848 32.8995 43.728 35.2426L156.247 147.761C158.59 150.105 158.59 153.904 156.247 156.247C153.904 158.59 150.105 158.59 147.762 156.247L35.2427 43.7279C32.8996 41.3848 32.8996 37.5858 35.2427 35.2426Z" fill="#546E7A"/>
<path fill-rule="evenodd" clip-rule="evenodd" d="M57.0243 49.5095C37.833 58.9995 22.9751 75.2792 16 94.9853C27.2123 126.662 58.7932 149.485 96 149.485C113.52 149.485 129.792 144.425 143.277 135.763L135.361 127.846C124.026 134.627 110.545 138.585 96 138.585C64.7317 138.585 38.3823 120.293 27.6943 94.9853C34.6135 78.6017 48.0966 65.1579 65.2289 57.7142L57.0243 49.5095ZM76.0103 68.4956C68.6887 74.3599 64 83.375 64 93.4853C64 111.158 78.3269 125.485 96 125.485C106.11 125.485 115.125 120.797 120.99 113.475L112.421 104.906C108.807 110.092 102.8 113.485 96 113.485C84.9543 113.485 76 104.531 76 93.4853C76 86.6854 79.3935 80.6782 84.5793 77.0646L76.0103 68.4956ZM98.0771 73.5918L87.1967 62.7114C89.9935 61.9129 92.9468 61.4853 96 61.4853C113.673 61.4853 128 75.8122 128 93.4853C128 96.5385 127.572 99.4918 126.774 102.289L115.893 91.4082C114.925 82.0213 107.464 74.5604 98.0771 73.5918ZM145.248 120.762C153.564 113.689 160.13 104.873 164.306 94.9853C153.618 69.6779 127.268 51.3853 96 51.3853C89.7639 51.3853 83.7235 52.1129 77.9639 53.4786L69.1154 44.6301C77.5594 41.942 86.6002 40.4853 96 40.4853C133.207 40.4853 164.788 63.3084 176 94.9853C171.407 107.961 163.396 119.451 152.981 128.496L145.248 120.762Z" fill="#546E7A"/>
</svg>
