<svg xmlns="http://www.w3.org/2000/svg" xmlns:xlink="http://www.w3.org/1999/xlink" viewBox="0 0 512 270"><defs><style>.cls-1,.cls-20{fill:none;}.cls-2{clip-path:url(#clip-path);}.cls-3{fill:#f9fafb;}.cls-4{fill:#cdebfa;}.cls-24,.cls-5{fill:#fff;}.cls-6{fill:#f48fb1;}.cls-7{fill:#0d47a1;}.cls-8{fill:#86b1f2;}.cls-9{fill:#fae0b2;}.cls-10{fill:#f7cc7f;}.cls-11{fill:#0faefd;}.cls-12{fill:#d4d4d4;}.cls-13{fill:#c2c2c2;}.cls-14{fill:#d9d9d9;}.cls-15,.cls-22{fill:#c9c9c9;}.cls-16{fill:#c7c7c7;}.cls-17{fill:#ebebeb;}.cls-18{fill:#b0b0b0;}.cls-19{fill:#004083;}.cls-20{stroke:#f1f1f1;stroke-miterlimit:10;stroke-width:2.07px;}.cls-21{fill:#ae4210;}.cls-22{fill-rule:evenodd;}.cls-23{fill:#c69c6d;}.cls-24{opacity:0.57;}.cls-25{clip-path:url(#clip-path-2);}</style><clipPath id="clip-path"><rect class="cls-1" y="-1" width="513" height="272"/></clipPath><clipPath id="clip-path-2"><rect class="cls-1" x="531.68" width="513" height="272"/></clipPath></defs><g id="Personagem"><g class="cls-2"><rect class="cls-3" x="-6" y="-5" width="526" height="282"/><path class="cls-4" d="M411.41,195.79c7.94,5.2,10.47,16.61,6.75,25.35s-12.59,14.62-21.93,16.28S373,235,363.84,232.49c-10.43-2.9-21,3.53-29.45,10.35s-17.13,14.72-27.93,15.43c-21.11,1.37-36.5-25.14-57.56-23.34-20.86,1.79-34.47,30.7-55,26.42-11.35-2.37-18-14.2-28-20-10.72-6.17-23.94-4.83-36.31-4.74s-26.44-2.2-33.27-12.51c-5.91-8.92-4.27-20.82-.84-31s8.44-20,8.67-30.74c.31-14.23-7.81-27-13.53-40s-8.69-29.58.5-40.43c13-15.31,41.14-9.08,53.45-24.92,9-11.58,5.24-30.27,15.85-40.4,8.36-8,22-6.76,32.65-2.23s20.16,11.77,31.35,14.7,25.48-.35,29.66-11.13c3.33-8.61,15.78-13.24,23.78-8.64s12.31,13.5,16.43,21.75S303.44,48,312,51.58c9.1,3.77,19.61.48,28.22-4.3s16.55-11.09,26-13.91,21.36-.94,26.34,7.56c9,15.32-10.91,36.63-1.2,51.49,7.53,11.51,25.17,8,37.88,13.26,13.37,5.5,20.41,22.82,14.66,36.09-3.35,7.74-10,13.46-16.44,19s-13,11.39-16,19.27S404.34,191.17,411.41,195.79Z"/><polygon class="cls-5" points="63.57 50.26 61.22 50.35 59.95 52.33 59.14 50.12 56.86 49.53 58.72 48.08 58.57 45.73 60.53 47.05 62.72 46.18 62.07 48.45 63.57 50.26"/><polygon class="cls-5" points="93.92 126.78 92.41 126.83 91.61 128.1 91.09 126.69 89.64 126.31 90.82 125.39 90.73 123.89 91.97 124.72 93.37 124.17 92.96 125.62 93.92 126.78"/><polygon class="cls-5" points="123.69 37.34 122.18 37.39 121.38 38.66 120.86 37.25 119.41 36.87 120.59 35.95 120.5 34.45 121.74 35.28 123.14 34.73 122.73 36.18 123.69 37.34"/><polygon class="cls-5" points="43.58 106.73 42.08 106.79 41.27 108.06 40.76 106.64 39.3 106.27 40.48 105.34 40.39 103.84 41.64 104.68 43.04 104.13 42.62 105.57 43.58 106.73"/><polygon class="cls-5" points="45.72 175.63 44.22 175.69 43.41 176.95 42.9 175.54 41.44 175.17 42.62 174.24 42.53 172.74 43.78 173.58 45.17 173.03 44.76 174.47 45.72 175.63"/><polygon class="cls-5" points="60.22 138.49 57.86 138.57 56.6 140.56 55.79 138.35 53.51 137.76 55.36 136.31 55.22 133.96 57.17 135.27 59.36 134.41 58.72 136.67 60.22 138.49"/><polygon class="cls-5" points="149.93 57.39 146.38 57.52 144.48 60.51 143.26 57.18 139.82 56.29 142.62 54.1 142.4 50.56 145.34 52.54 148.64 51.24 147.67 54.65 149.93 57.39"/><polygon class="cls-5" points="89.15 183.58 85.61 183.71 83.7 186.7 82.49 183.37 79.05 182.48 81.85 180.3 81.63 176.75 84.57 178.74 87.87 177.43 86.9 180.84 89.15 183.58"/><polygon class="cls-5" points="247.11 97.72 249.47 97.8 250.73 99.79 251.54 97.58 253.82 96.99 251.96 95.54 252.11 93.19 250.16 94.5 247.96 93.64 248.61 95.9 247.11 97.72"/><polygon class="cls-5" points="265.28 220.8 266.78 220.85 267.59 222.12 268.1 220.71 269.56 220.33 268.37 219.41 268.47 217.91 267.22 218.75 265.82 218.19 266.23 219.64 265.28 220.8"/><polygon class="cls-5" points="293.68 110.76 295.18 110.82 295.98 112.08 296.5 110.67 297.95 110.3 296.77 109.37 296.86 107.87 295.62 108.71 294.22 108.16 294.63 109.6 293.68 110.76"/><polygon class="cls-5" points="333.78 89.16 335.29 89.21 336.09 90.48 336.61 89.07 338.06 88.69 336.88 87.77 336.97 86.27 335.73 87.11 334.33 86.56 334.74 88 333.78 89.16"/><polygon class="cls-5" points="341.57 152.42 343.07 152.47 343.88 153.74 344.4 152.33 345.85 151.95 344.67 151.03 344.76 149.52 343.51 150.36 342.12 149.81 342.53 151.26 341.57 152.42"/><polygon class="cls-5" points="319.94 130.97 322.29 131.05 323.56 133.04 324.37 130.83 326.64 130.24 324.79 128.79 324.94 126.44 322.98 127.75 320.79 126.89 321.44 129.15 319.94 130.97"/><polygon class="cls-5" points="273.38 126.84 276.92 126.97 278.83 129.96 280.05 126.63 283.48 125.75 280.69 123.56 280.91 120.02 277.96 122 274.66 120.7 275.64 124.11 273.38 126.84"/><polygon class="cls-5" points="262.37 187.57 265.91 187.7 267.82 190.69 269.03 187.36 272.47 186.48 269.68 184.29 269.89 180.75 266.95 182.73 263.65 181.43 264.63 184.84 262.37 187.57"/><path class="cls-5" d="M45.72,66.49a.7.7,0,1,1-.7-.68A.69.69,0,0,1,45.72,66.49Z"/><path class="cls-5" d="M312.9,33.63a.7.7,0,1,1-.7-.68A.69.69,0,0,1,312.9,33.63Z"/><path class="cls-5" d="M354.68,185.72a.7.7,0,1,1-.7-.68A.69.69,0,0,1,354.68,185.72Z"/><path class="cls-5" d="M267.28,153.81a.7.7,0,1,1-.7-.68A.69.69,0,0,1,267.28,153.81Z"/><path class="cls-5" d="M262,117.55a.7.7,0,1,1-.7-.68A.69.69,0,0,1,262,117.55Z"/><path class="cls-5" d="M223.53,28.68a.7.7,0,1,1-.7-.68A.69.69,0,0,1,223.53,28.68Z"/><path class="cls-5" d="M40,156.46a.7.7,0,1,1-.7-.68A.69.69,0,0,1,40,156.46Z"/><path class="cls-5" d="M114.34,115.8a.7.7,0,1,1-.7-.68A.69.69,0,0,1,114.34,115.8Z"/><path class="cls-5" d="M248.12,187.57a.7.7,0,1,1-.7-.68A.69.69,0,0,1,248.12,187.57Z"/><path class="cls-5" d="M107.77,205.54a.7.7,0,1,1-.7-.68A.69.69,0,0,1,107.77,205.54Z"/><path class="cls-5" d="M65.32,112.26a1.4,1.4,0,1,1-1.4-1.36A1.38,1.38,0,0,1,65.32,112.26Z"/><path class="cls-5" d="M241,221.1a1.4,1.4,0,1,1-1.4-1.36A1.38,1.38,0,0,1,241,221.1Z"/><path class="cls-5" d="M146.28,80a1.41,1.41,0,1,1-1.4-1.36A1.38,1.38,0,0,1,146.28,80Z"/><path class="cls-5" d="M169.86,33.63a1.4,1.4,0,1,1-1.4-1.36A1.38,1.38,0,0,1,169.86,33.63Z"/><ellipse class="cls-5" cx="341.57" cy="49.26" rx="1.4" ry="1.36"/><path class="cls-5" d="M345.11,120a1.4,1.4,0,1,1-1.4-1.36A1.38,1.38,0,0,1,345.11,120Z"/><path class="cls-5" d="M312.2,230.28a1.4,1.4,0,1,1-1.4-1.37A1.38,1.38,0,0,1,312.2,230.28Z"/><path class="cls-5" d="M131.22,231.64a1.4,1.4,0,1,1-1.4-1.36A1.38,1.38,0,0,1,131.22,231.64Z"/><path class="cls-5" d="M66.72,215.35a1.4,1.4,0,1,1-1.4-1.36A1.38,1.38,0,0,1,66.72,215.35Z"/><polygon class="cls-5" points="263.57 114.26 261.22 114.35 259.95 116.33 259.14 114.12 256.86 113.53 258.72 112.08 258.57 109.73 260.53 111.05 262.72 110.18 262.07 112.45 263.57 114.26"/><polygon class="cls-5" points="293.92 190.78 292.41 190.83 291.61 192.1 291.09 190.69 289.63 190.31 290.82 189.38 290.73 187.88 291.97 188.72 293.37 188.17 292.96 189.62 293.92 190.78"/><polygon class="cls-5" points="323.69 101.34 322.18 101.39 321.38 102.66 320.86 101.25 319.41 100.87 320.59 99.95 320.5 98.45 321.74 99.28 323.14 98.73 322.73 100.18 323.69 101.34"/><polygon class="cls-5" points="243.58 170.73 242.08 170.79 241.27 172.06 240.75 170.64 239.3 170.27 240.48 169.34 240.39 167.84 241.64 168.68 243.04 168.13 242.62 169.57 243.58 170.73"/><polygon class="cls-5" points="245.72 239.63 244.22 239.69 243.41 240.95 242.9 239.54 241.44 239.17 242.62 238.24 242.53 236.74 243.78 237.58 245.18 237.03 244.76 238.47 245.72 239.63"/><polygon class="cls-5" points="260.22 202.49 257.86 202.57 256.6 204.56 255.79 202.35 253.51 201.76 255.36 200.31 255.22 197.96 257.17 199.27 259.36 198.41 258.72 200.67 260.22 202.49"/><polygon class="cls-5" points="349.93 121.39 346.38 121.52 344.48 124.51 343.26 121.18 339.82 120.29 342.62 118.1 342.4 114.56 345.34 116.54 348.64 115.24 347.67 118.65 349.93 121.39"/><polygon class="cls-5" points="289.15 247.58 285.61 247.71 283.7 250.7 282.49 247.37 279.05 246.48 281.85 244.3 281.63 240.75 284.57 242.74 287.87 241.43 286.9 244.84 289.15 247.58"/><polygon class="cls-5" points="447.11 161.72 449.46 161.8 450.73 163.79 451.54 161.58 453.82 160.99 451.96 159.54 452.11 157.19 450.15 158.5 447.96 157.63 448.61 159.9 447.11 161.72"/><polygon class="cls-5" points="493.68 174.76 495.18 174.82 495.98 176.08 496.5 174.67 497.95 174.3 496.77 173.37 496.86 171.87 495.62 172.71 494.22 172.16 494.63 173.6 493.68 174.76"/><polygon class="cls-5" points="473.38 190.84 476.92 190.97 478.83 193.96 480.05 190.63 483.48 189.75 480.69 187.56 480.91 184.02 477.96 186 474.66 184.7 475.64 188.11 473.38 190.84"/><polygon class="cls-5" points="462.37 251.57 465.91 251.7 467.82 254.69 469.03 251.36 472.47 250.48 469.68 248.29 469.89 244.75 466.95 246.73 463.65 245.43 464.63 248.84 462.37 251.57"/><path class="cls-5" d="M245.72,130.49a.7.7,0,1,1-.7-.68A.69.69,0,0,1,245.72,130.49Z"/><path class="cls-5" d="M512.9,97.63a.7.7,0,1,1-.7-.68A.69.69,0,0,1,512.9,97.63Z"/><path class="cls-5" d="M467.28,217.81a.7.7,0,1,1-.7-.68A.69.69,0,0,1,467.28,217.81Z"/><path class="cls-5" d="M462,181.55a.7.7,0,1,1-.7-.68A.69.69,0,0,1,462,181.55Z"/><path class="cls-5" d="M423.53,92.68a.7.7,0,1,1-.7-.68A.69.69,0,0,1,423.53,92.68Z"/><path class="cls-5" d="M240,220.46a.7.7,0,1,1-.7-.68A.69.69,0,0,1,240,220.46Z"/><path class="cls-5" d="M314.34,179.8a.7.7,0,1,1-.7-.68A.69.69,0,0,1,314.34,179.8Z"/><path class="cls-5" d="M448.12,251.57a.7.7,0,1,1-.7-.68A.69.69,0,0,1,448.12,251.57Z"/><path class="cls-5" d="M307.77,269.54a.7.7,0,1,1-.7-.68A.69.69,0,0,1,307.77,269.54Z"/><path class="cls-5" d="M265.32,176.26a1.4,1.4,0,1,1-1.4-1.36A1.38,1.38,0,0,1,265.32,176.26Z"/><path class="cls-5" d="M346.28,144a1.41,1.41,0,1,1-1.4-1.36A1.38,1.38,0,0,1,346.28,144Z"/><path class="cls-5" d="M369.86,97.63a1.4,1.4,0,1,1-1.4-1.36A1.38,1.38,0,0,1,369.86,97.63Z"/><polygon class="cls-5" points="289.92 21.78 288.41 21.83 287.61 23.1 287.09 21.69 285.63 21.31 286.82 20.39 286.73 18.89 287.97 19.72 289.37 19.17 288.96 20.62 289.92 21.78"/><polygon class="cls-5" points="239.58 1.73 238.08 1.79 237.27 3.06 236.75 1.64 235.3 1.27 236.48 0.34 236.39 -1.16 237.64 -0.32 239.04 -0.87 238.62 0.57 239.58 1.73"/><polygon class="cls-5" points="241.72 70.63 240.22 70.69 239.41 71.95 238.9 70.54 237.44 70.17 238.62 69.24 238.53 67.74 239.78 68.58 241.18 68.03 240.76 69.47 241.72 70.63"/><polygon class="cls-5" points="256.22 33.49 253.86 33.57 252.6 35.56 251.79 33.35 249.51 32.76 251.36 31.31 251.22 28.95 253.17 30.27 255.36 29.41 254.72 31.67 256.22 33.49"/><polygon class="cls-5" points="285.15 78.58 281.61 78.71 279.7 81.7 278.49 78.37 275.05 77.48 277.85 75.3 277.63 71.75 280.57 73.73 283.87 72.43 282.9 75.84 285.15 78.58"/><polygon class="cls-5" points="461.28 115.8 462.78 115.85 463.59 117.12 464.1 115.71 465.56 115.33 464.37 114.41 464.47 112.91 463.22 113.75 461.82 113.19 462.23 114.64 461.28 115.8"/><polygon class="cls-5" points="489.68 5.76 491.18 5.82 491.98 7.08 492.5 5.67 493.95 5.3 492.77 4.37 492.86 2.87 491.62 3.71 490.22 3.16 490.63 4.6 489.68 5.76"/><polygon class="cls-5" points="469.38 21.84 472.92 21.97 474.83 24.96 476.05 21.63 479.48 20.75 476.69 18.56 476.91 15.02 473.96 17 470.66 15.7 471.64 19.11 469.38 21.84"/><polygon class="cls-5" points="458.37 82.57 461.91 82.7 463.82 85.69 465.03 82.36 468.47 81.48 465.68 79.29 465.89 75.75 462.95 77.73 459.65 76.43 460.63 79.84 458.37 82.57"/><path class="cls-5" d="M463.28,48.81a.7.7,0,1,1-.7-.68A.69.69,0,0,1,463.28,48.81Z"/><path class="cls-5" d="M458,12.55a.7.7,0,1,1-.7-.68A.69.69,0,0,1,458,12.55Z"/><path class="cls-5" d="M236,51.46a.7.7,0,1,1-.7-.68A.69.69,0,0,1,236,51.46Z"/><path class="cls-5" d="M310.34,10.8a.7.7,0,1,1-.7-.68A.69.69,0,0,1,310.34,10.8Z"/><path class="cls-5" d="M444.12,82.57a.7.7,0,1,1-.7-.68A.69.69,0,0,1,444.12,82.57Z"/><path class="cls-5" d="M303.77,100.54a.7.7,0,1,1-.7-.68A.69.69,0,0,1,303.77,100.54Z"/><path class="cls-5" d="M261.32,7.26a1.4,1.4,0,1,1-1.4-1.36A1.38,1.38,0,0,1,261.32,7.26Z"/><path class="cls-5" d="M437,116.1a1.4,1.4,0,1,1-1.4-1.36A1.38,1.38,0,0,1,437,116.1Z"/><path class="cls-5" d="M508.2,125.28a1.4,1.4,0,1,1-1.4-1.37A1.38,1.38,0,0,1,508.2,125.28Z"/><path class="cls-5" d="M327.22,126.64a1.4,1.4,0,1,1-1.4-1.36A1.38,1.38,0,0,1,327.22,126.64Z"/><path class="cls-5" d="M262.72,110.35a1.4,1.4,0,1,1-1.4-1.36A1.38,1.38,0,0,1,262.72,110.35Z"/><polygon class="cls-5" points="14.93 -2.61 11.38 -2.48 9.48 0.51 8.26 -2.82 4.83 -3.71 7.62 -5.9 7.4 -9.44 10.34 -7.46 13.64 -8.76 12.67 -5.35 14.93 -2.61"/><polygon class="cls-5" points="112.11 37.72 114.47 37.8 115.73 39.79 116.54 37.58 118.82 36.99 116.96 35.54 117.11 33.19 115.16 34.5 112.96 33.63 113.61 35.9 112.11 37.72"/><polygon class="cls-5" points="130.28 160.8 131.78 160.85 132.59 162.12 133.1 160.71 134.56 160.33 133.37 159.41 133.47 157.91 132.22 158.75 130.82 158.19 131.23 159.64 130.28 160.8"/><polygon class="cls-5" points="158.68 50.76 160.18 50.82 160.98 52.08 161.5 50.67 162.96 50.3 161.77 49.37 161.86 47.87 160.62 48.71 159.22 48.16 159.63 49.6 158.68 50.76"/><polygon class="cls-5" points="198.78 29.16 200.28 29.21 201.09 30.48 201.61 29.07 203.06 28.69 201.88 27.77 201.97 26.27 200.72 27.11 199.33 26.55 199.74 28 198.78 29.16"/><polygon class="cls-5" points="206.57 92.42 208.07 92.47 208.88 93.74 209.4 92.33 210.85 91.95 209.67 91.03 209.76 89.52 208.51 90.36 207.12 89.81 207.53 91.26 206.57 92.42"/><polygon class="cls-5" points="184.94 70.97 187.29 71.05 188.56 73.04 189.37 70.83 191.65 70.24 189.79 68.79 189.94 66.44 187.98 67.75 185.79 66.89 186.44 69.15 184.94 70.97"/><polygon class="cls-5" points="138.38 66.84 141.92 66.97 143.83 69.96 145.05 66.63 148.48 65.75 145.69 63.56 145.91 60.02 142.96 62 139.66 60.7 140.64 64.11 138.38 66.84"/><polygon class="cls-5" points="127.37 127.57 130.91 127.7 132.82 130.69 134.03 127.36 137.47 126.48 134.68 124.29 134.89 120.75 131.95 122.73 128.65 121.43 129.63 124.84 127.37 127.57"/><path class="cls-5" d="M219.68,125.72a.7.7,0,1,1-.7-.68A.69.69,0,0,1,219.68,125.72Z"/><path class="cls-5" d="M132.28,93.81a.7.7,0,1,1-.7-.68A.69.69,0,0,1,132.28,93.81Z"/><path class="cls-5" d="M127,57.55a.7.7,0,1,1-.7-.68A.69.69,0,0,1,127,57.55Z"/><path class="cls-5" d="M113.12,127.57a.7.7,0,1,1-.7-.68A.69.69,0,0,1,113.12,127.57Z"/><path class="cls-5" d="M106,161.1a1.4,1.4,0,1,1-1.4-1.36A1.38,1.38,0,0,1,106,161.1Z"/><path class="cls-5" d="M11.28,20a1.41,1.41,0,1,1-1.4-1.36A1.38,1.38,0,0,1,11.28,20Z"/><path class="cls-5" d="M210.11,60a1.4,1.4,0,1,1-1.4-1.36A1.38,1.38,0,0,1,210.11,60Z"/><path class="cls-5" d="M177.2,170.28a1.4,1.4,0,1,1-1.4-1.37A1.38,1.38,0,0,1,177.2,170.28Z"/><polygon class="cls-5" points="77.11 185.72 79.47 185.8 80.73 187.79 81.54 185.58 83.82 184.99 81.96 183.54 82.11 181.19 80.16 182.5 77.96 181.63 78.61 183.9 77.11 185.72"/><polygon class="cls-5" points="123.67 198.76 125.18 198.82 125.98 200.08 126.5 198.67 127.95 198.3 126.77 197.37 126.86 195.87 125.62 196.71 124.22 196.16 124.63 197.6 123.67 198.76"/><polygon class="cls-5" points="163.78 177.16 165.28 177.21 166.09 178.48 166.61 177.07 168.06 176.69 166.88 175.77 166.97 174.27 165.72 175.11 164.33 174.56 164.74 176 163.78 177.16"/><polygon class="cls-5" points="171.57 240.42 173.07 240.47 173.88 241.74 174.4 240.33 175.85 239.95 174.67 239.03 174.76 237.52 173.51 238.36 172.12 237.81 172.53 239.26 171.57 240.42"/><polygon class="cls-5" points="149.94 218.97 152.29 219.05 153.56 221.04 154.37 218.83 156.65 218.24 154.79 216.79 154.94 214.44 152.98 215.75 150.79 214.89 151.44 217.15 149.94 218.97"/><polygon class="cls-5" points="103.38 214.84 106.92 214.97 108.83 217.96 110.05 214.63 113.48 213.75 110.69 211.56 110.91 208.02 107.96 210 104.66 208.7 105.64 212.11 103.38 214.84"/><polygon class="cls-5" points="92.37 275.57 95.91 275.7 97.82 278.69 99.03 275.36 102.47 274.48 99.67 272.29 99.89 268.75 96.95 270.73 93.65 269.43 94.63 272.84 92.37 275.57"/><path class="cls-5" d="M142.9,121.63a.7.7,0,1,1-.7-.68A.69.69,0,0,1,142.9,121.63Z"/><path class="cls-5" d="M97.28,241.81a.7.7,0,1,1-.7-.68A.69.69,0,0,1,97.28,241.81Z"/><path class="cls-5" d="M92,205.55a.7.7,0,1,1-.7-.68A.69.69,0,0,1,92,205.55Z"/><path class="cls-5" d="M53.53,116.68a.7.7,0,1,1-.7-.68A.69.69,0,0,1,53.53,116.68Z"/><ellipse class="cls-5" cx="171.57" cy="137.26" rx="1.4" ry="1.36"/><path class="cls-5" d="M175.11,208a1.4,1.4,0,1,1-1.4-1.36A1.38,1.38,0,0,1,175.11,208Z"/><path class="cls-6" d="M403,70.15c-8.35-12.66-26.49-32.41-39.56-25.45-3.66,1.95-5.64,5.79-8,9.12-6.6,9.08-17.87,13.06-28.77,12.75-17.21-.5-32.13-11.61-45.33-22.38-13.49-11-27.17-23.4-44-27.93-14.85-4-31.48-1.56-42.21,11.15C184.44,40,180.62,57.27,169.69,69.63c-5.83,6.6-13.26,12.67-21.52,15.12-6.87,2-13.54.62-19.52-3.32C117.73,74.24,110.29,62.1,98.72,55.9,83.6,47.8,66.94,54.23,60.23,69.15,50.86,90,67.74,109,84.33,105.61c2.26-.46,1.45-4.19-.81-3.73C71.15,104.38,57.41,91,62.05,74.6c4.51-16,21.18-23.17,35.5-15,11,6.27,18.33,17.81,28.82,24.89,11,7.43,23.7,7.82,39.7-6A69.32,69.32,0,0,0,181.45,59c7.46-13.71,12.35-30,26.33-37.08,6.69-3.4,14.29-4.15,21.55-3.3,16.56,1.93,30.52,12.85,43.35,23.39C285.93,52.9,299.51,64.66,316.09,69c13.23,3.44,28.85,1.24,39.08-9.2,2.69-2.75,4.45-6.23,6.94-9.14a9.69,9.69,0,0,1,10.39-3c7.85,2.08,14,8.69,19.77,14.33A101,101,0,0,1,401,71.67c.87,1.11,2.77-.3,2-1.52Z"/><polygon class="cls-7" points="420.98 64.91 416.31 86.8 462.35 99.68 468.23 72.11 420.98 64.91"/><path class="cls-8" d="M411.63,80.78l4.68,6L421,64.91l-5.77,2.22A6.68,6.68,0,0,0,411.06,72l-.7,3.27A6.7,6.7,0,0,0,411.63,80.78Z"/><rect class="cls-8" x="405.49" y="69.78" width="6.3" height="6.7" transform="translate(251.89 457.53) rotate(-77.96)"/><path class="cls-7" d="M406,69.33c.77.17,1.1,1.69.73,3.4s-1.28,3-2.05,2.8-1.1-1.69-.74-3.4S405.26,69.17,406,69.33Z"/><rect class="cls-8" x="454" y="81.55" width="33.3" height="10.98" rx="2.4" transform="translate(287.36 529.19) rotate(-77.96)"/><polygon class="cls-6" points="459.46 98.87 465.26 71.66 433.15 66.76 428.17 90.11 459.46 98.87"/><rect class="cls-6" x="381.42" y="230.34" width="8.78" height="22.95" transform="translate(690.94 579.77) rotate(-164.16)"/><rect class="cls-6" x="277.23" y="199.74" width="9.7" height="20.09" transform="translate(496.17 488.62) rotate(-164.16)"/><rect class="cls-6" x="318.68" y="81.24" width="102.22" height="143.76" rx="23.75" transform="translate(683.73 401.38) rotate(-164.16)"/><rect class="cls-9" x="312.51" y="79.84" width="104.72" height="143.76" rx="24.04" transform="translate(674.46 397.3) rotate(-164.16)"/><rect class="cls-5" x="291.36" y="91.72" width="114.47" height="121.46" transform="translate(642.33 394.27) rotate(-164.16)"/><path class="cls-6" d="M382.66,226.06h14.85a0,0,0,0,1,0,0v6.85a0,0,0,0,1,0,0h-18.8a0,0,0,0,1,0,0V230A4,4,0,0,1,382.66,226.06Z" transform="translate(698.82 556.2) rotate(-164.16)"/><path class="cls-6" d="M379.88,218h6.84a0,0,0,0,1,0,0v13.35a0,0,0,0,1,0,0h0a6.84,6.84,0,0,1-6.84-6.84V218A0,0,0,0,1,379.88,218Z" transform="translate(690.71 545.4) rotate(-164.16)"/><rect class="cls-10" x="269.07" y="201.87" width="114.88" height="13.42" transform="translate(583.66 498.38) rotate(-164.16)"/><path class="cls-11" d="M420.24,109.65l-13.15,46.67s-13,15.41-17,12.84,17-25.45,12.87-28.78-45.5,46.15-49,38.3,32-37.74,28.95-41.11-26.65,21.6-34.14,13.71,35-23.19,28.31-28.69-20.35,8.26-25.73,5.66,25.58-11.47,24.19-18-33.2,10.39-36.64,2.21S362.34,93.2,362.34,93.2Z"/><path class="cls-9" d="M261.25,227.63h122.2a0,0,0,0,1,0,0v0a7.95,7.95,0,0,1-7.95,7.95H269.19a7.95,7.95,0,0,1-7.95-7.95v0a0,0,0,0,1,0,0Z" transform="translate(569.22 542.41) rotate(-164.16)"/><path class="cls-12" d="M148.32,118.93c-4.17.78-8.4,1.58-12.16,3.52s-7.06,5.24-8,9.37c-1,4.48.92,9.05,2.92,13.19a197.77,197.77,0,0,0,14.72,25.36c1.8,2.64,3.78,5.34,6.63,6.81,4.23,2.18,9.55,1.1,13.54-1.48s6.95-6.46,9.81-10.26C165.86,150,156.37,135.47,148.32,118.93Z"/><path class="cls-13" d="M175.81,165.44c-9.95-15.47-19.44-30-27.49-46.51a70.63,70.63,0,0,0-7.78,1.76c5.28,19.37,14.72,38.2,28.31,52.82A55.43,55.43,0,0,0,175.81,165.44Z"/><path class="cls-14" d="M233.63,98.91c1.25-2.84,3.39-5.67,6.46-6.13,3.61-.55,7,2.75,7.47,6.38s-1.53,7.21-4.26,9.64-6.34,4.62-9.26,6.82l-11.26,8.48c-4.23,3.19-8.52,6.41-13.37,8.54s-10.41,3.09-15.5,1.59-9.51-5.8-10.15-11.06,2.21-11.43,7.5-11.76a108.19,108.19,0,0,0,36-3.14c0-3.49-.11-8.18.76-11.55.34-1.33,1-2.86,2.32-3.13a2.65,2.65,0,0,1,2.79,2A6.66,6.66,0,0,1,233.63,98.91Z"/><path class="cls-15" d="M191.26,111.41c-5.29.33-8.14,6.5-7.5,11.76s5.07,9.57,10.15,11.06,10.64.53,15.5-1.59A44.58,44.58,0,0,0,216,129a88.72,88.72,0,0,0-9.8-17.44A107.37,107.37,0,0,1,191.26,111.41Z"/><path class="cls-5" d="M159.21,147.87c3.67,8.33,8,16.63,14.79,22.72s16.48,9.6,25.2,7c10.13-3.06,16.56-13.93,16.78-24.51s-5.85-19.94-11.25-29c-7.79-13.09-8.74-21.91-21.06-23-9.22-.85-29.54,7.4-34.44,15.56C144.21,124.9,155.46,139.38,159.21,147.87Z"/><path class="cls-16" d="M207,131.54c-5.9,5.42-15.26,10.85-23.06,12.72-2.81-5.6-4.25-10.78-7.07-16.38l.88-1.79c5.85-2.58,14.07-5.32,19.4-8.84,2.44,2.88,10.73,12.5,10.73,12.5Z"/><path class="cls-14" d="M207.9,129.75c-5.9,5.42-15.26,10.86-23.06,12.72-2.81-5.6-4.25-10.78-7.07-16.38a114.2,114.2,0,0,0,20.28-10.63C202,120.12,207.9,129.75,207.9,129.75Z"/><path class="cls-5" d="M131.32,106.26c3.67,7,9.91,13.08,17.66,14.6,8.24,1.61,16.49-2.06,24.08-5.63,8.56-4,18-9,20.69-18.11,2.32-7.81-1.19-16-4.63-23.43-4-8.61-9.31-18.27-18.63-20.09-5.18-1-10.46.72-15.37,2.66a173.62,173.62,0,0,0-22.88,11C117.23,75.87,124.56,93.38,131.32,106.26Z"/><path class="cls-11" d="M141.1,97.29c2.32,4.4,6.22,8.22,11.09,9.22,4.18.85,8.49-.46,12.45-2.05,6.86-2.75,22.58-7.62,28.51-12,5.35-4-5.33-28.16-12.48-29.54s-14.48.83-21.18,3.68c-6.54,2.79-13.23,6.3-18.42,11.26C135.12,83.49,137.4,90.25,141.1,97.29Z"/><path class="cls-5" d="M205.17,168.78c17,3.92,35,8.78,45.38,22.75,5.27-3.22,9.18-5.7,14.44-8.93a24.7,24.7,0,0,0-11.54-2.48c-2.86-11.07-7.68-21.47-17.36-27.56a27.79,27.79,0,0,0-12.83-4.63c-4.59-.29-9.42,1.16-12.55,4.53S202.85,164.81,205.17,168.78Z"/><path class="cls-11" d="M246.88,163.73c-2.92,2.36-7,1.77-9.72-.78a8.33,8.33,0,0,1-1.07-10.39C240.71,155,244.39,159.5,246.88,163.73Z"/><path class="cls-17" d="M253.45,180.12a64.81,64.81,0,0,0-5.16-13.91c-21.7,12.14-31.31-5.51-40.39-1.41-14.42,6.51-27.38,9.91-32.43-2.72-5.06-11.37-16.42-16.42-21.47-27.79-1.27-6.31,5.05-12.62,2.52-18.94-3.79-10.1-15.15-13.89-18.94-25.25-3.79-12.63,3.79-24,13.89-30.31,5.13-1.93,11.57-5.15,17.65-6.37-4.73-.5-9.52,1.07-14,2.84a173.62,173.62,0,0,0-22.88,11c-15,8.61-7.68,26.12-.92,39,3.51,6.7,9.38,12.55,16.68,14.37a12.48,12.48,0,0,0,0,1.73,13,13,0,0,0-2.44,2.76c-2.82,4.35-3.3,9.79-3.34,15-4.85-5.55-9.48-10.34-14.33-15.89,0,0,5.75-7.16,1.77-8.93-1.69-.75-4.06.55-3.94,2.39a26.7,26.7,0,0,0-2.25-8.45c-1.15-2.1-3.45-3.76-5.81-3.42-3.16.46-4.84,4-5.13,7.23-.52,5.65,1.7,12.28,5.84,16.16-.72,6.86,10.86,25.7,15.15,29.68,2.56,2.37,5.39,4.86,8.86,5.2,4.58.45,8.59-3,11.49-6.55a53.19,53.19,0,0,0,5.74-8.75c2.8,6.24,6,12.4,10.37,17.6a3.29,3.29,0,0,0-.08,1.38,157.81,157.81,0,0,1-1.72,58.48l16.69,7.36a20.84,20.84,0,0,0-6.35-10.88c13.23-11.12,21.16-28.44,22.36-45.76a31.09,31.09,0,0,0,9.6-6.64c14.86,4.66,30.79,8.72,40.07,21.22,5.27-3.22,9.18-5.7,14.44-8.93A24.7,24.7,0,0,0,253.45,180.12Z"/><path class="cls-18" d="M241.24,183s7-5.25,10.5-8.59l1.71,5.76s7-.27,11.54,2.48l-14.44,8.93A44.7,44.7,0,0,0,241.24,183Z"/><path class="cls-11" d="M198.06,191.94a10.82,10.82,0,0,0-7.87,1.47,7.53,7.53,0,0,0-3.35,7,5.83,5.83,0,0,0,5.6,5C195.41,201.32,196.93,196.88,198.06,191.94Z"/><path class="cls-18" d="M170,215.53l-2,10.89L185.4,234s-2.13-8.49-6.65-11.21l5.39-5.06Z"/><path class="cls-11" d="M170.07,167.31a64.86,64.86,0,0,0,44.54-25.24L212,136.52a65.82,65.82,0,0,1-43.85,27.18Z"/><path class="cls-19" d="M142.37,94.77c2.31,4.39,6.21,8.22,11.08,9.21,4.18.85,8.49-.45,12.45-2,6.87-2.76,22.59-7.63,28.51-12.06,5.35-4-5.33-28.15-12.47-29.53s-14.49.82-21.18,3.67-13.24,6.31-18.43,11.26C136.38,81,138.66,87.72,142.37,94.77Z"/><path class="cls-19" d="M147.68,76.21a3.8,3.8,0,0,1-2-3.77,41.65,41.65,0,0,0-3.36,2.84l-.22.24c9,6.09,9.3,16.37,6.53,26.4a13.37,13.37,0,0,0,4.81,2.06,14.3,14.3,0,0,0,1.83.23c-1.6-6.17-.66-13.46,1.24-20.43C157.79,78.73,150.21,78.73,147.68,76.21Z"/><path class="cls-19" d="M160.76,64a82.39,82.39,0,0,0-10.6,5.37,3.13,3.13,0,0,1,.05.5c10.1,6.32,13.89,13.89,11.36,25.26a15.59,15.59,0,0,0,.35,8.18,41.6,41.6,0,0,0,4-1.39c1.86-.75,4.37-1.65,7.16-2.66a60.21,60.21,0,0,0-11.83-35.45Z"/><path class="cls-19" d="M177.43,59.94a36.44,36.44,0,0,0-11.9,2.24C171.26,73,176.11,85.4,177.3,97.74c2.34-.86,4.74-1.77,7-2.71C187.28,82.37,186.54,69.5,177.43,59.94Z"/><path class="cls-5" d="M183.68,73.35a5.2,5.2,0,1,1-5.2-5.19A5.2,5.2,0,0,1,183.68,73.35Z"/><path class="cls-5" d="M127.13,104.57a10.19,10.19,0,0,0,3.78-11.37c-.21-.36-.44-.71-.67-1a11,11,0,0,0-1.1-.51c-1,.59-2.11,1.1-3.18,1.6a6.07,6.07,0,0,0-3,7.9,21.78,21.78,0,0,0,2.22,3.93A5.14,5.14,0,0,0,127.13,104.57Z"/><path class="cls-5" d="M125.72,117.67c-.12-1.84,2.25-3.14,3.94-2.39,4,1.77-1.77,8.93-1.77,8.93,4.85,5.55,9.48,10.34,14.33,15.89,0-5.19.52-10.63,3.34-15s8.65-7.15,13.37-5c3.1,1.41,5.09,4.65,5.71,8a22.82,22.82,0,0,1-.86,10.1,53,53,0,0,1-9.91,19.29c-2.9,3.57-6.91,7-11.49,6.55-3.47-.34-6.3-2.83-8.86-5.2-4.29-4-15.87-22.82-15.15-29.68-4.14-3.88-6.36-10.51-5.84-16.16.29-3.18,2-6.77,5.13-7.23,2.36-.34,4.66,1.32,5.81,3.42A26.7,26.7,0,0,1,125.72,117.67Z"/><path class="cls-11" d="M132.56,157.86c2.48-2.87,6.27-3.85,10.07-3.79a13.27,13.27,0,0,1,9.94,4.79c-.91,1.56-4.63,5.95-10.19,5.21C140.57,163.83,137.42,163.5,132.56,157.86Z"/><path class="cls-18" d="M118.07,129.34l2.61-1.19c.82-.37,1.6-.76,2.37-1.17s1.53-.85,2.3-1.31,1.55-1,2.45-1.5a6.07,6.07,0,0,1-1.38,2.72,8.4,8.4,0,0,1-5.32,2.83A6.16,6.16,0,0,1,118.07,129.34Z"/><path class="cls-12" d="M130.24,92.16c.23.33.46.68.67,1a10.19,10.19,0,0,1-3.78,11.37,5.14,5.14,0,0,1-2,.51c.12.17.22.36.35.53a7.11,7.11,0,0,0,9.91,1.5l1.77-1.28C137.76,100.43,135,94.67,130.24,92.16Z"/><path class="cls-11" d="M148,120.63v1.73s10.2.41,25.29-5.11,19.25-13,19.25-13L190.73,103a66.47,66.47,0,0,1-17.67,10.83C162.11,118.46,148,120.63,148,120.63Z"/><path class="cls-20" d="M172.1,164.8c17.54-.69,40-19.61,40-23.71"/><path class="cls-18" d="M227.47,108.7a18.55,18.55,0,0,1,1.85,1.76c.55.58,1.07,1.17,1.58,1.76s1,1.19,1.49,1.83a19.52,19.52,0,0,1,1.43,2.12,6.15,6.15,0,0,1-2.51-.9,8.58,8.58,0,0,1-2-1.71,8.39,8.39,0,0,1-1.36-2.24A5.92,5.92,0,0,1,227.47,108.7Z"/><rect class="cls-21" x="177.13" y="116.46" width="5.92" height="5.92" rx="0.54" transform="matrix(0.93, -0.37, 0.37, 0.93, -31.3, 74.61)"/><rect class="cls-11" x="184.33" y="113.55" width="5.92" height="5.92" rx="0.54" transform="translate(-30.46 81.34) rotate(-22.71)"/><path class="cls-22" d="M160.28,124.27a.55.55,0,0,1,.21-.91l13.45-4.47a.54.54,0,0,1,.68.34l1.53,4.6a.54.54,0,0,1-.34.68l-11,3.66a.53.53,0,0,1-.54-.12Z"/><path class="cls-23" d="M225.1,82.06c-1.06,1.06,4.56,8.64,9.63,14.07,7.88,8.44,18.33,15.85,19.58,14.56S247.51,99,239.05,91.43C233.9,86.79,226.18,81,225.1,82.06Z"/><path class="cls-11" d="M221.69,88.29c-5-.91-7.6-7.76-7.09-12.45.43-3.84,2.83-5,2.65-9-.21-4.33-3.09-6.58-2.43-7.22.94-.93,7.41,3.07,12.23,9.19,3.22,4.1,5.89,7.49,5,11.62C231.09,84.9,226.13,89.09,221.69,88.29Z"/><ellipse class="cls-14" cx="242.79" cy="97.14" rx="3.5" ry="5.7" transform="translate(14.67 224.98) rotate(-51.07)"/><path class="cls-24" d="M222.69,86.52c-4.31-.79-6.6-6.74-6.15-10.81.37-3.35,2.46-4.34,2.29-7.88-.17-3.76-2.68-5.71-2.1-6.27.82-.8,6.44,2.67,10.62,8,2.81,3.56,5.12,6.51,4.35,10.1C230.86,83.58,226.55,87.22,222.69,86.52Z"/></g></g><g id="Segundo"><g class="cls-25"><polygon class="cls-5" points="490.6 67.78 489.09 67.83 488.29 69.1 487.77 67.69 486.31 67.31 487.5 66.39 487.41 64.89 488.65 65.72 490.05 65.17 489.64 66.62 490.6 67.78"/><polygon class="cls-5" points="440.26 47.73 438.76 47.79 437.95 49.05 437.44 47.64 435.98 47.27 437.16 46.34 437.07 44.84 438.32 45.68 439.71 45.13 439.3 46.57 440.26 47.73"/><polygon class="cls-5" points="442.4 116.63 440.9 116.69 440.09 117.95 439.57 116.54 438.12 116.17 439.3 115.24 439.21 113.74 440.46 114.58 441.86 114.03 441.44 115.47 442.4 116.63"/><polygon class="cls-5" points="456.9 79.49 454.54 79.57 453.28 81.56 452.47 79.35 450.19 78.76 452.04 77.31 451.9 74.95 453.85 76.27 456.04 75.41 455.4 77.67 456.9 79.49"/><polygon class="cls-5" points="485.83 124.58 482.29 124.71 480.38 127.7 479.17 124.37 475.73 123.48 478.52 121.3 478.31 117.75 481.25 119.73 484.55 118.43 483.58 121.84 485.83 124.58"/><path class="cls-5" d="M442.4,7.49a.7.7,0,1,1-.7-.68A.69.69,0,0,1,442.4,7.49Z"/><path class="cls-5" d="M436.68,97.46a.7.7,0,1,1-.7-.68A.69.69,0,0,1,436.68,97.46Z"/><path class="cls-5" d="M511,56.8a.7.7,0,1,1-.7-.68A.69.69,0,0,1,511,56.8Z"/><path class="cls-5" d="M504.45,146.54a.7.7,0,1,1-.7-.68A.69.69,0,0,1,504.45,146.54Z"/><path class="cls-5" d="M462,53.26a1.4,1.4,0,1,1-1.4-1.36A1.38,1.38,0,0,1,462,53.26Z"/><path class="cls-5" d="M463.4,156.35A1.4,1.4,0,1,1,462,155,1.38,1.38,0,0,1,463.4,156.35Z"/><polygon class="cls-5" points="425.25 139.26 422.89 139.35 421.63 141.33 420.82 139.12 418.54 138.53 420.4 137.08 420.25 134.73 422.21 136.04 424.4 135.18 423.75 137.45 425.25 139.26"/><polygon class="cls-5" points="455.6 215.78 454.09 215.83 453.29 217.1 452.77 215.69 451.31 215.31 452.5 214.38 452.41 212.88 453.65 213.72 455.05 213.17 454.64 214.62 455.6 215.78"/><polygon class="cls-5" points="485.37 126.34 483.86 126.39 483.06 127.66 482.54 126.25 481.09 125.87 482.27 124.95 482.18 123.45 483.42 124.28 484.82 123.73 484.41 125.18 485.37 126.34"/><polygon class="cls-5" points="405.26 195.73 403.76 195.79 402.95 197.06 402.44 195.64 400.98 195.27 402.16 194.34 402.07 192.84 403.32 193.68 404.71 193.13 404.3 194.57 405.26 195.73"/><polygon class="cls-5" points="407.4 264.63 405.9 264.69 405.09 265.95 404.57 264.54 403.12 264.17 404.3 263.24 404.21 261.74 405.46 262.58 406.86 262.03 406.44 263.47 407.4 264.63"/><polygon class="cls-5" points="421.9 227.49 419.54 227.57 418.28 229.56 417.47 227.35 415.19 226.76 417.04 225.31 416.9 222.96 418.85 224.27 421.04 223.41 420.4 225.67 421.9 227.49"/><polygon class="cls-5" points="511.61 146.39 508.06 146.52 506.16 149.51 504.94 146.18 501.5 145.29 504.3 143.1 504.08 139.56 507.02 141.54 510.32 140.24 509.35 143.65 511.61 146.39"/><polygon class="cls-5" points="450.83 272.58 447.29 272.71 445.38 275.7 444.17 272.37 440.73 271.48 443.52 269.3 443.31 265.75 446.25 267.74 449.55 266.43 448.58 269.85 450.83 272.58"/><path class="cls-5" d="M407.4,155.49a.7.7,0,1,1-.7-.68A.69.69,0,0,1,407.4,155.49Z"/><path class="cls-5" d="M401.68,245.46a.7.7,0,1,1-.7-.68A.69.69,0,0,1,401.68,245.46Z"/><path class="cls-5" d="M476,204.8a.7.7,0,1,1-.7-.68A.69.69,0,0,1,476,204.8Z"/><path class="cls-5" d="M427,201.26a1.4,1.4,0,1,1-1.4-1.36A1.38,1.38,0,0,1,427,201.26Z"/><path class="cls-5" d="M508,169a1.41,1.41,0,1,1-1.4-1.36A1.38,1.38,0,0,1,508,169Z"/></g></g></svg>