<svg width="192" height="192" viewBox="0 0 192 192" fill="none" xmlns="http://www.w3.org/2000/svg">
<path fill-rule="evenodd" clip-rule="evenodd" d="M96 155C136.317 155 169 125.899 169 90C169 54.1015 136.317 25 96 25C55.6832 25 23 54.1015 23 90C23 103.809 27.836 116.612 36.0823 127.14C35.9462 127.41 35.8288 127.694 35.7322 127.99L25.4473 159.58C24.4214 162.731 26.1441 166.117 29.295 167.143C30.5501 167.551 31.8426 167.524 33.0083 167.144C33.779 167.066 34.5472 166.836 35.2702 166.443L65.7298 149.868C65.9686 149.738 66.195 149.594 66.4087 149.438C75.4535 153.013 85.4662 155 96 155ZM97.4664 103.788C99.5472 103.788 101.263 102.381 101.367 100.589L103.995 55.5374C104.107 53.6132 102.328 52 100.094 52H91.9059C89.6702 52 87.8907 53.6153 88.0052 55.5407L90.6845 100.593C90.7911 102.383 92.5058 103.788 94.5852 103.788H97.4664ZM96 123C100.418 123 104 119.634 104 115.482C104 111.33 100.418 107.965 96 107.965C91.5817 107.965 88 111.33 88 115.482C88 119.634 91.5817 123 96 123Z" fill="#546E7A"/>
<path fill-rule="evenodd" clip-rule="evenodd" d="M96 25.5C55.9032 25.5 23.5 54.4306 23.5 90C23.5 103.689 28.2932 116.385 36.476 126.832L36.6717 127.082L36.5288 127.365C36.404 127.613 36.2963 127.873 36.2077 128.145L25.9227 159.735C24.9823 162.623 26.5614 165.727 29.4498 166.667C30.6009 167.042 31.7849 167.017 32.8533 166.668L32.9045 166.652L32.9581 166.646C33.6637 166.575 34.3677 166.365 35.0312 166.004L65.4908 149.429C65.7101 149.309 65.9178 149.177 66.1137 149.034L66.3362 148.872L66.5925 148.973C75.5789 152.525 85.5292 154.5 96 154.5C136.097 154.5 168.5 125.569 168.5 90C168.5 54.4306 136.097 25.5 96 25.5ZM22.5 90C22.5 53.7724 55.4632 24.5 96 24.5C136.537 24.5 169.5 53.7724 169.5 90C169.5 126.228 136.537 155.5 96 155.5C85.5002 155.5 75.5126 153.538 66.475 150.001C66.3124 150.11 66.1436 150.212 65.9688 150.307L35.5092 166.882L35.2702 166.443L35.5092 166.882C34.7435 167.299 33.9297 167.546 33.1121 167.635C31.8625 168.032 30.481 168.055 29.1402 167.618C25.7267 166.507 23.8605 162.839 24.9718 159.425L35.2568 127.836C35.3273 127.619 35.4082 127.408 35.4987 127.204C27.3046 116.642 22.5 103.823 22.5 90ZM91.9059 52.5C89.8794 52.5 88.4113 53.9458 88.5043 55.511L91.1837 100.563C91.2708 102.029 92.7047 103.288 94.5852 103.288H97.4664C99.3482 103.288 100.782 102.027 100.868 100.56L103.496 55.5083C103.587 53.9439 102.119 52.5 100.094 52.5H91.9059ZM87.5061 55.5704C87.3702 53.2848 89.4609 51.5 91.9059 51.5H100.094C102.537 51.5 104.627 53.2825 104.494 55.5665L101.866 100.618C101.743 102.736 99.7461 104.288 97.4664 104.288H94.5852C92.307 104.288 90.3113 102.738 90.1854 100.622L87.5061 55.5704ZM96 108.465C91.8281 108.465 88.5 111.635 88.5 115.482C88.5 119.329 91.8281 122.5 96 122.5C100.172 122.5 103.5 119.329 103.5 115.482C103.5 111.635 100.172 108.465 96 108.465ZM87.5 115.482C87.5 111.025 91.3353 107.465 96 107.465C100.665 107.465 104.5 111.025 104.5 115.482C104.5 119.939 100.665 123.5 96 123.5C91.3353 123.5 87.5 119.939 87.5 115.482Z" fill="#546E7A"/>
</svg>
