<svg width="192" height="196" viewBox="0 0 192 196" fill="none" xmlns="http://www.w3.org/2000/svg">
<path d="M103.963 21.1097V28.337H138.183C141.742 28.337 145.065 30.1485 147.039 33.1645L167.404 64.2757C168.199 65.4895 168.199 67.0709 167.404 68.2847L147.039 99.3959C145.065 102.412 141.742 104.223 138.183 104.223H103.963V172.882C103.963 174.878 102.374 176.496 100.415 176.496H86.222C84.2625 176.496 82.6739 174.878 82.6739 172.882V104.223H43.6444C37.7657 104.223 33 99.3697 33 93.3825V39.1779C33 33.1906 37.7657 28.337 43.6444 28.337H82.6739V21.1097C82.6739 19.114 84.2625 17.4961 86.222 17.4961H100.415C102.374 17.4961 103.963 19.114 103.963 21.1097Z" fill="#546E7A"/>
</svg>
